<svg xmlns="http://www.w3.org/2000/svg" viewBox="0 0 230.96 70.79"><defs><style>.cls-1{fill:#457226;}</style></defs><title>1914</title><g id="圖層_2" data-name="圖層 2"><g id="圖層_1-2" data-name="圖層 1"><path class="cls-1" d="M202,36.88v1.43h-.27v.58h-.28c-.07,0,0,.19,0,.27h-.27v.58h-1.09c-.08,0,0,.19,0,.27h-.54c-.08,0,0,.19,0,.27h-.82c-.07,0,0,.22,0,.31h-.27v.27h-.55c-.07,0,0,.19,0,.28h-.54c-.08,0,0,.21,0,.3h-.81c-.08,0,0,.19,0,.27h-.52c-.07,0,0,.2,0,.28h-.58v.57h-.54c-.08,0,0,.2,0,.28h-.51c-.08,0,0,.19,0,.27s.19,0,.28,0v.28h-.55c-.07,0,0,.17,0,.23s.21,0,.3,0V44h-.54c-.08,0,0,.18,0,.27H193c-.07,0,0,.19,0,.27h-.51c-.08,0,0,.22,0,.31h-.31v.54h-.27v1.7h-.27v.31h-.31v1.39H191v2.29h-.27V53.9h-.31v.82c0,.08.22,0,.31,0v.58h-.31v.23c0,.08.22,0,.31,0v2.52c0,.08.19,0,.27,0V59h-.27v.31H189c-.07,0,0,.19,0,.27h-.31v-.27h-.54V59h-.58v-.27H187c-.08,0,0,.19,0,.27h-.55v-.27h-1.16V58.5c0-.08-.19,0-.27,0V58.2c0-.08-.19,0-.27,0v-.27h-.58v-.24c0-.08-.19,0-.27,0v-.31h-.31V57h-.27v-.27H183v-.31h-1.16v-.55h.54c.08-.11,0-.37,0-.54s-.19,0-.27,0v-.28h-.31v-.54a6,6,0,0,0-1.13,0V53.9H181c.08,0,0-.19,0-.27h.27c.08,0,0-.19,0-.27h.26v-.58h.28V51.66h.31V47.13c0-.08-.22,0-.31,0v-.27h-1.36c-.08,0,0,.19,0,.27h-.86v-.27h-4.56v-.27h-2.25v-.31H172V46H170.8V45.7H170v-.31h-.55v-.27h.83c.07,0,0-.19,0-.27H167.4v-.31h-1.71V44.3c0-.07-.19,0-.27,0V44h-.58v-.31h.31v-.24c0-.08-.21,0-.31,0v-.28h-.54v-.27c0-.08-.21,0-.31,0v-.51c0-.08-.19,0-.27,0v-.81c0-.08-.19,0-.27,0v-.85h.27V40H164c.07,0,0-.19,0-.27h.31v-.58h.27v-.58h.27v-.27h.55c.08-.13,0-.4,0-.58h.27V36.61H166v-.85h.27v-.58h.24c.07,0,0-.2,0-.27h.27c.07,0,0-.2,0-.28h.27v-.31h.28v-.27h.27c.07,0,0-.19,0-.27H168v-.3h.23c.08,0,0-.2,0-.28h.27c.08,0,0-.19,0-.27h.51c.08,0,0-.22,0-.31h.3v-.54h.28v-.31H170V31.5h.28c.07,0,0-.2,0-.27h.27v-.58h.55c.07,0,0-.19,0-.27h.51c.08,0,0-.22,0-.31h.27c.09,0,0-.19,0-.27h.28v-.28h.26v-.3h.55c.07,0,0-.2,0-.28h.27v-.26h.31v-.32h.52c.07,0,0-.19,0-.27h.27c.08,0,0-.19,0-.27h.81c.08,0,0-.22,0-.3h.81c.08,0,0-.19,0-.28h.27V27H177c.08,0,0-.22,0-.31h.54V27h.27c.08,0,0-.19,0-.27s-.21,0-.31,0v-.27h.55c.07,0,0-.19,0-.27h.27v-.58h.28c.07,0,0-.2,0-.27h.51c.08,0,0-.22,0-.31h.28c.07,0,0-.19,0-.27h.24c.08,0,0-.2,0-.27h.28v-.31h.27c.08,0,0-.19,0-.27h.26v-.27H181v-.31h.54c.08,0,0-.19,0-.28h.28v-.27h.54c.08,0,0-.21,0-.3H183c.08,0,0-.19,0-.27h.27v-.28h.54c.08,0,0-.21,0-.31h.82c.07,0,0-.19,0-.27H185V21h1.4c.07,0,0-.21,0-.3h1.71V21c0,.07.18,0,.27,0v.27H189v.24c0,.08.18,0,.27,0v.55c0,.08.19,0,.27,0v.54c0,.08.21,0,.31,0v.55h-.28c-.07,0,0,.21,0,.31h-.27v.27h-.82c-.08,0,0,.19,0,.27h-.85v-.24c0-.08-.19,0-.27,0v-.27H187v-.28c0-.08-.19,0-.28,0V23h-.24c-.07,0,0,.2,0,.28h-.54a3.49,3.49,0,0,0,0,.81c0,.08.19,0,.27,0v.58h-.27v.58h-.23c-.08,0,0,.19,0,.27h-.27c-.08,0,0,.19,0,.27h-.5c-.08,0,0,.21,0,.31h-.27c-.08,0,0,.19,0,.27h-.27v.27h-.27V27h-.27c-.08,0,0,.19,0,.27h-.23c-.08,0,0,.19,0,.28H183v.3h-.28c-.07,0,0,.19,0,.27h-.27v.27h-.27v.58h-.28c-.07,0,0,.2,0,.28h-.28v.3h-.26v.28h-.55c-.08.12,0,.39,0,.58h-.23c-.08,0,0,.18,0,.27h-.28c-.07,0,0,.19,0,.27h-.28v.31h-.27v.27h-.27c-.08,0,0,.19,0,.27H179v.31h-.27v.54h-.54c-.08,0,0,.21,0,.31h-.27v.27h-.31v.58h-.27v.54h-.54c-.08,0,0,.22,0,.31h-.27v.28h-.55c-.08,0,0,.19,0,.27h-.51c-.07,0,0,.21,0,.3h-.28c-.07,0,0,.19,0,.28h-.27V36h-.27v.3h-.28c-.07,0,0,.19,0,.28h-.27v.27h-.55c-.08,0,0,.21,0,.3h-.23c-.08,0,0,.19,0,.28h-.27v.27h-.31V38h-.26v.23c0,.08.18,0,.26,0v.27h.58v.31h.86v.27h1.7v.27H179v.31h-.27V40h1.36c.08,0,0-.16,0-.24s-.2,0-.28,0v-.58h.82c.08,0,0-.19,0-.27H181v-.58h.27c.08,0,0-.19,0-.27h1.08c.08,0,0-.22,0-.31H183c.08-.1,0-.35,0-.51s-.22,0-.31,0v-.3H183c.08,0,0-.2,0-.27h.27V35.52c0-.08-.19,0-.27,0v-.57h.23c.08,0,0-.2,0-.28h.27v-2h.31v-.24c0-.08-.21,0-.31,0v-.54c0-.09-.19,0-.27,0V31c0-.07-.19,0-.27,0v-.27h.27V29.8h.24c.08,0,0-.2,0-.28h.31v-.3h.51c.08,0,0-.2,0-.28h.31v-.58h1.12v.55c0,.08.19,0,.27,0v.28h1.4c.08,0,0-.2,0-.28h.27v.28h1.43v.3h.58V30c.11.07.37,0,.54,0v.55c0,.07.22,0,.31,0v.54c0,.08.19,0,.27,0v.51c0,.08.19,0,.27,0v.54c0,.08.22,0,.31,0v.54c0,.08.19,0,.27,0v.24c0,.08.19,0,.27,0v.28h.31v.27c0,.07.19,0,.27,0v.82c0,.08.2,0,.28,0v.28h.3v.54a10.71,10.71,0,0,0,1.4,0v.28h-.27V36h1.43v1.39a3.49,3.49,0,0,0,.81,0c.08,0,0-.19,0-.28h.52c.07-.12,0-.4,0-.57h-.55v-.55c0-.08-.2,0-.29,0v-.51c0-.08-.2,0-.28,0v-.27c0-.08-.19,0-.27,0v-.55h.27V33.48h.54c.08,0,0-.2,0-.28h1.13v.28h.85v.3h.58V34c0,.07.19,0,.27,0v.27h.58v.55c0,.08.19,0,.27,0v.27h.28v.3h.31v.24c0,.08.18,0,.27,0V36h.27v.3h.31v.52C201.78,36.92,201.94,36.86,202,36.88ZM197.5,38v-.58h-.58c0,.07,0,.25,0,.27h-.54c0,.09,0,.27,0,.31h-.82c0,.08,0,.24,0,.27h-.81v.27h-.27v.31h-.28V40h-.3v.85h-.27v.58h.27c0-.09,0-.27,0-.3h.55v-.55h.85v-.31h.27c0-.08,0-.25,0-.27h.28c0-.08,0-.25,0-.27h.52c0-.09,0-.27,0-.31h.54v-.27h.27v-.27h-.55c0,.08.05.24,0,.27h-.26c0,.08,0,.25,0,.27h-.82c0-.17-.05-.43,0-.54h.55c0-.1,0-.27,0-.31h.54c0-.08,0-.25,0-.27h.51c0-.09,0-.25,0-.27Zm-21.28,7.35v-.27h-.31v.27Zm-.58-17v-.27h-.58v.27Zm-1.43,16.49v-.58h-.86c0,.08.05.25,0,.27h-1.94c0,.09,0,.27,0,.31h-.55v-.31h-.27v.31c.08,0,.25-.05.27,0v.24h.58c0-.08,0-.25,0-.27H172v.27h.54v.27h.58v-.27h.86c0-.08-.05-.25,0-.27Z"/><path class="cls-1" d="M200.32,40.86v.58h-.27v.27h-.3v-.27h-.28v-.3H200c.08,0,0-.2,0-.28Z"/><path class="cls-1" d="M200.32,40.28v.31h-.27v-.31Z"/><path class="cls-1" d="M198,43.14v.28h-.81c-.08,0,0,.19,0,.27h-.55v-.27h.52c.07,0,0-.19,0-.28Z"/><path class="cls-1" d="M195.49,44v.27h-.81c-.08,0,0,.19,0,.27h-.51c-.08,0,0,.22,0,.31H193c-.07,0,0,.19,0,.27h-.28v-.27h.28v-.31h.54c.08,0,0-.19,0-.27h1.08c.08,0,0-.2,0-.27Z"/><path class="cls-1" d="M193.52,44.27c0,.08,0,.25,0,.27h-.54c0-.08,0-.25,0-.27Z"/><path class="cls-1" d="M173.08,44.85v.27c-.08,0-.24,0-.27,0s0-.22,0-.23Z"/><path class="cls-1" d="M162.87,34.32v5.42h-.28v.85h-.26c-.08,0,0,.19,0,.27H162v.28h-.55c-.07,0,0,.21,0,.3h-.27V42h-.82c-.08,0,0,.21,0,.3h-.55a4.62,4.62,0,0,0,0,.85h-.54v-.3h-.27c-.08,0,0,.19,0,.27s.21,0,.31,0v.28h-.27c-.08,0,0,.19,0,.27h-.27v-.51c-.11-.08-.37,0-.54,0s0,.17,0,.24.22,0,.31,0v.27h-.85v.58h-.55c-.08,0,0,.19,0,.27h-.27v.31h-.27c-.08,0,0,.19,0,.27h-.27v.58h-.24c-.08,0,0,.19,0,.27h-.31v1.12h-.27v.28c0,.07.19,0,.27,0v.27h-.27v1.4c0,.08.19,0,.27,0v.28h-.55v-.55c0-.08-.19,0-.27,0s0,.22,0,.31h-.82c-.08,0,0,.19,0,.28h-.24c-.08,0,0,.19,0,.27h-.27v-.27h-1.16v-.24c0-.08-.19,0-.27,0v-.27c0-.08-.19,0-.27,0v-.27h-.31v-.81c0-.08-.19,0-.27,0v-.54c0-.08-.19,0-.27,0v-.51c0-.07-.21,0-.31,0v-.31h-.54V46h-.31v-.54c0-.08-.19,0-.27,0v-.81c0-.08-.19,0-.27,0V44h.27v-.86h.27v-.58h.27c.08,0,0-.19,0-.27h.27V42h.27v-.28h.31v-.85H151V40h.27V38.58h.58V38h.27v-.58h.31v-.85h.27V36h.24c.08,0,0-.2,0-.27h.28c.07,0,0-.2,0-.28h.27v-.3h.24c.08,0,0-.2,0-.27h.27c.07,0,0-.2,0-.28h.27v-.31h.28v-.27h.3v-.57h.28V33.2h.54c.08,0,0-.19,0-.27h.27v-.31q.34.08.27-.27h.31v-.54c0-.09-.22,0-.31,0v-2h.27c.08,0,0-.2,0-.28h.27v-.3h.27v-.28H158v.28h.31v.3h.54v.28h.58V30c0,.07.19,0,.27,0v.31h.59v.27h.85v.58h.58v.51c0,.08.19,0,.27,0v.54c0,.08.19,0,.27,0v.54c0,.08.21,0,.3,0v1.36C162.62,34.37,162.78,34.3,162.87,34.32ZM158,37.73V36.61h-.85v.57h.31v.28h.27v.27Z"/><path class="cls-1" d="M159.19,42.84v.3c-.1,0-.27,0-.31,0s0-.25,0-.27Z"/><path class="cls-1" d="M156.06,46.24v.31h-.27v-.31Z"/><path class="cls-1" d="M152.92,22.71v1.13h-.23c-.08,0,0,.19,0,.27h-.27v.58h-.31v.58h-.51c-.07,0,0,.19,0,.27h-.31V27H151v.55h-.27v.3h.54v.86H151v.84h-.27v.55h-.27c-.08,0,0,.21,0,.31h-.27v.54h-.27v.58h-.28c-.07,0,0,.19,0,.27h-.27v.58H149c-.08,0,0,.19,0,.27h-.28c-.07,0,0,.21,0,.31h-.28v.55h-.27v.3h-.27c-.08,0,0,.19,0,.27h-.24c-.08,0,0,.19,0,.27h-.27v.31H147v.55h-.27v.3h-.28V36h-.27c-.08,0,0,.21,0,.3h-.27v.55h-.27v.58h-.27c-.08,0,0,.19,0,.27H145v.58h-.27v.58h-.31v.85h-.27v.54h-.27v.58h-.31v.58h-.27V42H143v.85h-.31v.85h-.27v1.16h-.28v.85h-.3v1.12h-.28v.85h-.27v.85H141v.86h-.28v2.28h-.27v2.52c0,.08.19,0,.27,0v1.36c0,.08.2,0,.28,0v.3h-.28v.28h-.27v.27h-2v-.27h-.54v-.28h-.58v-.27c0-.08-.19,0-.27,0v-.27h-.31v-.28h-.27v-.27c0-.08-.19,0-.28,0v-.27h-.3v-.86h-.55v-.27h-.3v-.31h-.54v-.27h-.31v-.27h-.28v-.82c0-.08-.18,0-.27,0v-.58h.27v-.85h.28V51c0,.08.21,0,.31,0v.24c0,.07.18,0,.27,0v.31h.27v-.85h.3V49.1h.28V47.67h.27v-.23c0-.08-.19,0-.27,0v-.85h.27v-1.4c0-.07-.17,0-.24,0s0,.19,0,.27h-.28v-.27h.28v-.58h.27v-.82c0-.08-.19,0-.27,0v-.55h.27V42c0-.08-.19,0-.27,0V40.86h.24c.07,0,0-.19,0-.27h.3V39.47c-.12-.08-.39,0-.57,0V40h-.28v-.27h-.3V40c0,.08.21,0,.3,0v.27h-.81c-.08,0,0,.22,0,.31H134c-.08,0,0,.19,0,.27h-.81c-.08,0,0,.19,0,.28h-.27v.3h-2v-.3h-1.12v-.28h-.58v-.24c0-.07-.19,0-.28,0v-.27c0-.08-.18,0-.27,0V40h-.3v-.27H128v-.27c0-.08-.19,0-.28,0v-.27h-.3v-.54c0-.08-.19,0-.28,0V37.49c0-.08-.19,0-.27,0V35.18h.27v-.55h.28v-2h.54c.08,0,0-.19,0-.27h.27v-.27h.3V31.5h.24c.08,0,0-.2,0-.27h.28v-.58h.27c.08,0,0-.19,0-.27h.27V29.8h.27v-.86h.82c.08,0,0-.19,0-.26h.28c.07-.05,0-.23,0-.32h.23c.08,0,0-.19,0-.27h.27v-.27H132v-.3h.27v-.28h.27v-.58h.82c.08,0,0-.19,0-.27h.28c.07,0,0-.19,0-.27h.27v-.31h.28v-.27h.54c.08,0,0-.2,0-.27h.27V25h.27c.07,0,0-.19,0-.27h.52c.07,0,0-.2,0-.27h.3v-.31h.52c.08,0,0-.19,0-.27H137c.08,0,0-.2,0-.27h.27v-.31h.27V23h.27c.08,0,0-.18,0-.27h.27v-.3h.54c.08,0,0-.19,0-.27h.51c.08-.13,0-.4,0-.59h1.12c.07,0,0-.19,0-.27H141c.08,0,0-.19,0-.27h.54c.08,0,0-.21,0-.3h.55c.08,0,0-.2,0-.28h.52c.07,0,0-.19,0-.27h.81c.08,0,0-.22,0-.3h.54c.08,0,0-.2,0-.28h1.4c.07,0,0-.19,0-.27h4.26v.27h.54v.28H151v.27c0,.07.19,0,.27,0v.27h.31v.85h.54v.27h.31v.28c0,.07.19,0,.27,0v.82C152.68,22.76,152.84,22.69,152.92,22.71Zm-5.1.27v-.57H146.7c0,.09,0,.27,0,.3H145c0,.09,0,.25,0,.27h-1.09c0,.09,0,.25,0,.28h-.54c0,.09,0,.27,0,.31h-1.09c0,.07.05.24,0,.27h-.55c0,.08,0,.24,0,.27H141c0,.09,0,.27,0,.31h-.51c0,.07,0,.24,0,.27h-.55c0,.08,0,.25,0,.27h-.54c0,.09,0,.27,0,.31h-.51c0,.07,0,.24,0,.27h-.27v.27h-.27c0,.09,0,.27,0,.31h-.55v.27h-.27v.27h-.27V27h-.31v.27h-.27c0,.09,0,.25,0,.28h-.24c0,.08.05.26,0,.3h-.54c0,.08,0,.25,0,.27h-.24v.59h-.3v.26h-.27c0,.08,0,.25,0,.28h-.23v.58h-.31v.27h-.28c0,.09.05.27,0,.31h-.55v.27h-.27v.58h-.27c0,.07,0,.25,0,.27h-.28v.58h-.27c0,.08.05.25,0,.27H132v.58h-.31v.55h-.27v.3h-.27v.85h.27v.28h.85v.27h3.41c0-.08,0-.25,0-.27h1.4c0-.09,0-.25,0-.28h.82c0-.09,0-.27,0-.31h.51c0-.08,0-.24,0-.27H139c0-.08,0-.25,0-.27h.82v-.3h.28v-.55H141v-.58h.3V30.92h-.58v.58h-.27c0,.08,0,.24,0,.27h-.27v-.54h.3v-.58h.27v-.58H141v-.85h.3v-.28h.27c0-.08,0-.24,0-.26h.24v-.59h.58v-.57h.27v.3H143V27c.08,0,.24,0,.27,0v.52h1.12c0-.09,0-.25,0-.28s.25,0,.27,0v.55H145v.27h.58v.59h-.3v.26h.57v-.58h.27v-.54h.31v-.58h.28v-.58H147v-.27c-.09,0-.25,0-.27,0v-.55c-.09,0-.25.05-.28,0v-.51h.28V25H147c0-.08-.05-.25,0-.27h.54V23Zm-3.1,6v-.26h-.31v.26Zm-4.26,10.22v-.85h-.3v.85Z"/><path class="cls-1" d="M151.8,26.66v.58h-.27v.58h-.31V27h.28c.07,0,0-.22,0-.31Z"/><path class="cls-1" d="M140.16,31.77v.58h-.28v-.58Z"/><path class="cls-1" d="M139.88,32.35c0,.08,0,.25,0,.27h-.24v-.27Z"/><path class="cls-1" d="M135.63,24.11v.31h-.28v-.31Z"/><path class="cls-1" d="M135.35,39.74V40c-.09,0-.27.05-.3,0v-.24Z"/><path class="cls-1" d="M134.78,50.5v.58h-.27V50.5Z"/><path class="cls-1" d="M126.84,27.52v.57h-.31v.59h-.27v.84H126v.86h-.31v.24c0,.07.21,0,.31,0v.27h-.31v.58h-.27v.58h-.27v.54h-.31v.58h-.27v.58h-.27v.85H124c-.08,0,0,.19,0,.28h-.27v.57h-.27V36h-.28c-.07,0,0,.21,0,.3h-.28v.55h-.27v.85h-.27c-.07,0,0,.21,0,.31H122v.54h-.27v.85h-.27c-.08,0,0,.22,0,.31h-.28v.54h-.27v.55c0,.08.19,0,.27,0v.28h-.27v.57h-.27c-.08,0,0,.2,0,.28h-.28v.85H120v.3h-.27c-.08,0,0,.19,0,.28h-.27v1.12h-.27v.58h-.31v1.12h-.27v.31h-.27v.54H118v.28c0,.07.21,0,.31,0v.27H118v1.09c0,.08.21,0,.31,0v.31h.54v.55H118v-.27h-.27V50h-.24c-.08,0,0,.19,0,.27h-.31v.58h-.27V49.68c0-.08-.19,0-.28,0v.58h-.3v.85h-.24c-.07,0,0,.19,0,.27h-.28v-.27h-.58v-.27h-.27V50h.27v-.28c0-.08-.18,0-.27,0v-.27h-.85v-.59h.55v-.54h.26c.09,0,0-.21,0-.3h.27v-.24c0-.08-.18,0-.27,0V47.4h-.57v-.31h-1.71v-.85h.27V44.88c0-.08-.18,0-.27,0v-.27c0-.08-.19,0-.27,0V43.18c0-.08-.21,0-.3,0v-.85h.3V40.86h.27v-.58h.55c.07,0,0-.19,0-.27h.28v-.27h-.59v-2h.31v-1.4h.28v-.57h.26V34.32h.31v-.54h.28v-.3h.27v-.55h.3v-.85h.27v-.31h.28v-.24c0-.07-.19,0-.28,0v-.27h.28v-.31h.82a3.91,3.91,0,0,0,0-.85h.3v-.85h.28v-.54h.55c.07-.05,0-.23,0-.32h.27v-.54H118v-.3h.31V27h.27v-.31h.58v-.54h.27v-.31h.27v-.27H120V24.45c0-.08-.21,0-.31,0V23H120v-.84h1.12v.27h.24c.08,0,0-.19,0-.27h.3v.27h1.71v.3h.85V23h.54v.28h.31v.54c0,.08.19,0,.27,0v.27h.27v.54c0,.08.21,0,.31,0v1.09c0,.08.19,0,.27,0v1.13c0,.07.19,0,.27,0v.51C126.57,27.56,126.74,27.49,126.84,27.52Zm-4,1.7v-.28h-.27v.28Zm-5.1,6.26v-.3h-.27v-.27h-.31v.57Zm-1.43-.3v-1.4h-.55v.27h-.3v.27h-.28v.31h-.27v.28h.55v.57h.3c0-.09,0-.27,0-.3Zm-.27,2.28v-.58h-.28v.58Z"/><path class="cls-1" d="M105.83,48.52v.27H105v-.27h-.27V47.13c-.13-.08-.4,0-.58,0v1.67c0,.08.19,0,.27,0v.31h-.27v.28h-.24c-.08,0,0,.19,0,.27h-.3V50h-.27v.54H103v.31h-.54c-.08,0,0,.19,0,.27h-.28v.27h-.3v.31h-.55v-.27c0-.08-.21,0-.3,0v-.27h-.85v-.24c0-.08-.19,0-.28,0V50.5h-.58v-.24c0-.08-.19,0-.27,0v-.55c0-.08-.19,0-.27,0v-.51c0-.08-.21,0-.31,0v-2c0-.08-.19,0-.27,0v-.27h-.28v-.27h-.3V46h.3v-.24c0-.08-.21,0-.3,0v-.31h.3v-.51c0-.08-.21,0-.3,0V44.3c0-.07-.19,0-.27,0V44h-.27V42.56h.27v.28h.24c.07,0,0-.17,0-.24s-.19,0-.27,0v-.81c0-.08-.19,0-.27,0V40.62c0-.07-.22,0-.31,0V39.47c0-.08-.19,0-.27,0v-.81c0-.08-.19,0-.28,0V37.49c0-.08-.21,0-.3,0v-.82c0-.08-.19,0-.27,0V34.94c0-.08-.19,0-.28,0V32.65c0-.07-.21,0-.3,0v-.24c0-.08-.19,0-.27,0v-.27h-.28v-.85h.28v-.31H95v-.54h.54c.08,0,0-.2,0-.28s-.19,0-.28,0V29.8h.82c.08,0,0-.2,0-.28h.86v.28h.84v.27h.55v.27c0,.08.22,0,.31,0v.27H99v.23c0,.08.19,0,.27,0v.31h.31v.27h.55v.27h.3V32c0,.08.19,0,.28,0v.27h1.12v.82c0,.08.21,0,.3,0v.28h.55v.27c0,.07.21,0,.3,0v.27h.28v.55c0,.08.19,0,.27,0v.51c0,.08.21,0,.3,0v.27c0,.08.2,0,.28,0V36h-.28v.82c0,.07.2,0,.28,0v.82c0,.07.19,0,.27,0v1.4c0,.07.22,0,.31,0v1.67c0,.08.19,0,.27,0v1.4c0,.07.19,0,.27,0v2.79c0,.08.22,0,.31,0v1.43h-.31v1.09c0,.07.22,0,.31,0v.82C105.59,48.56,105.75,48.5,105.83,48.52Z"/><path class="cls-1" d="M97.59,42.6c0,.07,0,.22,0,.24h-.24v-.28C97.4,42.59,97.57,42.52,97.59,42.6Z"/><path class="cls-1" d="M96.47,42.84v.85h-.85v.58h-.24c-.08,0,0,.19,0,.27h-.57v.58h-.28v1.12h-.27c-.08,0,0,.22,0,.31h-.51c-.07,0,0,.19,0,.27h-1.7v-.27h-.55c-.07,0,0,.19,0,.27h-.27v-.27H89.93v-.31h-.51c-.08,0,0,.22,0,.31h-3.1c-.08,0,0,.19,0,.27H85.4v-.27h-.24c-.07,0,0,.19,0,.27h-.58v-.27H84c-.07,0,0,.19,0,.27h-.55v-.27h-.27c-.08,0,0,.19,0,.27h-.28v-.27h-.23c-.08,0,0,.19,0,.27H82c-.08,0,0,.19,0,.27h-.57v-.23c0-.08-.2,0-.28,0v-.27h-.23c-.08,0,0,.19,0,.27h-.31v-.27h-.23c-.08,0,0,.19,0,.27h-1.4c-.07,0,0,.19,0,.27H77.16v-.27h-.82c-.07,0,0,.19,0,.27H76v-.27h-.82c-.08,0,0,.19,0,.27h-4c-.07,0,0,.21,0,.31h-.51c-.08,0,0,.19,0,.27H69.53c-.08,0,0,.2,0,.28H65.58c-.08,0,0,.21,0,.3h-.31V48H65c-.08,0,0,.21,0,.3H63.3c-.08,0,0,.19,0,.27h-.55c-.07,0,0,.19,0,.27H61c-.08,0,0,.22,0,.31h-.51c-.07,0,0,.19,0,.28h-.31V50h-.27v.27h-.54a3.82,3.82,0,0,0,0,.85H59c-.07,0,0,.19,0,.27h-.54c-.08,0,0,.21,0,.31H57.31v-.31h-.59v-.51c-.1-.08-.37,0-.54,0v-.27c0-.08-.21,0-.3,0v-.27H55V50c0-.08-.2,0-.28,0v-.28c0-.08-.19,0-.27,0v-.51c0-.08-.21,0-.3,0V47.67h.3V46.55h.27V45.7H55V44h.3V41.14h.24c.07,0,0-.2,0-.28h.27v-.27h.27c.08,0,0-.22,0-.31h.28V40h.26v-.58H57v-.85h.28V37.46h.23c.08,0,0-.19,0-.28h.3v-.3h.51c.08,0,0-.2,0-.27h.31v-.85H59v-.85h.27v-.25c0-.07-.19,0-.27,0v-.31h.55c.07,0,0-.16,0-.23s-.21,0-.31,0v-.27h.58V33.2h.27v-.85h.31v-.24c0-.08-.21,0-.31,0V29.8h.28c.07,0,0-.2,0-.28h.27v-.3H61v-.28h.28c.08,0,0-.19,0-.26h.51c.08-.05,0-.23,0-.32h.28c.08,0,0-.19,0-.27h.28v-.27H63c.08,0,0-.22,0-.3h.51c.08,0,0-.19,0-.28h.54c.08,0,0-.19,0-.27h1.67c.08,0,0-.22,0-.31h.27V27h.85v.27h.31v.28h.55v.3h.58v.27H69v.24c0,.08.19,0,.27,0v.32h.59v.26h.54v.28h.31v.3h.54v.28h.31v.27h.54v.27c0,.08.21,0,.31,0v.27h.54v.27h.31v-4.8h.27V24.45c0-.08-.19,0-.27,0v-.58h.27v-2H74.6v.28h.55c.08,0,0-.2,0-.28h3.13v.28h.55v.27H80V23c0,.08.19,0,.27,0v.28h.27v.27c0,.08.22,0,.31,0v.27h.27v.23c0,.08.19,0,.28,0v.31h.3v.51c0,.08.19,0,.27,0v.27c0,.08.2,0,.28,0v.27h.31v.82c0,.07.18,0,.26,0v.27h.28v.55c0,.07.21,0,.3,0v2.83h-.27c-.08,0,0,.21,0,.31h-.28v.85h-.26v.85h-.31v2H82V36.3c0,.08.2,0,.28,0v.28h.57v.27h-.26v.3h-.31v.55h.81c.08,0,0-.17,0-.24s-.19,0-.28,0v-.28h.86v.28h.85V38c0,.08.19,0,.27,0v-.58h.27c.08,0,0-.19,0-.28h.54v.52a4.33,4.33,0,0,0,.82,0,4.62,4.62,0,0,0,0-.85h.3v-.51c0-.08-.21,0-.3,0V36H86v-.27h.27v-.28h.28v-.57h.3v-.25c0-.07-.21,0-.3,0v-.58h.3v-.24c0-.08-.21,0-.3,0V32.62h.3v-.85h.27v.54c0,.08.19,0,.28,0v.82c0,.08.21,0,.3,0v.28H88v.27c0,.07.19,0,.28,0v.51c0,.08.2,0,.3,0v.28c0,.08.19,0,.27,0v.28h.28v.27h.27c.08,0,0-.2,0-.27h.27v.27h.23c.09,0,0-.2,0-.27h.3v.27h.28v.3h.58V36c.1.07.35,0,.51,0s0-.2,0-.27h.58V36c0,.07.19,0,.28,0v.54c0,.08.2,0,.3,0v.27h.27v.54a3.88,3.88,0,0,0,.85,0V38a4.68,4.68,0,0,0,.86,0v.51c0,.07.18,0,.27,0v.31h.3v.51c0,.08.2,0,.28,0V40c0,.08.18,0,.27,0v1.67c0,.08.21,0,.3,0V42.8C96.22,42.88,96.39,42.82,96.47,42.84Zm-3.68-3.68v-.58c-.1,0-.27,0-.3,0V38c-.09,0-.25,0-.28,0v-.27h-.27V38h-.31v-.31h-.27v.58c.08,0,.25,0,.27,0v.55h.31v.27c.08,0,.24,0,.27,0v.23h.28c0-.08,0-.25,0-.27Zm-20.74-.27v-.58h-.27V38c-.08,0-.25,0-.27,0v-.82H71.2v-.3h-.27v-.27c-.09,0-.25,0-.27,0v-.24h-.31V36c-.08,0-.25,0-.28,0v-.24c-.17,0-.45,0-.57,0v-.54c-.08,0-.25,0-.28,0v-.23c-.18,0-.45,0-.57,0v-.55H68.1v-.54h.55v.27H69v.27h.55v.31h.57v.28h.59v.27h.54v-.27c-.08,0-.25,0-.27,0v-.24h.27c0-.09,0-.27,0-.31h.28v-.54H71.2v-.3h-.54c0,.08,0,.26,0,.3s-.24,0-.27,0V33.2h-.28v-.27c-.17,0-.45,0-.57,0v-.54h-.28v-.27c-.08,0-.24,0-.27,0v-.27h-.57V31.5H68.1c0,.08.05.24,0,.27H67.8V31.5c-.09,0-.25,0-.28,0v-.55h-.27v-.27H66.4v-.27c-.1,0-.27,0-.31,0v-.27h.31c0-.08,0-.25,0-.27h1.09v.27c.09,0,.25-.05.28,0v.28c.09,0,.26-.05.3,0v.82h.55c0-.1-.05-.28,0-.31s.25,0,.27,0v.55h.27v.27c.09,0,.25-.05.28,0v.27h.31v.27c.07,0,.24-.05.26,0v.24H71.2v.31h.58v-.31c-.08,0-.25,0-.27,0v-.51h-.85v-.31h.27V31.5h-.58v-.27c-.08,0-.25,0-.28,0v-.27c-.08,0-.24,0-.26,0v-.23h-.59v-.27c-.08,0-.24,0-.27,0V29.8h.27v-.28a4.52,4.52,0,0,1-.84,0v-.55H67.8v-.26h-.55v-.32h-.31v-.27H66.4v-.27h-.58v-.3H64.11v.57h-.26c0,.08,0,.25,0,.27h-.54a7.24,7.24,0,0,1,0,1.16h-.54v.55c.09,0,.27-.05.3,0v.28h-.3v.27H63v.27h.55v.85h.31v.31h.26v-.31h.28V31.5c-.08,0-.25,0-.28,0v-.55h.28v.31c.1,0,.27-.05.31,0v.51H65v-.54h.58c0,.07,0,.25,0,.27h-.27v.58a3.89,3.89,0,0,1,.85,0v.51h.58v.31c.08,0,.25,0,.27,0s0,.22,0,.24h-.82v.58h-.27v.85h-.27v.85h-.31v.85c.1,0,.27,0,.31,0v.24h-.31c0,.07.05.24,0,.27H65V38h.27c0-.1,0-.28,0-.31h.28V38c.08,0,.24,0,.27,0v.82h.58c0-.1,0-.27,0-.31h.51V38c-.08,0-.24,0-.27,0s0-.24,0-.27h.55c0-.08,0-.25,0-.27a6.46,6.46,0,0,1,1.09,0V38H69v.27c.09,0,.25,0,.27,0v.24H69c0,.09,0,.27,0,.31h-.27v.27H69v.27c.09,0,.25,0,.27,0v.27H69c0,.08,0,.25,0,.27h-.54v.27H68.1v1.43h.55V42h.57v-.55h.28v-.58h-.28v-.27c-.08,0-.24,0-.27,0v-.28h.27c0-.08,0-.25,0-.27h.24v.27h.31V40c-.1,0-.28.05-.31,0v-.55h.31v.31h.54V40h.85c0-.08,0-.25,0-.27h.28v-.31h.27v-.54Z"/><path class="cls-1" d="M86.25,36.33v.28H86v-.28Z"/><path class="cls-1" d="M70.07,33.78v.27H69.5v-.57h.31v.27C69.83,33.82,70,33.76,70.07,33.78Z"/><path class="cls-1" d="M69.5,38.89v.27h-.28v-.27Z"/><path class="cls-1" d="M69,32.93v.27h-.3v-.27Z"/><path class="cls-1" d="M68.38,32.62v.31H68.1v-.28c0-.07-.21,0-.3,0v-.27h.3v.27Z"/><path class="cls-1" d="M67.8,32.08v.27h-.86v-.54c0-.09-.19,0-.27,0v.58H66.4v-.58h-.58V31.5h1.12v.27h.58V32C67.55,32.12,67.71,32.06,67.8,32.08Z"/><path class="cls-1" d="M67.25,30.92c0,.09,0,.27,0,.31h-.28v-.31Z"/><path class="cls-1" d="M66.4,30.65c0,.08,0,.25,0,.27h-.55c0-.08,0-.25,0-.27Z"/><path class="cls-1" d="M65.82,30.92v.31h-.27v-.31Z"/><path class="cls-1" d="M63.85,30.68v.24h-.31c0-.08,0-.25,0-.27S63.82,30.6,63.85,30.68Z"/><path class="cls-1" d="M63.27,30.41v.24H63c0-.09,0-.25,0-.27S63.25,30.33,63.27,30.41Z"/><path class="cls-1" d="M51.62,14.75v.57h-.27v1.13h-.27v.3H50.8c-.07,0,0,.19,0,.28H50.5v.27h-.82c-.08,0,0,.21,0,.31H48c-.08,0,0,.18,0,.27H45.15c-.07,0,0,.19,0,.27H41.74c-.07,0,0,.21,0,.31H39.46c-.07,0,0,.19,0,.27h-.81c-.08,0,0,.19,0,.27H37.15v.55c0,.08.19,0,.27,0s0-.19,0-.27H40v.27h3.4v.28H44v.27c0,.07.21,0,.3,0v.24c0,.07.2,0,.28,0v.28h.58V21c0,.07.19,0,.27,0v.51c0,.08.19,0,.27,0v.28c0,.07.21,0,.31,0v.28h.27V23c0,.08.19,0,.27,0v1.09c0,.08.22,0,.31,0v2.28h-.27c-.08,0,0,.19,0,.27h-.27V27H46v.27h-.31v.55c0,.07.21,0,.31,0v.27h1.7v.27h.54v.55c0,.08.22,0,.31,0v.82c0,.08.19,0,.27,0v.27h-.27v.81c0,.08.19,0,.27,0v1.7h-.27v.31h-.27c-.07,0,0,.19,0,.27H45.42c-.07,0,0,.19,0,.28H41.17c-.08,0,0,.21,0,.3h-.27v.27h-.27c-.08,0,0,.19,0,.27h-.28v.31H40v.55h-.27c-.08,0,0,.21,0,.3h-.27V36h-.27v.3h-.27c-.08,0,0,.19,0,.28h-.27v.57h-.27v.55H38c-.08,0,0,.21,0,.31H36.64c-.08,0,0,.18,0,.27h-.55c-.08,0,0,.19,0,.27h1.44v.31h-.55c-.08,0,0,.19,0,.27h.59v.27h1.93c.08,0,0-.19,0-.27h.27v-.24c0-.08-.19,0-.27,0v-.31h-.58v-.27h.54c.08,0,0-.19,0-.27h.27v.27H40c.08,0,0-.19,0-.27h.27v.27h3.95c.08,0,0-.19,0-.27h.28v-.31h.27V38h.31v.27h.27v.27h.55c.07,0,0-.19,0-.27h.54v.27h.59v.28c0,.07.18,0,.27,0v.27h.57v.27h.85v.31h1.44V40c0,.08.18,0,.27,0v.27h.58v3.41h-.55c-.07,0,0,.21,0,.31H49.41c-.08,0,0,.18,0,.27H43.72c-.08,0,0,.19,0,.27H42.26v-.27h-.52c-.07,0,0,.19,0,.27h-.3v.31h-.52c-.07,0,0,.19,0,.27h-.55c-.07,0,0,.19,0,.27H40v.31h-.82c-.07,0,0,.19,0,.27H38c-.08,0,0,.19,0,.27h-.52c-.07,0,0,.22,0,.31h-.82c-.08,0,0,.17,0,.24s.18,0,.26,0v.27H36.3v-.27h-.24c-.08,0,0,.19,0,.27h-.54c-.07,0,0,.21,0,.31h-.52c-.07,0,0,.19,0,.27h-.27c-.08,0,0,.2,0,.28H33.51c-.08,0,0,.21,0,.3H33.2v.27h3.06c.08,0,0-.19,0-.27h1.39c.08,0,0-.21,0-.3h.85v.3h.55c.07,0,0-.19,0-.27s-.22,0-.31,0v-.28h.85v.82c0,.07.21,0,.31,0v.27h.85v.31h.55v.28H42v.23c0,.08.2,0,.28,0V50h.3v.27h.55v.54c0,.08.21,0,.3,0v.51c0,.07.19,0,.27,0v.58h-.27v.27H44v.31h-.28V53c0,.08.2,0,.28,0v.28c0,.07.21,0,.3,0v.27h.28v.55a3.89,3.89,0,0,0,.85,0v.55H44.26v.58H44v-.28h-.24c-.08,0,0,.19,0,.28h-3.4v.57h-.85v-.3h-.81c-.08,0,0,.21,0,.3H38v-.27c0-.08-.19,0-.27,0v-.27H36.61v-.28H34.32v.55h-.27v.27c0,.08.19,0,.27,0v1.4h-.54c-.08.11,0,.37,0,.54s.22,0,.31,0V59c0,.08.19,0,.27,0v1.16h-.27v2.25h-.31v.27c0,.08.22,0,.31,0v1.08c0,.08.19,0,.27,0v.54c0,.08.19,0,.28,0v1.7H25.81v-.31h-.58v-.24c0-.07-.19,0-.27,0v-.27h-.28V65c0-.08-.21,0-.3,0V64.7h-.55v-.27h-.31v-.31h-.84v-.27H21.32c-.08,0,0,.19,0,.27H20.7v-.85H21v-.54h.28c.07,0,0-.22,0-.31h.27v-.28h.55c.07,0,0-.19,0-.27h.5c.08,0,0-.21,0-.31H23V61h.27v.27h.54c.08,0,0-.19,0-.27h.28v-.3h.24c.07,0,0-.2,0-.28h.27c.08,0,0-.19,0-.27H25v-.31h-.58v-.51c0-.07-.19,0-.27,0v-.58H25V56.19h-.58v-.55c-.11-.08-.38,0-.55,0v-.27h-.31v-.28H23v-.3h-.31v.58h-.24c-.08,0,0,.18,0,.27h-.85v-.27H19.61c-.07,0,0,.18,0,.27H18.42v-.27H15.87v-.28H15v-.85h-.54v-.27c0-.08-.21,0-.31,0v-.23c0-.08-.18,0-.27,0v-.27h.27v-.58h.31v-.24c0-.08-.21,0-.31,0v-.58h.28c.07,0,0-.19,0-.27H15c.08,0,0-.22,0-.31h.55c.08,0,0-.19,0-.27h.27V50.5h.3v-.85h.28v-.86h.23c.08,0,0-.18,0-.27h.54c.08-.12,0-.39,0-.57h.81c.08,0,0-.2,0-.28h.27V47.4h.27c.08,0,0-.21,0-.31h.54v.28c0,.07.21,0,.31,0v.27h.54v.55c0,.08.2,0,.28,0s0-.21,0-.3h.27v.3h.24c.07,0,0-.21,0-.3h.55c.07,0,0-.2,0-.28h.28v-.85h.31v-.58h.26V46h-.54c-.07,0,0,.19,0,.27H20.46c-.07,0,0,.22,0,.31H19.31c-.08,0,0,.19,0,.27H18.18c-.08,0,0,.19,0,.27h-.82c-.07,0,0,.21,0,.31H16.21c-.08,0,0,.19,0,.27H15.05c-.08,0,0,.2,0,.28H14.2c-.08,0,0,.21,0,.3h-.81c-.08,0,0,.19,0,.27H12.22c-.07,0,0,.19,0,.27h-.82c-.08,0,0,.22,0,.31h-.81c-.08,0,0,.19,0,.28H9.67c-.07,0,0,.19,0,.27H9.09c-.08,0,0,.21,0,.31H8.23c-.07,0,0,.19,0,.27H7.39c-.08,0,0,.19,0,.27H6.54c-.08,0,0,.21,0,.31H4.8V50.5H4v-.27H3.4v.58H3.13c-.08,0,0,.19,0,.27H2.59c-.08,0,0,.19,0,.27H2c-.08,0,0,.21,0,.31H1.39v-.31H.85v-.51c0-.08-.21,0-.31,0v-.27c0-.08-.19,0-.27,0V49.14c0-.08-.19,0-.27,0V46.82H.51c.08,0,0-.17,0-.24s-.19,0-.27,0v-.31H1.36c.07,0,0-.19,0-.27h.55c.08,0,0-.19,0-.27h.54c.08,0,0-.22,0-.31h.51c.08,0,0-.19,0-.27h.58v.27h.24c.07,0,0-.19,0-.27h2c.07,0,0-.19,0-.27h.82c.07,0,0-.22,0-.31h.27v-.27H8.17c.08,0,0-.2,0-.27h.54c.08,0,0-.22,0-.31h.55c.08,0,0-.19,0-.27h1.09c.08,0,0-.19,0-.28h.82c.08,0,0-.21,0-.3h.55c.08,0,0-.19,0-.28h.81c.08,0,0-.19,0-.27h.82c.07,0,0-.21,0-.3h1.7v-.55h.55v.27h.27c.07,0,0-.19,0-.27h1.09c.08,0,0-.21,0-.3h.54c.08,0,0-.2,0-.28h.27v-.54c0-.08-.19,0-.27,0V40h-.31v-.27h-.24c-.07,0,0,.19,0,.27H17v-.27h-.3v-.31H15v-.27H11.07v-.27H9.64v-.31H8.51v-.27H7.93V38H7.35v-.31H6.81v-.27H6.5v-.24c0-.08-.19,0-.27,0v-.54c0-.08-.19,0-.27,0v-.55c0-.08-.21,0-.31,0V34.32H6v-.54h.27v-.3H6.5V33.2h.82c.07,0,0-.19,0-.27h4.84v.27h1.12V31.81c0-.09-.19,0-.27,0V30.41c0-.08-.19,0-.27,0V29.25c0-.08-.21,0-.31,0v-.28h-.27V28.4c0-.08-.19,0-.27,0v-.84h-.59V27h.28v-.58h.31v-.58h.23c.08,0,0-.19,0-.27h.27v-.27H13v-.58h.24c.07,0,0-.2,0-.27h.31v-.58h.27v-.58h.24c.08,0,0-.19,0-.28h.28c.07,0,0-.18,0-.27h.27v-.57h.82c.08,0,0-.2,0-.28h.85v.28h1.12v.54c0,.08.21,0,.31,0V23h.27v.28h.27v.54c0,.08.21,0,.31,0v.27H19c.08,0,0-.19,0-.27h.24c.07,0,0-.2,0-.27h.28c.07,0,0-.22,0-.31h.27V23h.24c.08,0,0-.18,0-.27h.31v-.3h.51c.07,0,0-.19,0-.27h.55a4,4,0,0,0,0-.86h.55c.07-.12,0-.4,0-.57h.26V21h.24c.08,0,0-.21,0-.3H23v-.55H22.4v-.3h-.85v-.28H20.7v-.27h-.85V19H19v-.24c0-.08-.19,0-.27,0v-.27h-.58v-.27c0-.08-.19,0-.27,0v-.27h-.31v-.27H17.3v-.28c0-.08-.19,0-.28,0V17h-.3v-.55c0-.08-.19,0-.27,0v-.51c0-.08-.2,0-.28,0v-.54c0-.08-.21,0-.3,0V14.23c0-.07-.19,0-.27,0V13h.27V12.5h.27c.07,0,0-.22,0-.31h.28v-.27H17c.07,0,0-.19,0-.27h.28v-.28c0-.08-.19,0-.28,0v-.27h-.3v-.55c0-.08-.19,0-.27,0v-.27h-.28V9.67c0-.08-.21,0-.3,0V9.37H15.6V5.69h.27V5.11h.27c.07,0,0-.2,0-.28h.28V4.26h.27V3.68H17c.07,0,0-.19,0-.28h.52c.07,0,0-.19,0-.27h2V3.4h.54v.28h.58V4h.58v.28h.27V4.5c0,.07.19,0,.28,0V4.8c0,.08.21,0,.31,0v.28h.26v.27h.28v.27c0,.08.21,0,.31,0V6h.27V6.2c0,.08.19,0,.26,0v.31h.59v.51c.12.08.39,0,.57,0v.27c0,.08.19,0,.28,0v.27h.58v.27h1.93c.08,0,0-.19,0-.27h.82c.07,0,0-.19,0-.27h.54c.07,0,0-.22,0-.31h.51c.08,0,0-.19,0-.27H30c.08,0,0-.19,0-.27h.54c.08,0,0-.22,0-.31h.52c.07,0,0-.19,0-.27h.54c.08,0,0-.19,0-.27H32V5.38h.54c.08,0,0-.19,0-.27h.24c.08,0,0-.2,0-.28h.27c.08,0,0-.21,0-.3h.27V4.26H34c.08,0,0-.2,0-.28h.27v-.3h.24c.08,0,0-.19,0-.28h.27c.07,0,0-.19,0-.27h.51c.08,0,0-.21,0-.3H36c.08,0,0-.2,0-.27h.55c.08,0,0-.2,0-.27h.26V2h.55c.08,0,0-.2,0-.28H38c.08,0,0-.19,0-.27h.31V1.12h.51c.07,0,0-.19,0-.27h.31V.27h.27V0H44V.27h.58V.58h.85V.82c0,.07.19,0,.27,0v.27h.58V1.4c0,.07.19,0,.27,0V1.7h.31v.55c0,.07.19,0,.28,0v.27h.27v.81c0,.08.21,0,.3,0V4.83H47.4c-.08,0,0,.19,0,.28H47.1v.27h-.28v.31h-.27c-.08,0,0,.19,0,.27h-.23c-.08,0,0,.19,0,.27H46v.31h-.55c-.07,0,0,.19,0,.27h-.27v.27h-.55c-.07,0,0,.22,0,.31h-.28v.27h-.54c-.08,0,0,.19,0,.27h-.27v.31h-.54c-.08,0,0,.19,0,.28h-.55c-.08,0,0,.18,0,.27H42v.3h-.54c-.08,0,0,.19,0,.28h-.52c-.07,0,0,.18,0,.27H40c-.08,0,0,.21,0,.31h3.06c.08,0,0-.22,0-.31h.27c.07,0,0-.2,0-.27h.27V9.09H44v-.3h1.16v.3H46v.28h.85v.27h.55v.27c0,.08.21,0,.3,0v.27h.27v.54c0,.08.19,0,.27,0v.28h.31v.27h.27v.27c0,.08.19,0,.28,0v.27h.3v.54c0,.08.19,0,.28,0v.27h.58V13c0,.07.18,0,.27,0v.27c0,.08.19,0,.27,0v.27h.31v.27h.27v.82C51.37,14.79,51.54,14.72,51.62,14.75Zm-4.8,24.41v-.27h-.58v.27Zm-2.28,0v-.27c-.08,0-.25,0-.28,0v-.28h-2v.31h.3v.27h.85c0-.08,0-.25,0-.27H44v.27ZM42.26,16.45V15.9h-.55v-.3h-.58v-.28h-2c0,.08,0,.25,0,.28h-.55v.3h-.27c0,.08,0,.25,0,.27H38c0,.09,0,.25,0,.28h-.24c0,.09,0,.27,0,.3H36.61c0,.09,0,.25,0,.28h-2c0,.08,0,.24,0,.27H33.47c0,.09.05.27,0,.31h-.54v.27h-.27c0,.08,0,.25,0,.27h-.23v.58h.27c0-.08,0-.25,0-.27h.24c0-.1,0-.27,0-.31h2.52v.31H36v.27h.28v-.58h.31v-.27H36c0-.09,0-.25,0-.27h.81V17.3h.28c0-.08,0-.25,0-.27H38c0-.09,0-.25,0-.28s.42,0,.54,0v.51c.09,0,.24-.05.27,0v.28H40c0-.1,0-.28,0-.31h1.09c0-.08,0-.25,0-.27H42v-.58ZM41.13,38.89v-.31h-.27v.31Zm-4.83.54v-.27h-.55v.27Zm0-11.91V27h-.85v.27h-.28c0,.09,0,.25,0,.28H34.9c0,.08,0,.26,0,.3H34.6v.54h.3c0-.08,0-.24,0-.27h.82v-.27H36v-.3Zm-8.52,31.8v-.86h-.54v.28h-.31V59c.1,0,.27,0,.31,0v.27Zm-.85-30.64v-.32h-.27v.32Zm-.27-.59v-.57h-.27v-.28h-.31V27h-.27c0,.08,0,.25,0,.27h-.54v.28H25c0,.08,0,.26,0,.3h-.54v.27h-.27c0,.08,0,.25,0,.27h-.55v.58c.1,0,.28,0,.31,0v1.4h-.31v.27h-.26v.27h1.42c0-.08,0-.25,0-.27h.82c0-.09,0-.25,0-.27h.23V29.8h.27V28.68h.31v-.59Zm-.85,29.53V56.46h-.27v.85h-.31v.31Zm-.27-19.89v-.85H24.38c0,.09,0,.27,0,.3h-.52v1.13h.28v.27h.27c0-.08,0-.25,0-.27H25V38h.27c0-.1,0-.28,0-.31Z"/><path class="cls-1" d="M41.13,38.58v.31h-.27v-.31Z"/><path class="cls-1" d="M46.92,70.62H45.17V65.73h-5v4.89H38.43V59.87H40.2V64.2h5V59.87h1.75Z"/><path class="cls-1" d="M55.48,70.61H54V69.45h0a3,3,0,0,1-3.84,1,1.93,1.93,0,0,1-.91-.79,4.38,4.38,0,0,1-.36-2V62.83h1.65v4a4.77,4.77,0,0,0,.26,2,1.29,1.29,0,0,0,1.22.63,1.94,1.94,0,0,0,.92-.24,1.43,1.43,0,0,0,.66-.65,4.91,4.91,0,0,0,.28-2V62.83h1.66Z"/><path class="cls-1" d="M64.12,70.61H62.43a5,5,0,0,1-.28-.92,3.66,3.66,0,0,1-2.6,1.1,2.91,2.91,0,0,1-1.95-.63,2.07,2.07,0,0,1-.7-1.64c0-1.33,1-2.15,3-2.45A13.17,13.17,0,0,0,62,65.62a3.56,3.56,0,0,0,0-.74,1,1,0,0,0-.68-.77,2.15,2.15,0,0,0-.8-.15,2.1,2.1,0,0,0-1.35.35,1.73,1.73,0,0,0-.5.9l-1.56-.28a3.39,3.39,0,0,1,.93-1.53,3.85,3.85,0,0,1,2.54-.74,3.53,3.53,0,0,1,2.52.76,1.8,1.8,0,0,1,.45.75,5.79,5.79,0,0,1,.13,1.45v2.76A4.9,4.9,0,0,0,64.12,70.61ZM62,66.79a11,11,0,0,1-1.84.42,4.11,4.11,0,0,0-1,.29,1,1,0,0,0-.54.9,1,1,0,0,0,.28.73,1.4,1.4,0,0,0,1.12.42,1.89,1.89,0,0,0,1.76-.93A4.18,4.18,0,0,0,62,66.79Z"/><path class="cls-1" d="M71.84,68.21A2.31,2.31,0,0,1,71.07,70a3.67,3.67,0,0,1-2.59.84A3.73,3.73,0,0,1,66,70a2.67,2.67,0,0,1-1-1.65l1.65-.25a1.61,1.61,0,0,0,1.82,1.43,3,3,0,0,0,.92-.14,1,1,0,0,0,.73-.93c0-.41-.35-.69-1.07-.85a11,11,0,0,1-2.79-.9,1.85,1.85,0,0,1-1-1.71,2,2,0,0,1,.89-1.72,3.33,3.33,0,0,1,2-.6c2,0,3.12.71,3.38,2.12L70,65.06c-.13-.75-.67-1.13-1.64-1.13s-1.51.28-1.51.84a.63.63,0,0,0,.4.57,5.43,5.43,0,0,0,1.43.45,8,8,0,0,1,2.27.78A1.8,1.8,0,0,1,71.84,68.21Z"/><path class="cls-1" d="M79.93,70.62H78.28V66.06a3.42,3.42,0,0,0-.19-1.34A1.28,1.28,0,0,0,76.8,64a2.1,2.1,0,0,0-.94.23,1.57,1.57,0,0,0-.63.59,3.63,3.63,0,0,0-.32,1.71v4.09H73.25V59.87h1.66v3.91a3,3,0,0,1,2.36-1.11,3.41,3.41,0,0,1,1.24.23,2,2,0,0,1,1,.81,4.31,4.31,0,0,1,.41,2.15Z"/><path class="cls-1" d="M88.52,70.61H86.83a5,5,0,0,1-.28-.92,3.66,3.66,0,0,1-2.6,1.1,2.91,2.91,0,0,1-2-.63,2.07,2.07,0,0,1-.7-1.64c0-1.33,1-2.15,3-2.45a13.17,13.17,0,0,0,2.17-.45,3.56,3.56,0,0,0,0-.74,1,1,0,0,0-.68-.77,2.15,2.15,0,0,0-.8-.15,2.08,2.08,0,0,0-1.35.35,1.67,1.67,0,0,0-.5.9l-1.56-.28a3.39,3.39,0,0,1,.93-1.53A3.83,3.83,0,0,1,85,62.66a3.53,3.53,0,0,1,2.52.76,1.8,1.8,0,0,1,.45.75,5.79,5.79,0,0,1,.13,1.45v2.76A4.9,4.9,0,0,0,88.52,70.61Zm-2.1-3.82a11,11,0,0,1-1.84.42,4.11,4.11,0,0,0-1,.29,1,1,0,0,0-.54.9,1,1,0,0,0,.28.73,1.4,1.4,0,0,0,1.12.42,1.89,1.89,0,0,0,1.76-.93A4.18,4.18,0,0,0,86.42,66.79Z"/><path class="cls-1" d="M96.56,70.61H94.9V66.25a4.1,4.1,0,0,0-.19-1.5A1.23,1.23,0,0,0,93.42,64a1.93,1.93,0,0,0-1,.25,1.58,1.58,0,0,0-.66.72,4.31,4.31,0,0,0-.28,1.73v3.92H89.88V62.83H91.4V64h0a2.78,2.78,0,0,1,2.49-1.29,3.17,3.17,0,0,1,1.36.29,2,2,0,0,1,.91.81,2.84,2.84,0,0,1,.32,1,11.75,11.75,0,0,1,0,1.28Z"/><path class="cls-1" d="M103.1,70.62h-1.65v-8.1a7.4,7.4,0,0,1-2.65,1.57V62.55a7.34,7.34,0,0,0,1.48-.85,4.5,4.5,0,0,0,1.59-1.87h1.23Z"/><path class="cls-1" d="M113.15,65.16a9.24,9.24,0,0,1-.48,3.19,3.44,3.44,0,0,1-3.43,2.44,2.77,2.77,0,0,1-2.45-1.11,3.66,3.66,0,0,1-.58-1.55l1.61-.18c.18,1,.68,1.48,1.51,1.48s1.5-.55,1.81-1.65a7,7,0,0,0,.31-2h0A2.59,2.59,0,0,1,109.15,67a2.94,2.94,0,0,1-2.18-.94,3.58,3.58,0,0,1-1-2.59,3.69,3.69,0,0,1,.94-2.62,3.44,3.44,0,0,1,5.41.7A7.31,7.31,0,0,1,113.15,65.16Zm-1.89-1.63a2.84,2.84,0,0,0-.44-1.6,1.59,1.59,0,0,0-1.37-.73,1.53,1.53,0,0,0-1.31.68,2.73,2.73,0,0,0-.45,1.59,2.48,2.48,0,0,0,.48,1.58,1.75,1.75,0,0,0,2.67,0A2.47,2.47,0,0,0,111.26,63.53Z"/><path class="cls-1" d="M119.27,70.62h-1.65v-8.1A7.4,7.4,0,0,1,115,64.09V62.55a7.34,7.34,0,0,0,1.48-.85A4.5,4.5,0,0,0,118,59.83h1.23Z"/><path class="cls-1" d="M129.42,68.25h-1.37v2.36h-1.66V68.25h-4.54V66.73l4.79-6.88h1.41v6.88h1.37Zm-3-1.52V62.47h0l-2.91,4.26Z"/><path class="cls-1" d="M150.36,67.27a5.13,5.13,0,0,1-1,2.06,4.22,4.22,0,0,1-3.47,1.46,4.54,4.54,0,0,1-3.78-1.66,6.1,6.1,0,0,1-1.18-3.9,5.83,5.83,0,0,1,1.4-4.09A4.8,4.8,0,0,1,146,59.69a4.06,4.06,0,0,1,4.28,3.14l-1.76.42a2.51,2.51,0,0,0-2.59-2,2.72,2.72,0,0,0-2.59,1.45,5.27,5.27,0,0,0-.54,2.53,5.44,5.44,0,0,0,.55,2.7,2.72,2.72,0,0,0,2.52,1.38c1.49,0,2.41-.84,2.77-2.53Z"/><path class="cls-1" d="M156.31,63.07l-.54,1.48a2.06,2.06,0,0,0-1-.33c-.92,0-1.39,1-1.39,3.1v3.29H151.7V62.83h1.52V64h0c.45-.88,1-1.32,1.67-1.32A2.78,2.78,0,0,1,156.31,63.07Z"/><path class="cls-1" d="M163.65,67.18h-5.48a2.68,2.68,0,0,0,.55,1.67,1.87,1.87,0,0,0,1.48.63,1.7,1.7,0,0,0,1.7-1.36l1.68.25a3.21,3.21,0,0,1-3.42,2.42,3.38,3.38,0,0,1-3-1.41,4.52,4.52,0,0,1-.71-2.62,4.62,4.62,0,0,1,.82-2.8,3.21,3.21,0,0,1,2.75-1.3,3.25,3.25,0,0,1,2.8,1.29A5.24,5.24,0,0,1,163.65,67.18ZM162,66q-.15-2-1.86-2a1.7,1.7,0,0,0-1.57.88,3,3,0,0,0-.35,1.16Z"/><path class="cls-1" d="M171.78,70.61h-1.69a5,5,0,0,1-.28-.92,3.66,3.66,0,0,1-2.6,1.1,2.91,2.91,0,0,1-2-.63,2.08,2.08,0,0,1-.71-1.64c0-1.33,1-2.15,3-2.45a13.17,13.17,0,0,0,2.17-.45,3.56,3.56,0,0,0,0-.74,1,1,0,0,0-.68-.77,2.15,2.15,0,0,0-.8-.15,2.08,2.08,0,0,0-1.35.35,1.67,1.67,0,0,0-.5.9l-1.57-.28a3.49,3.49,0,0,1,.94-1.53,3.83,3.83,0,0,1,2.54-.74,3.53,3.53,0,0,1,2.52.76,1.8,1.8,0,0,1,.45.75,5.79,5.79,0,0,1,.13,1.45v2.76A4.9,4.9,0,0,0,171.78,70.61Zm-2.1-3.82a11.17,11.17,0,0,1-1.85.42,4.14,4.14,0,0,0-1,.29,1,1,0,0,0-.54.9,1,1,0,0,0,.28.73,1.39,1.39,0,0,0,1.12.42,1.89,1.89,0,0,0,1.76-.93A4.18,4.18,0,0,0,169.68,66.79Z"/><path class="cls-1" d="M176.48,70.55a4,4,0,0,1-1.25.2,1.74,1.74,0,0,1-1.71-.78,4.77,4.77,0,0,1-.24-1.86v-4h-1V62.84h1V61.08l1.67-1v2.74h1.36v1.31H175V68a3.74,3.74,0,0,0,.08,1,.47.47,0,0,0,.52.32,2.4,2.4,0,0,0,.75-.14Z"/><path class="cls-1" d="M179.22,70.62h-1.66V62.84h1.66Z"/><path class="cls-1" d="M187.94,62.83l-3,7.78H183.4l-3-7.78h1.75l1.59,4.32a14.68,14.68,0,0,1,.44,1.44h0q.17-.6.45-1.38l1.63-4.38Z"/><path class="cls-1" d="M195.68,67.18H190.2a2.62,2.62,0,0,0,.56,1.67,1.84,1.84,0,0,0,1.48.63,1.71,1.71,0,0,0,1.69-1.36l1.68.25a3.21,3.21,0,0,1-3.42,2.42,3.38,3.38,0,0,1-3-1.41,4.52,4.52,0,0,1-.71-2.62,4.62,4.62,0,0,1,.82-2.8,3.21,3.21,0,0,1,2.75-1.3,3.25,3.25,0,0,1,2.8,1.29A5.24,5.24,0,0,1,195.68,67.18ZM194,66q-.15-2-1.86-2a1.71,1.71,0,0,0-1.57.88A3,3,0,0,0,190.2,66Z"/><path class="cls-1" d="M209.43,63.09a2.88,2.88,0,0,1-1.86,3,6.58,6.58,0,0,1-2.45.34H203v4.22h-1.77V59.87H205a6.69,6.69,0,0,1,3,.47A2.92,2.92,0,0,1,209.43,63.09Zm-1.83,0a1.49,1.49,0,0,0-.78-1.47,4.69,4.69,0,0,0-1.87-.25H203v3.49h2Q207.6,64.88,207.6,63.11Z"/><path class="cls-1" d="M217.62,70.61h-1.69a5,5,0,0,1-.28-.92,3.67,3.67,0,0,1-2.61,1.1,2.88,2.88,0,0,1-1.94-.63,2.07,2.07,0,0,1-.7-1.64c0-1.33,1-2.15,3-2.45a13.23,13.23,0,0,0,2.16-.45,3.56,3.56,0,0,0,0-.74,1,1,0,0,0-.68-.77A2.15,2.15,0,0,0,214,64a2.1,2.1,0,0,0-1.35.35,1.73,1.73,0,0,0-.5.9l-1.56-.28a3.39,3.39,0,0,1,.93-1.53,3.83,3.83,0,0,1,2.54-.74,3.53,3.53,0,0,1,2.52.76,1.8,1.8,0,0,1,.45.75,5.79,5.79,0,0,1,.13,1.45v2.76A4.9,4.9,0,0,0,217.62,70.61Zm-2.1-3.82a11,11,0,0,1-1.84.42,4,4,0,0,0-1,.29,1,1,0,0,0-.54.9,1,1,0,0,0,.28.73,1.41,1.41,0,0,0,1.13.42,1.89,1.89,0,0,0,1.75-.93A4.18,4.18,0,0,0,215.52,66.79Z"/><path class="cls-1" d="M223.5,63.07,223,64.55a2,2,0,0,0-1-.33c-.93,0-1.4,1-1.4,3.1v3.29h-1.65V62.83h1.52V64h0c.45-.88,1-1.32,1.67-1.32A2.75,2.75,0,0,1,223.5,63.07Z"/><path class="cls-1" d="M231,70.62H229l-2.27-3.75-1,.94v2.81h-1.66V59.87h1.66V65.8l2.8-3h2.09l-2.83,2.86Z"/><path class="cls-1" d="M136,65.38a1.34,1.34,0,1,1-1.34-1.33A1.34,1.34,0,0,1,136,65.38Z"/><path class="cls-1" d="M179.26,60.83a.92.92,0,1,1-.92-.92A.92.92,0,0,1,179.26,60.83Z"/></g></g></svg>