<svg xmlns="http://www.w3.org/2000/svg" viewBox="0 0 381.51 48.11"><defs><style>.cls-1{fill:#231815;}</style></defs><title>CIT</title><g id="圖層_2" data-name="圖層 2"><g id="圖層_1-2" data-name="圖層 1"><path class="cls-1" d="M8.5,32.24H4.72V44h-1V32.24H0v-.85H8.5Z"/><path class="cls-1" d="M17.14,44h-.92v-.85a3,3,0,0,1-1.11.74,4.24,4.24,0,0,1-1.49.21,6.94,6.94,0,0,1-1.09-.08,2.64,2.64,0,0,1-.82-.25,2.05,2.05,0,0,1-.61-.45,2.3,2.3,0,0,1-.62-1.66,2.26,2.26,0,0,1,.79-1.83,3.38,3.38,0,0,1,2.19-.65h2.76v-1a2.07,2.07,0,0,0-.56-1.58,2.71,2.71,0,0,0-1.84-.52,3.49,3.49,0,0,0-1.43.25,2.55,2.55,0,0,0-.94.84l-.65-.57a3.11,3.11,0,0,1,.79-.79,2.85,2.85,0,0,1,1-.4,5.83,5.83,0,0,1,1.25-.12q3.32,0,3.32,2.8Zm-.92-3V39.94H13.57c-1.46,0-2.18.58-2.18,1.73a1.43,1.43,0,0,0,.54,1.25,2.74,2.74,0,0,0,1.69.42,4.69,4.69,0,0,0,1.2-.13,2,2,0,0,0,.93-.53A2.23,2.23,0,0,0,16.22,41.05Z"/><path class="cls-1" d="M22,32.5H20.84V31.39H22ZM21.86,44H21V35.47h.9Z"/><path class="cls-1" d="M36.43,35.47,33.69,44h-.92l-2.42-7.14L27.94,44H27l-2.73-8.56h1L27.45,43l2.46-7.49h.88L33.24,43l2.19-7.49Z"/><path class="cls-1" d="M44.76,44h-.91v-.85a3,3,0,0,1-1.12.74,4.2,4.2,0,0,1-1.49.21,7,7,0,0,1-1.09-.08,2.64,2.64,0,0,1-.82-.25,2.05,2.05,0,0,1-.61-.45,2.3,2.3,0,0,1-.61-1.66,2.23,2.23,0,0,1,.79-1.83,3.37,3.37,0,0,1,2.18-.65h2.77v-1a2,2,0,0,0-.57-1.58,2.71,2.71,0,0,0-1.84-.52,3.49,3.49,0,0,0-1.43.25,2.45,2.45,0,0,0-.93.84l-.65-.57a2.82,2.82,0,0,1,.79-.79,2.72,2.72,0,0,1,1-.4,6,6,0,0,1,1.25-.12c2.22,0,3.32.93,3.32,2.8Zm-.91-3V39.94H41.19c-1.45,0-2.18.58-2.18,1.73a1.45,1.45,0,0,0,.54,1.25,2.74,2.74,0,0,0,1.69.42,4.77,4.77,0,0,0,1.21-.13,2,2,0,0,0,.92-.53A2.19,2.19,0,0,0,43.85,41.05Z"/><path class="cls-1" d="M55.16,44h-.9V38.72a2.7,2.7,0,0,0-.61-1.9,2.25,2.25,0,0,0-1.75-.66,2.63,2.63,0,0,0-1.3.31,1.89,1.89,0,0,0-.83.87,3.09,3.09,0,0,0-.29,1.38V44h-.9V35.47h.9v1A3.18,3.18,0,0,1,52,35.37a2.92,2.92,0,0,1,3.15,3.19Z"/><path class="cls-1" d="M72.28,40.44a5,5,0,0,1-.8,2A4,4,0,0,1,70,43.69a4.61,4.61,0,0,1-2,.44,4.45,4.45,0,0,1-1.73-.34,4.25,4.25,0,0,1-1.44-.95,3.52,3.52,0,0,1-.8-1.19,4.63,4.63,0,0,1-.31-1.43c0-.54-.06-1.37-.06-2.51s0-2,.06-2.52A4.7,4.7,0,0,1,64,33.76a3.62,3.62,0,0,1,.8-1.19A4.45,4.45,0,0,1,68,31.29a4.56,4.56,0,0,1,2,.43A3.9,3.9,0,0,1,71.48,33a4.75,4.75,0,0,1,.8,2h-1a3.68,3.68,0,0,0-1.17-2.08A3.18,3.18,0,0,0,68,32.14a3.57,3.57,0,0,0-1.3.24,3.2,3.2,0,0,0-1.11.73,2.6,2.6,0,0,0-.52.7,3.61,3.61,0,0,0-.29.91A9,9,0,0,0,64.64,36c0,.48,0,1,0,1.72,0,1,0,1.76.06,2.29a5.47,5.47,0,0,0,.27,1.32,2.87,2.87,0,0,0,.64,1,3.3,3.3,0,0,0,1.11.73,3.56,3.56,0,0,0,2.83-.09,3.28,3.28,0,0,0,1.17-1,3.63,3.63,0,0,0,.65-1.5Z"/><path class="cls-1" d="M81.26,36.18l-.65.66a2.19,2.19,0,0,0-.74-.54,2.38,2.38,0,0,0-.88-.14,2.18,2.18,0,0,0-1,.21,2,2,0,0,0-.74.57,2.59,2.59,0,0,0-.44.82,3.22,3.22,0,0,0-.15,1V44h-.9V35.47h.9v1.14a2.43,2.43,0,0,1,1.06-.91,3.31,3.31,0,0,1,1.45-.33,3.25,3.25,0,0,1,1.12.18A2.56,2.56,0,0,1,81.26,36.18Z"/><path class="cls-1" d="M89.86,39.94h-6a3.8,3.8,0,0,0,.72,2.5,2.51,2.51,0,0,0,2.07.88A3.06,3.06,0,0,0,88,43.08a3.69,3.69,0,0,0,1.09-.8l.68.54a4.8,4.8,0,0,1-1.38,1,4.2,4.2,0,0,1-1.72.31,3.74,3.74,0,0,1-2-.49,3.17,3.17,0,0,1-1.23-1.48A6.16,6.16,0,0,1,83,39.75a6.46,6.46,0,0,1,.23-1.85,4.08,4.08,0,0,1,.67-1.37A3,3,0,0,1,85,35.67a3.44,3.44,0,0,1,1.44-.3,3.54,3.54,0,0,1,1.43.27,3,3,0,0,1,1.08.83,3.71,3.71,0,0,1,.69,1.31,6.26,6.26,0,0,1,.23,1.76ZM89,39.21a6.71,6.71,0,0,0-.08-.91,3.67,3.67,0,0,0-.21-.7,2.2,2.2,0,0,0-.89-1,2.44,2.44,0,0,0-1.33-.4,2.5,2.5,0,0,0-1.34.39,2.31,2.31,0,0,0-.88,1.05,3.42,3.42,0,0,0-.22.73,6.88,6.88,0,0,0-.09.88Z"/><path class="cls-1" d="M99.17,44h-.92v-.85a2.91,2.91,0,0,1-1.12.74,4.17,4.17,0,0,1-1.49.21,7,7,0,0,1-1.09-.08,2.64,2.64,0,0,1-.82-.25,2.19,2.19,0,0,1-.61-.45,2.3,2.3,0,0,1-.61-1.66,2.23,2.23,0,0,1,.79-1.83,3.38,3.38,0,0,1,2.19-.65h2.76v-1a2,2,0,0,0-.57-1.58,2.71,2.71,0,0,0-1.84-.52,3.53,3.53,0,0,0-1.43.25,2.45,2.45,0,0,0-.93.84l-.65-.57a2.77,2.77,0,0,1,1.76-1.19,6,6,0,0,1,1.26-.12q3.32,0,3.32,2.8Zm-.92-3V39.94H95.59c-1.45,0-2.18.58-2.18,1.73A1.45,1.45,0,0,0,94,42.92a2.76,2.76,0,0,0,1.69.42,4.77,4.77,0,0,0,1.21-.13,2,2,0,0,0,.92-.53A2.19,2.19,0,0,0,98.25,41.05Z"/><path class="cls-1" d="M106,44h-.79a2.12,2.12,0,0,1-1.12-.29,1.85,1.85,0,0,1-.71-.78,2.72,2.72,0,0,1-.24-1.17V36.15H102v-.68h1.17V32.73h.92v2.74H106v.68H104.1v5.66c0,.95.44,1.42,1.31,1.42H106Z"/><path class="cls-1" d="M110.2,32.5h-1.11V31.39h1.11ZM110.1,44h-.9V35.47h.9Z"/><path class="cls-1" d="M119.66,35.47,116.54,44h-.9l-3.12-8.56h1L116.09,43l2.57-7.49Z"/><path class="cls-1" d="M128.43,39.94h-6a3.8,3.8,0,0,0,.72,2.5,2.49,2.49,0,0,0,2.07.88,3.06,3.06,0,0,0,1.27-.24,3.69,3.69,0,0,0,1.09-.8l.68.54a4.8,4.8,0,0,1-1.38,1,4.2,4.2,0,0,1-1.72.31,3.74,3.74,0,0,1-2-.49A3.17,3.17,0,0,1,122,42.16a6.15,6.15,0,0,1-.43-2.41,6.44,6.44,0,0,1,.24-1.85,3.9,3.9,0,0,1,.67-1.37,3,3,0,0,1,1.09-.86,3.41,3.41,0,0,1,1.44-.3,3.54,3.54,0,0,1,1.43.27,3,3,0,0,1,1.08.83,3.71,3.71,0,0,1,.69,1.31,6.26,6.26,0,0,1,.23,1.76Zm-.91-.73a6.71,6.71,0,0,0-.08-.91,3.67,3.67,0,0,0-.21-.7,2.2,2.2,0,0,0-.89-1,2.44,2.44,0,0,0-1.33-.4,2.5,2.5,0,0,0-1.34.39,2.31,2.31,0,0,0-.88,1.05,4.25,4.25,0,0,0-.23.73c0,.21-.06.5-.08.88Z"/><path class="cls-1" d="M138,44h-1V31.39h1Z"/><path class="cls-1" d="M148.66,44h-.9V38.72a2.7,2.7,0,0,0-.61-1.9,2.25,2.25,0,0,0-1.75-.66,2.63,2.63,0,0,0-1.3.31,1.94,1.94,0,0,0-.83.87,3.09,3.09,0,0,0-.29,1.38V44h-.9V35.47h.9v1a3.18,3.18,0,0,1,2.53-1.12,2.92,2.92,0,0,1,3.15,3.19Z"/><path class="cls-1" d="M158.59,44h-.9V42.92a3.35,3.35,0,0,1-.76.75,2.43,2.43,0,0,1-.84.37,4.76,4.76,0,0,1-.94.09,2.84,2.84,0,0,1-2.1-.74,5,5,0,0,1-1.11-3.64,5,5,0,0,1,1.11-3.64,2.34,2.34,0,0,1,.88-.54,3.63,3.63,0,0,1,1.22-.2,3.48,3.48,0,0,1,1.41.26,2.65,2.65,0,0,1,1.13.94V31.39h.9Zm-.9-4.28a5.78,5.78,0,0,0-.5-2.6,2.36,2.36,0,0,0-3.84,0,5.93,5.93,0,0,0-.49,2.6,5.93,5.93,0,0,0,.49,2.6,2.36,2.36,0,0,0,3.84,0A5.78,5.78,0,0,0,157.69,39.75Z"/><path class="cls-1" d="M169,44h-.9V43a3.17,3.17,0,0,1-5.7-2.07V35.47h.92v5.31a2.7,2.7,0,0,0,.61,1.9,2.25,2.25,0,0,0,1.75.66,2.63,2.63,0,0,0,1.3-.3,2,2,0,0,0,.83-.88,3.12,3.12,0,0,0,.29-1.38V35.47h.9Z"/><path class="cls-1" d="M178.9,41.59a2.23,2.23,0,0,1-.42,1.35,2.68,2.68,0,0,1-1.19.89,5,5,0,0,1-1.81.3A4.87,4.87,0,0,1,172,42.91l.63-.63a3.7,3.7,0,0,0,2.81,1.06,3.52,3.52,0,0,0,1.92-.44,1.47,1.47,0,0,0,.66-1.31,1.27,1.27,0,0,0-.4-1,2.16,2.16,0,0,0-1.24-.42L175,40c-1.72-.14-2.58-.88-2.58-2.24a2.14,2.14,0,0,1,.38-1.27,2.35,2.35,0,0,1,1.07-.85,4.05,4.05,0,0,1,1.63-.3,5.57,5.57,0,0,1,1.67.24,4.24,4.24,0,0,1,1.33.66l-.6.6a4,4,0,0,0-2.4-.72,2.62,2.62,0,0,0-1.62.43,1.45,1.45,0,0,0-.56,1.21,1.26,1.26,0,0,0,.42,1,2.48,2.48,0,0,0,1.32.41l1.38.12a3.64,3.64,0,0,1,1.85.59A1.93,1.93,0,0,1,178.9,41.59Z"/><path class="cls-1" d="M185.12,44h-.78a2.12,2.12,0,0,1-1.12-.29,1.85,1.85,0,0,1-.71-.78,2.72,2.72,0,0,1-.24-1.17V36.15H181.1v-.68h1.17V32.73h.92v2.74h1.93v.68h-1.93v5.66c0,.95.44,1.42,1.31,1.42h.62Z"/><path class="cls-1" d="M193.75,36.18l-.65.66a2.29,2.29,0,0,0-.74-.54,2.38,2.38,0,0,0-.88-.14,2.18,2.18,0,0,0-1,.21,2,2,0,0,0-.74.57,2.4,2.4,0,0,0-.44.82,3.22,3.22,0,0,0-.15,1V44h-.9V35.47h.9v1.14a2.43,2.43,0,0,1,1.06-.91,3.44,3.44,0,0,1,2.57-.15A2.56,2.56,0,0,1,193.75,36.18Z"/><path class="cls-1" d="M201.66,35.47l-4,10.88a2.2,2.2,0,0,1-.58,1,2.3,2.3,0,0,1-1.62.55h-.43v-.8h.34a1.91,1.91,0,0,0,.76-.12.92.92,0,0,0,.46-.37,2.46,2.46,0,0,0,.34-.69l.69-1.89-3.11-8.56h1L198.09,43l2.57-7.49Z"/><path class="cls-1" d="M217.91,37.53v.41a16.71,16.71,0,0,1-.23,2.92,3.76,3.76,0,0,1-1,2,3.35,3.35,0,0,1-.86.63,4.47,4.47,0,0,1-1.06.4,6.12,6.12,0,0,1-1.24.13h-4.25V31.39h4.25a6.12,6.12,0,0,1,1.24.13,4.22,4.22,0,0,1,1.05.39,3.4,3.4,0,0,1,.87.63,3.58,3.58,0,0,1,1,1.9,13.86,13.86,0,0,1,.23,2.7Zm-1,0V37a12,12,0,0,0-.18-2.26,2.8,2.8,0,0,0-.77-1.53,3.59,3.59,0,0,0-2.71-1h-3V43.18h3a3.6,3.6,0,0,0,2.71-1,2.87,2.87,0,0,0,.77-1.63,14.78,14.78,0,0,0,.18-2.49Z"/><path class="cls-1" d="M227.89,39.94h-5.95a3.8,3.8,0,0,0,.72,2.5,2.5,2.5,0,0,0,2.07.88,3.06,3.06,0,0,0,1.27-.24,3.69,3.69,0,0,0,1.09-.8l.68.54a4.7,4.7,0,0,1-1.39,1,4.12,4.12,0,0,1-1.71.31,3.74,3.74,0,0,1-2-.49,3.17,3.17,0,0,1-1.23-1.48,6,6,0,0,1-.43-2.41,6.44,6.44,0,0,1,.24-1.85,3.9,3.9,0,0,1,.67-1.37,3,3,0,0,1,1.09-.86,3.37,3.37,0,0,1,1.44-.3,3.54,3.54,0,0,1,1.43.27,3,3,0,0,1,1.08.83,3.71,3.71,0,0,1,.69,1.31,6.26,6.26,0,0,1,.23,1.76Zm-.91-.73a6.71,6.71,0,0,0-.08-.91,3.67,3.67,0,0,0-.21-.7,2.2,2.2,0,0,0-.89-1,2.44,2.44,0,0,0-1.33-.4,2.47,2.47,0,0,0-1.34.39,2.31,2.31,0,0,0-.88,1.05,4.25,4.25,0,0,0-.23.73,7.23,7.23,0,0,0-.08.88Z"/><path class="cls-1" d="M236.92,35.47,233.8,44h-.89l-3.12-8.56h1L233.35,43l2.58-7.49Z"/><path class="cls-1" d="M245.7,39.94h-5.95a3.8,3.8,0,0,0,.72,2.5,2.49,2.49,0,0,0,2.07.88,3.06,3.06,0,0,0,1.27-.24,3.69,3.69,0,0,0,1.09-.8l.68.54a4.7,4.7,0,0,1-1.39,1,4.15,4.15,0,0,1-1.71.31,3.74,3.74,0,0,1-2-.49,3.25,3.25,0,0,1-1.24-1.48,6.16,6.16,0,0,1-.42-2.41,6.44,6.44,0,0,1,.24-1.85,3.9,3.9,0,0,1,.67-1.37,2.88,2.88,0,0,1,1.09-.86,3.37,3.37,0,0,1,1.44-.3,3.54,3.54,0,0,1,1.43.27,3,3,0,0,1,1.08.83,3.71,3.71,0,0,1,.69,1.31,6.26,6.26,0,0,1,.23,1.76Zm-.91-.73a8.92,8.92,0,0,0-.08-.91,3.82,3.82,0,0,0-.22-.7,2.17,2.17,0,0,0-.88-1,2.45,2.45,0,0,0-2.67,0,2.31,2.31,0,0,0-.88,1.05,4.25,4.25,0,0,0-.23.73c0,.21-.06.5-.08.88Z"/><path class="cls-1" d="M251.87,44h-.78a2,2,0,0,1-1.53-.6,2.34,2.34,0,0,1-.52-1.62V31.39h.9v10.4a1.74,1.74,0,0,0,.29,1.1,1.29,1.29,0,0,0,1,.34h.62Z"/><path class="cls-1" d="M261,39.75a9.08,9.08,0,0,1-.08,1.3,5,5,0,0,1-.32,1.16,3.18,3.18,0,0,1-.66,1,3.52,3.52,0,0,1-4.77,0,3.13,3.13,0,0,1-.66-1,4.46,4.46,0,0,1-.32-1.15,9.13,9.13,0,0,1-.09-1.32,7.93,7.93,0,0,1,.23-2,3.2,3.2,0,0,1,.84-1.49,3.52,3.52,0,0,1,4.77,0,3.13,3.13,0,0,1,.66,1,5.05,5.05,0,0,1,.32,1.17A9,9,0,0,1,261,39.75Zm-.92,0a8.11,8.11,0,0,0-.14-1.68,2.22,2.22,0,0,0-.62-1.18,2.38,2.38,0,0,0-1.76-.73,2.38,2.38,0,0,0-2.4,1.93,9,9,0,0,0-.14,1.66,9.19,9.19,0,0,0,.14,1.66,2.39,2.39,0,0,0,.62,1.2,2.45,2.45,0,0,0,1.78.73,2.41,2.41,0,0,0,1.76-.73,2.22,2.22,0,0,0,.62-1.18A8.11,8.11,0,0,0,260.08,39.75Z"/><path class="cls-1" d="M271,39.75a5,5,0,0,1-1.11,3.64,2.87,2.87,0,0,1-2.09.74,3.48,3.48,0,0,1-1.41-.26,2.76,2.76,0,0,1-1.13-.95v5.19h-.91V35.47h.91v1.1a2.66,2.66,0,0,1,1.12-.94,3.53,3.53,0,0,1,1.42-.26,3.77,3.77,0,0,1,1.2.19,2.4,2.4,0,0,1,.89.55A5,5,0,0,1,271,39.75Zm-.92,0a5.78,5.78,0,0,0-.5-2.6,1.91,1.91,0,0,0-1.91-1,1.94,1.94,0,0,0-1.92,1,5.79,5.79,0,0,0-.49,2.6,5.79,5.79,0,0,0,.49,2.6,1.94,1.94,0,0,0,1.92,1,1.91,1.91,0,0,0,1.91-1A5.78,5.78,0,0,0,270.12,39.75Z"/><path class="cls-1" d="M286.68,44h-.9V38.72a2.74,2.74,0,0,0-.61-1.9,2.27,2.27,0,0,0-1.75-.66,2.39,2.39,0,0,0-1.76.65,2.34,2.34,0,0,0-.66,1.75V44h-.9V38.72a2.74,2.74,0,0,0-.6-1.9,2.28,2.28,0,0,0-1.76-.66,2.66,2.66,0,0,0-1.3.31,2,2,0,0,0-.83.87,3.09,3.09,0,0,0-.28,1.38V44h-.91V35.47h.91v1a3.16,3.16,0,0,1,2.54-1.12,3.57,3.57,0,0,1,1.16.18,2.83,2.83,0,0,1,.93.52,2.89,2.89,0,0,1,.66.86,3.2,3.2,0,0,1,2.9-1.56,4,4,0,0,1,1.29.2,2.86,2.86,0,0,1,1,.61,3.16,3.16,0,0,1,.9,2.38Z"/><path class="cls-1" d="M296.81,39.94h-5.94a3.8,3.8,0,0,0,.71,2.5,2.51,2.51,0,0,0,2.07.88,3.06,3.06,0,0,0,1.27-.24,3.57,3.57,0,0,0,1.09-.8l.68.54a4.8,4.8,0,0,1-1.38,1,4.2,4.2,0,0,1-1.72.31,3.74,3.74,0,0,1-2-.49,3.17,3.17,0,0,1-1.23-1.48,6.16,6.16,0,0,1-.42-2.41,6.46,6.46,0,0,1,.23-1.85,4.08,4.08,0,0,1,.67-1.37,3,3,0,0,1,1.09-.86,3.45,3.45,0,0,1,1.45-.3,3.53,3.53,0,0,1,1.42.27,3,3,0,0,1,1.08.83,3.71,3.71,0,0,1,.69,1.31,6.26,6.26,0,0,1,.23,1.76Zm-.91-.73a6.71,6.71,0,0,0-.08-.91,3.67,3.67,0,0,0-.21-.7,2.2,2.2,0,0,0-.89-1,2.44,2.44,0,0,0-1.33-.4,2.5,2.5,0,0,0-1.34.39,2.31,2.31,0,0,0-.88,1.05,3.42,3.42,0,0,0-.22.73,5.64,5.64,0,0,0-.08.88Z"/><path class="cls-1" d="M306.76,44h-.9V38.72a2.74,2.74,0,0,0-.6-1.9,2.28,2.28,0,0,0-1.76-.66,2.63,2.63,0,0,0-1.3.31,1.94,1.94,0,0,0-.83.87,3.09,3.09,0,0,0-.28,1.38V44h-.91V35.47h.91v1a3.15,3.15,0,0,1,2.52-1.12,2.92,2.92,0,0,1,3.15,3.19Z"/><path class="cls-1" d="M313.61,44h-.79a2.12,2.12,0,0,1-1.12-.29A1.85,1.85,0,0,1,311,43a2.72,2.72,0,0,1-.23-1.17V36.15h-1.18v-.68h1.18V32.73h.91v2.74h1.94v.68h-1.94v5.66c0,.95.44,1.42,1.31,1.42h.63Z"/><path class="cls-1" d="M330.1,40.44a5,5,0,0,1-.8,2,4,4,0,0,1-1.49,1.27,4.61,4.61,0,0,1-2,.44,4.45,4.45,0,0,1-1.73-.34,4.35,4.35,0,0,1-1.44-.95,3.52,3.52,0,0,1-.8-1.19,4.94,4.94,0,0,1-.31-1.43c0-.54-.06-1.37-.06-2.51s0-2,.06-2.52a5,5,0,0,1,.31-1.43,3.62,3.62,0,0,1,.8-1.19,4.51,4.51,0,0,1,1.44-.95,4.37,4.37,0,0,1,1.73-.33,4.56,4.56,0,0,1,2,.43A4,4,0,0,1,329.31,33a4.88,4.88,0,0,1,.79,2h-1A3.68,3.68,0,0,0,328,32.9a3.18,3.18,0,0,0-2.15-.76,3.57,3.57,0,0,0-1.3.24,3.07,3.07,0,0,0-1.1.73,2.64,2.64,0,0,0-.53.7,3.61,3.61,0,0,0-.29.91,9,9,0,0,0-.13,1.27c0,.48,0,1,0,1.72,0,1,0,1.76.06,2.29a5.05,5.05,0,0,0,.26,1.32,2.76,2.76,0,0,0,.65,1,3.16,3.16,0,0,0,1.1.73,3.56,3.56,0,0,0,2.83-.09,3.2,3.2,0,0,0,1.17-1,3.63,3.63,0,0,0,.65-1.5Z"/><path class="cls-1" d="M340,39.75a9,9,0,0,1-.09,1.3,4.16,4.16,0,0,1-.32,1.16,2.87,2.87,0,0,1-.66,1,3.51,3.51,0,0,1-4.76,0,2.83,2.83,0,0,1-.66-1,4.09,4.09,0,0,1-.32-1.15,9.13,9.13,0,0,1-.09-1.32,7.48,7.48,0,0,1,.23-2,3.12,3.12,0,0,1,.84-1.49,3.51,3.51,0,0,1,4.76,0,2.83,2.83,0,0,1,.66,1,4.23,4.23,0,0,1,.32,1.17A9,9,0,0,1,340,39.75Zm-.92,0a8.11,8.11,0,0,0-.14-1.68,2.22,2.22,0,0,0-.62-1.18,2.51,2.51,0,0,0-3.54,0,2.31,2.31,0,0,0-.62,1.2,8.16,8.16,0,0,0-.14,1.66,8.36,8.36,0,0,0,.14,1.66,2.31,2.31,0,0,0,.62,1.2,2.45,2.45,0,0,0,1.77.73,2.41,2.41,0,0,0,1.77-.73,2.22,2.22,0,0,0,.62-1.18A8.11,8.11,0,0,0,339.09,39.75Z"/><path class="cls-1" d="M344.57,45.23l-1.2,1.22V42.82h1.2Z"/><path class="cls-1" d="M361.29,44h-7.67V31.39h1V43.18h6.71Z"/><path class="cls-1" d="M367,44h-.78a2.13,2.13,0,0,1-1.13-.29,1.91,1.91,0,0,1-.71-.78,2.87,2.87,0,0,1-.23-1.17V36.15H363v-.68h1.17V32.73h.92v2.74H367v.68h-1.93v5.66c0,.95.43,1.42,1.3,1.42H367Z"/><path class="cls-1" d="M376.34,44h-.9V42.92a3.35,3.35,0,0,1-.76.75,2.43,2.43,0,0,1-.84.37,4.76,4.76,0,0,1-.94.09,2.86,2.86,0,0,1-2.1-.74,5,5,0,0,1-1.11-3.64,5,5,0,0,1,1.11-3.64,2.31,2.31,0,0,1,.89-.54,3.53,3.53,0,0,1,1.21-.2,3.48,3.48,0,0,1,1.41.26,2.6,2.6,0,0,1,1.13.94V31.39h.9Zm-.9-4.28a5.79,5.79,0,0,0-.49-2.6,1.94,1.94,0,0,0-1.93-1,1.91,1.91,0,0,0-1.91,1,5.78,5.78,0,0,0-.5,2.6,5.78,5.78,0,0,0,.5,2.6,1.91,1.91,0,0,0,1.91,1,1.94,1.94,0,0,0,1.93-1A5.79,5.79,0,0,0,375.44,39.75Z"/><path class="cls-1" d="M381.51,44h-1.32V42.71h1.32Z"/><path class="cls-1" d="M9.87,1c0,.16-.11.23-.29.23s-.31.06-.31.2c-.65,1.37-1.45,3-2.42,4.71-.47.84-1,1.64-1.47,2.37,3.69-.33,7.38-.77,11.06-1.35A23.49,23.49,0,0,0,14,3.64q0-.17,1.29-.78a35.53,35.53,0,0,1,2.67,4,22.59,22.59,0,0,1,1.69,3.54,4.83,4.83,0,0,1-1.58.53,14.73,14.73,0,0,0-.93-2.45c-4.31.61-9.11,1.16-14.35,1.65a.66.66,0,0,0-.58.35c-.07.25-.18.36-.36.36s-.55-.66-1.13-2c1,0,2-.13,3-.22A56.31,56.31,0,0,0,6.65,3,19.3,19.3,0,0,0,7.58.22c0-.09.09-.13.22-.13C9.18.53,9.87.82,9.87,1ZM17,11.44q.33,0,.33.27v8.42c0,.17-.11.26-.33.26h-.87c-.24,0-.35-.09-.35-.26V19H5.09V20c0,.17-.11.26-.33.26H3.89c-.24,0-.35-.09-.35-.26V11.8a.32.32,0,0,1,.35-.36Zm-1.22,6.18V12.84H5.09v4.78Z"/><path class="cls-1" d="M25.26,6.57c.49.36.91.69,1.27,1a1.13,1.13,0,0,1-.11.16l-.67.86a18.8,18.8,0,0,0-1.69-1.24,10.26,10.26,0,0,0-1.17-.67,4.7,4.7,0,0,1,.6-.88.21.21,0,0,1,.17-.14A17.78,17.78,0,0,1,25.26,6.57Zm.34-4.68c.44.4.84.73,1.17,1,0,0,0,.09-.08.18C26.24,3.69,26,4,26,4a14.69,14.69,0,0,0-1.58-1.36,6.5,6.5,0,0,0-1.11-.71A3.41,3.41,0,0,1,23.93,1c.05-.09.11-.13.16-.13A15,15,0,0,1,25.6,1.89Zm.88,9.55c.36.78.56,1.18.56,1.22A.78.78,0,0,1,27,13c-.43,1.63-.83,3-1.18,4.13-.23.65-.47,1.34-.76,2.09A2.68,2.68,0,0,0,25,20c0,.18-.06.26-.15.26s-.56-.44-1.34-1.33a.32.32,0,0,1-.15-.22.59.59,0,0,1,.07-.31,15.87,15.87,0,0,0,.86-1.53C24.64,16,25,15,25.4,14l.87-2.53c0-.11,0-.18.08-.18S26.46,11.33,26.48,11.44ZM28.8,8.53c.15.07.24.13.24.22a.21.21,0,0,1-.09.18.15.15,0,0,0-.15.16,12.13,12.13,0,0,1-.69,2c-.05.11-.09.15-.11.15a.51.51,0,0,1-.29-.09l-.63-.26c-.08,0-.13-.05-.13-.07a.13.13,0,0,1,.05-.11,11.06,11.06,0,0,0,.42-1.13c.13-.43.24-.85.33-1.27,0-.11,0-.18.07-.18ZM31,1a1,1,0,0,0,.09.16c0,.11-.09.16-.25.16s-.4.06-.44.19c-.4.72-.78,1.34-1.13,1.91.24.29.49.58.73.85l.07-.11c.46-.65.86-1.25,1.2-1.78a11.17,11.17,0,0,1,1.11,1s-.05.07-.14.07a.52.52,0,0,0-.35.09c-.71,1-1.42,1.89-2.11,2.71l1.66-.06a8,8,0,0,0-.35-.72c0-.06.24-.24.78-.53.24.49.46.93.64,1.33s.27.78.4,1.2a5.91,5.91,0,0,1-1,.25,8.14,8.14,0,0,0-.24-.87l-1.15.18v3.82c0,.13-.09.18-.25.18h-.71c-.18,0-.24,0-.24-.18V7.31l-1.58.24a2.52,2.52,0,0,1-.51.43A5.78,5.78,0,0,1,27,6.51a9.38,9.38,0,0,1,1.4-.11c.47-.58.85-1.07,1.16-1.49l-1.09-1a12.09,12.09,0,0,0-1.29-.8c0-.09.2-.33.64-.78.05,0,.09-.09.14-.09.19.18.4.36.62.54a10.11,10.11,0,0,0,.49-.91L29.82.42Zm10.42,11c.22,0,.33.09.33.25v2.62a.29.29,0,0,1-.33.33H30.77c-.09.36-.15.67-.24,1h12c.29,0,.44.06.44.17a15.15,15.15,0,0,1-.77,2.25A3.18,3.18,0,0,1,41.17,20a6,6,0,0,1-2.4.35c-1.62,0-2.51-.15-2.67-.46a2.59,2.59,0,0,0-.73-1.11c0-.18.05-.25.18-.25a30.94,30.94,0,0,0,3.64.25,1.9,1.9,0,0,0,1.51-.47,4.55,4.55,0,0,0,.51-1H30.13a12.42,12.42,0,0,1-.62,1.4c-.05.09-.09.15-.11.15a1.88,1.88,0,0,1-.36,0c-.31,0-.64-.11-1-.18-.13,0-.17-.06-.17-.11a7.22,7.22,0,0,0,.6-1.22,11.41,11.41,0,0,0,.6-1.55,12.79,12.79,0,0,0,.4-1.92c0-.11.06-.17.22-.17.4.2.71.33.91.42h9.6v-1h-11c-.14,0-.18-.11-.18-.33v-.53c0-.16,0-.25.18-.25Zm-9.38-4c.27.63.54,1.29.78,2,0,.16,0,.25-.11.25a1.72,1.72,0,0,1-.84.35c-.23-.86-.43-1.6-.6-2.18,0-.1.22-.28.68-.5C32,8,32.06,8,32.08,8.06Zm5.56-5.37c.11,0,.17.09.17.24v.53c0,.18-.06.27-.17.27H33c-.13,0-.18-.09-.18-.27V2.93c0-.15,0-.24.18-.24ZM37.37,1a.16.16,0,0,1,.18.16v.53c0,.18-.07.27-.18.27h-4c-.11,0-.15-.09-.15-.27V1.11c0-.09,0-.16.15-.16ZM37.28,4.6a.16.16,0,0,1,.18.18v.51c0,.17-.07.26-.18.26H33.46c-.13,0-.18-.09-.18-.26V4.78c0-.12,0-.18.18-.18Zm0,1.64a.17.17,0,0,1,.18.18v.51c0,.18-.07.27-.18.27H33.46c-.13,0-.18-.09-.18-.27V6.42a.16.16,0,0,1,.18-.18Zm0,1.74c.18,0,.27.06.27.17V11c0,.13-.09.17-.27.17H33.55c-.18,0-.27,0-.27-.17V8.15c0-.11.09-.17.27-.17Zm-1,.95H34.51v1.31h1.82Zm5.3-7.8a.84.84,0,0,1,.07.16c0,.11-.09.15-.24.15s-.4.07-.45.2c-.42.63-.8,1.2-1.15,1.69l.73.87a.1.1,0,0,1,0-.07c.53-.69,1-1.31,1.33-1.89a8.77,8.77,0,0,1,1.13,1q0,.09-.18.09a.65.65,0,0,0-.39.08c-.76,1-1.52,2-2.23,2.78.49,0,1-.06,1.6-.13-.11-.25-.22-.49-.35-.73,0-.07.24-.25.78-.54.24.49.44.94.62,1.34s.29.77.42,1.2a3.86,3.86,0,0,1-1,.24,7.94,7.94,0,0,0-.24-.84l-1,.22v3.93c0,.13-.09.18-.27.18h-.68c-.18,0-.27,0-.27-.18V7.29l-1.38.33a2,2,0,0,1-.53.44,7.42,7.42,0,0,1-.25-1.46,3.1,3.1,0,0,1,1-.2c.51-.62.93-1.16,1.29-1.62-.42-.4-.73-.69-1-.89A7.25,7.25,0,0,0,38,3.11c0-.09.2-.33.65-.78a.21.21,0,0,1,.15-.09c.13.14.29.25.42.38.18-.26.36-.55.51-.82.31-.58.56-1,.71-1.29ZM39.5,8.53c.14.07.2.13.2.22a.24.24,0,0,1,0,.16c-.07,0-.11.07-.11.15A17.38,17.38,0,0,1,39.1,11a.46.46,0,0,1-.09.16.33.33,0,0,1-.24-.11c-.22-.09-.4-.18-.58-.27s-.13-.05-.13-.07a.28.28,0,0,1,0-.11,9.44,9.44,0,0,0,.31-1c.09-.4.18-.78.23-1.18,0-.11,0-.18.06-.18Zm3-.47a19.07,19.07,0,0,1,1,2.18c0,.13,0,.22-.09.22a1.55,1.55,0,0,1-.87.38c-.27-.93-.53-1.73-.78-2.36,0-.1.22-.28.71-.5C42.44,8,42.46,8,42.48,8.06Z"/><path class="cls-1" d="M57.41.33c0,.2-.09.32-.23.34S57,.84,57,1.11V3.64h8.42c.18,0,.27.09.27.25v.89q0,.33-.27.33h-3.6c-.26,1-.55,1.89-.84,2.78a15.3,15.3,0,0,1-1.78,3.55A21.39,21.39,0,0,1,57,14.28a.58.58,0,0,0,.13.11,13.8,13.8,0,0,0,3.56,2.25,24.14,24.14,0,0,0,5.09,1.78c.22.06.33.15.33.24a.45.45,0,0,1-.11.27,6.3,6.3,0,0,0-.91.89c-.11.13-.2.22-.27.22a2.32,2.32,0,0,1-.64-.25c-1-.33-2-.73-3.2-1.2a24.64,24.64,0,0,1-3.87-2.17,15.75,15.75,0,0,1-1.24-1,15.88,15.88,0,0,1-2.22,1.69,21.78,21.78,0,0,1-3.4,1.85A34.65,34.65,0,0,1,46.9,20a.5.5,0,0,1-.34-.16,11.79,11.79,0,0,0-.82-1,.47.47,0,0,1-.13-.24c0-.09.07-.18.22-.24a18.93,18.93,0,0,0,3.53-1A23.74,23.74,0,0,0,52.21,16a14.33,14.33,0,0,0,2.33-1.75c-.22-.23-.42-.45-.6-.67A11.08,11.08,0,0,1,51.72,10,21.77,21.77,0,0,1,49.9,5.11H46.3q-.27,0-.27-.33V3.89c0-.16.09-.25.27-.25h9V.33c0-.15.11-.24.35-.24C56.83.09,57.41.18,57.41.33Zm-4.94,7.8a15.81,15.81,0,0,0,2.07,3.69,8.8,8.8,0,0,0,1.11,1.28,12.81,12.81,0,0,0,2.22-2.79,12.4,12.4,0,0,0,1.51-2.74,24.28,24.28,0,0,0,.85-2.46H51.5A16,16,0,0,0,52.47,8.13Z"/><path class="cls-1" d="M71.38,15.57a8,8,0,0,1-1,2.51,6.57,6.57,0,0,1-1.14,1.45.58.58,0,0,1-.24-.05,4.76,4.76,0,0,0-.8-.62.44.44,0,0,1-.09-.29,6,6,0,0,0,1.18-1.67A10.34,10.34,0,0,0,70,14.6a18.6,18.6,0,0,0,.23-3.07v-4c0-.17.11-.26.35-.26h10c.22,0,.35.09.35.26v5.8a.32.32,0,0,1-.35.36H71.71A12.14,12.14,0,0,1,71.38,15.57ZM77.4.75c.13.12.2.2.2.29s-.16.25-.42.25l-.31,0a5.5,5.5,0,0,0,.89,1,6.23,6.23,0,0,0,1.55,1.13,7.71,7.71,0,0,0,2.54,1.13c.13,0,.19.07.19.12a.34.34,0,0,1-.11.24,10.79,10.79,0,0,0-.82.71c-.09.11-.15.16-.2.16A7.64,7.64,0,0,1,79,5a8.48,8.48,0,0,1-1.9-1.4,9.86,9.86,0,0,1-1.29-1.43,12,12,0,0,1-1.27,1.18,13.43,13.43,0,0,1-1.64,1.24,2.85,2.85,0,0,1-.32.21h5.94c.11,0,.17.08.17.24v.69c0,.18-.06.27-.17.27H72.4c-.13,0-.17-.09-.17-.27V5c-.41.27-.8.49-1.2.71a15.9,15.9,0,0,1-1.58.76.37.37,0,0,1-.33-.22,3.8,3.8,0,0,0-.65-.78c-.15-.09-.22-.16-.22-.22s0,0,.09-.09a16.5,16.5,0,0,0,2.26-.91,15.87,15.87,0,0,0,2.47-1.58,11.2,11.2,0,0,0,1.36-1.18A9.45,9.45,0,0,0,75.49.16.53.53,0,0,1,75.78,0Zm3.16,14.18c.22,0,.35.09.35.24v5c0,.17-.13.26-.35.26h-.87c-.22,0-.33-.09-.33-.26v-.6H73.27v.6c0,.17-.11.26-.33.26h-.89c-.23,0-.34-.09-.34-.26v-5c0-.15.11-.24.34-.24Zm-8.76-3.4c0,.31,0,.6,0,.86h7.58V11.11H71.8Zm0-1.56h7.56V8.57H71.8Zm7.56,8.25v-2H73.27v2ZM84.64,2.86c0,.21-.09.32-.22.32s-.22.2-.22.46V16q0,.27-.33.27H83q-.36,0-.36-.27V2.86c0-.17.12-.26.36-.26C84.09,2.6,84.64,2.69,84.64,2.86Zm4-2.55c.16.09.24.16.24.2s-.08.2-.24.2c-.31.13-.44.47-.44,1v17c0,1-.78,1.57-2.33,1.57H84.29c-.14,0-.18-.13-.18-.37a4.21,4.21,0,0,0-.42-1c0-.13,0-.17.18-.17a11.11,11.11,0,0,0,1.82.17c.62,0,1-.26,1-.77V1.64a4.54,4.54,0,0,0-.09-1,1.16,1.16,0,0,1-.08-.43c0-.08.13-.15.42-.15Z"/><path class="cls-1" d="M100.08.78a.58.58,0,0,1,.35.11,2.05,2.05,0,0,1,.43.58A11.48,11.48,0,0,1,99.7,3.53a9.85,9.85,0,0,1-1.35,1.56,8.25,8.25,0,0,1-1.76,1.15c-.28.16-.57.29-.84.42h3.62c.22,0,.35.09.35.27v4.78a.31.31,0,0,1-.35.35H94.86c-.09.62-.2,1.16-.29,1.65h5a.23.23,0,0,1,.26.26,30,30,0,0,1-.24,3.76,6.85,6.85,0,0,1-.64,2c-.27.49-1,.73-2.07.73s-1.71-.15-1.76-.44a3.37,3.37,0,0,0-.66-1.22v-.16a13.3,13.3,0,0,0,2.42.24,1,1,0,0,0,1-.44,3.29,3.29,0,0,0,.42-1.4,14.29,14.29,0,0,0,.2-2.07H94.24c-.11.36-.22.72-.31,1-.05.13-.09.18-.11.18a.83.83,0,0,1-.36,0,8.13,8.13,0,0,1-1-.22c-.13,0-.18-.07-.18-.15.25-.63.4-1.12.49-1.43a13.06,13.06,0,0,0,.49-1.86q.2-1.06.33-2.22c0-.14.05-.23.16-.23.86.38,1.31.58,1.31.6h3.22V8.06H94.08c-.18,0-.26-.11-.26-.35V7.38a16.62,16.62,0,0,1-2.25.51.4.4,0,0,1-.38-.18A6.68,6.68,0,0,1,90.73,7a.22.22,0,0,1-.11-.2s0-.06.13-.09a18.27,18.27,0,0,0,1.82-.35,10.08,10.08,0,0,0,2.53-.87A13.27,13.27,0,0,0,94,4.66c-.53-.35-.95-.59-1.29-.77A4.09,4.09,0,0,1,93.31,3a.21.21,0,0,1,.17-.14c.71.41,1.29.76,1.76,1.09s.75.65,1.07.91a8.08,8.08,0,0,0,1-.71,5.65,5.65,0,0,0,1.2-1.44,6,6,0,0,0,.4-.64H94c-.13,0-.17-.12-.17-.34V1c0-.17,0-.26.17-.26Zm8.42,12.15a.66.66,0,0,1,.36.11,2.14,2.14,0,0,1,.42.58,15.32,15.32,0,0,1-1,2.22,8.17,8.17,0,0,1-1.16,1.62,5.3,5.3,0,0,1-.51.54,9.72,9.72,0,0,0,1.12.44,17.16,17.16,0,0,0,2.7.71c.14,0,.21.06.21.11a.37.37,0,0,1-.12.24,7.12,7.12,0,0,0-.77.78c-.11.14-.2.2-.25.2a1.48,1.48,0,0,1-.35-.11c-.54-.16-1.12-.33-1.74-.53a19.4,19.4,0,0,1-2.06-.91,13.9,13.9,0,0,1-1.85.93,14.09,14.09,0,0,1-2.06.62.41.41,0,0,1-.38-.18,6.93,6.93,0,0,1-.47-.68c-.08-.09-.11-.14-.11-.18a.1.1,0,0,1,.11-.11l1.54-.38a12.14,12.14,0,0,0,2-.84,4,4,0,0,1-.54-.45,4.72,4.72,0,0,1-1.2-1.53,7.39,7.39,0,0,1-.93-1.91H101c-.14,0-.18-.11-.18-.34v-.71c0-.15,0-.24.18-.24Zm-1.13-6.27q.33,0,.33.27v3.25a.2.2,0,0,0,.13.22,1,1,0,0,0,.49.08h.18a.4.4,0,0,0,.4-.24A10.18,10.18,0,0,0,109.12,9s0-.09.16-.09.13.05.26.09a6.83,6.83,0,0,0,.74.26.35.35,0,0,1,.29.34,14.43,14.43,0,0,1-.54,1.91c-.15.31-.46.44-.93.44h-1.49a2.54,2.54,0,0,1-1.13-.17.42.42,0,0,1-.24-.43V8h-2.61v.4a7.22,7.22,0,0,1-.2,1.81,3.3,3.3,0,0,1-.66,1.29,4.79,4.79,0,0,1-.87.74.5.5,0,0,1-.4-.14c-.22-.24-.42-.48-.6-.71a.38.38,0,0,1-.13-.26A2.85,2.85,0,0,0,102,9.64a6.35,6.35,0,0,0,.16-1.4V6.93a.24.24,0,0,1,.26-.27ZM103,.42a14.59,14.59,0,0,0,1.42,1.91l.22-.15a6.35,6.35,0,0,0,.93-.71,5.17,5.17,0,0,0,.69-.87c.05,0,.07-.09.11-.09l1.16.85a.53.53,0,0,1,.22.37c0,.14-.09.18-.24.18a.49.49,0,0,0-.34.09,9.82,9.82,0,0,1-1.8,1.33,9.31,9.31,0,0,0,1.47,1.16,3.59,3.59,0,0,0,.33-.25,5.28,5.28,0,0,0,1-.8,6.59,6.59,0,0,0,.71-.91c0-.06.07-.11.11-.11l1.16.85a.43.43,0,0,1,.24.37c0,.14-.09.18-.26.18a.48.48,0,0,0-.36.11,14.14,14.14,0,0,1-1.6,1.29,13.42,13.42,0,0,0,1.33.6,15.81,15.81,0,0,0,2.27.78.23.23,0,0,1-.18.22,5.62,5.62,0,0,0-.62.75c0,.09-.16.14-.33.14a18,18,0,0,1-3-1.11,16.86,16.86,0,0,1-2.26-1.42,13.09,13.09,0,0,1-1.94-1.76A17.81,17.81,0,0,1,101.55.87c0-.09.4-.27,1.22-.54A.59.59,0,0,1,103,.42ZM103.37,15a6.43,6.43,0,0,0,1.11,1.49,4.33,4.33,0,0,0,.87.69c.26-.23.49-.45.71-.67a6.47,6.47,0,0,0,1-1.56c.11-.22.22-.46.35-.77H103A2.7,2.7,0,0,0,103.37,15Z"/><path class="cls-1" d="M117.08,7.71c0,1.69-.07,3.15-.18,4.35h4.6V9.71h-3c-.17,0-.24-.11-.24-.33V8.66c0-.22.07-.33.24-.33h3V6.6c0-.18.11-.27.35-.27,1.09,0,1.65.09,1.65.27s-.09.31-.22.31-.23.2-.23.47v1h4.35V6.6c0-.18.12-.27.34-.27,1.09,0,1.65.09,1.65.27s-.07.31-.21.31-.22.2-.22.47v1h3.38c.18,0,.26.11.26.33v.72c0,.22-.08.33-.26.33H129v2.35h4.42c.18,0,.27.12.27.33v.71c0,.23-.09.34-.27.34h-7.06a11.43,11.43,0,0,0,1,1.64,7.46,7.46,0,0,0,1.49,1.65s0,0,.07,0a29.91,29.91,0,0,0,2.33-1.93.8.8,0,0,1,.4-.18.58.58,0,0,1,.31.16c.82.62,1.24,1,1.24,1.13s-.08.27-.24.27l-.53-.09a.84.84,0,0,0-.49.2c-.56.38-1.18.82-1.87,1.33a2.94,2.94,0,0,0,.42.27,13.32,13.32,0,0,0,1.76.82l1.13.31c.11,0,.18,0,.18.11a.46.46,0,0,1-.2.33l-.64.78a.43.43,0,0,1-.38.2,11.91,11.91,0,0,1-2.73-1.27,11.4,11.4,0,0,1-1.74-1.28,9.66,9.66,0,0,1-1.55-1.78,17.41,17.41,0,0,1-1.47-2.71h-2.84V18c1.36-.23,2.64-.47,3.86-.74l.14,0a.17.17,0,0,1,.18.18,4.75,4.75,0,0,1-.09,1.22c-2.4.44-4.85.84-7.29,1.2-.22.4-.38.62-.51.62s-.45-.62-.89-1.82c.87-.09,1.89-.22,3.05-.4V13.44h-3.63c0,.22-.06.44-.09.62a16.41,16.41,0,0,1-1,3.91,10,10,0,0,1-1.13,2.24.72.72,0,0,1-.25,0,3.56,3.56,0,0,0-.8-.6.56.56,0,0,1-.09-.31,10.76,10.76,0,0,0,1.18-2.71,28.7,28.7,0,0,0,.76-3.8c.13-1.38.22-3,.22-5V1.11c0-.22.11-.33.35-.33H132.1c.22,0,.33.09.33.26V5.29c0,.24-.11.35-.33.35h-15Zm0-3.47h13.79V2.15H117.08Zm10.32,7.82V9.71h-4.35v2.35Z"/><path class="cls-1" d="M143.78.78c.29,0,.44.11.44.33V18a2,2,0,0,1-.79,1.65,5.86,5.86,0,0,1-2,.59.25.25,0,0,1-.28-.26,4,4,0,0,0-.49-1.38c0-.09,0-.13.15-.13.87,0,1.38-.09,1.56-.27a1.1,1.1,0,0,0,.29-.84V13.1H139a4.73,4.73,0,0,1-.07.52,21.16,21.16,0,0,1-.88,4.13,12.38,12.38,0,0,1-1,2.38.68.68,0,0,1-.25-.05,3.56,3.56,0,0,0-.8-.6.56.56,0,0,1-.09-.31,13,13,0,0,0,1-2.87,31.56,31.56,0,0,0,.65-4c.13-1.46.2-3.24.2-5.35V1.11c0-.22.11-.33.35-.33Zm-1.11,10.93V7.55h-3.4c0,1.6-.07,3-.16,4.16Zm0-5.56v-4h-3.4v4ZM154.11,10a.48.48,0,0,1,.35.14,2.79,2.79,0,0,1,.43.73,22.83,22.83,0,0,1-1.09,3,12.58,12.58,0,0,1-1.27,2.22,7.58,7.58,0,0,1-.62.74,7,7,0,0,0,1.71,1,13.26,13.26,0,0,0,3,1.07c.13,0,.2.09.2.13a.46.46,0,0,1-.11.25,7,7,0,0,0-.78.77c-.11.14-.2.2-.25.2a2,2,0,0,1-.37-.15c-.58-.2-1.22-.44-1.94-.73A15.48,15.48,0,0,1,151.07,18a1.59,1.59,0,0,1-.27-.21,12,12,0,0,1-2.36,1.47,12.82,12.82,0,0,1-2.3.85.47.47,0,0,1-.43-.2c-.17-.25-.33-.49-.51-.74a.28.28,0,0,1-.11-.2.12.12,0,0,1,.13-.13c.58-.15,1.16-.33,1.74-.53a9,9,0,0,0,2.66-1.49l0,0a4.79,4.79,0,0,1-.49-.54,6,6,0,0,1-1.33-2.13,12.13,12.13,0,0,1-1-2.78H146q-.27,0-.27-.33v-.69c0-.22.09-.36.27-.36Zm-1.38-9a.3.3,0,0,1,.34.34V6.38c0,.17,0,.28.17.33a1.11,1.11,0,0,0,.6.13h.36a.55.55,0,0,0,.58-.35,7,7,0,0,0,.35-1.69c0-.07.07-.11.2-.11a1.22,1.22,0,0,1,.29.09,7.19,7.19,0,0,0,.71.24.36.36,0,0,1,.29.36A13.06,13.06,0,0,1,156,7.84a1.11,1.11,0,0,1-1.15.58h-1.73a2.26,2.26,0,0,1-1.29-.29.66.66,0,0,1-.27-.62V2.33h-2.78V3.4a12.86,12.86,0,0,1-.26,2.67,4.36,4.36,0,0,1-1,1.86A7.7,7.7,0,0,1,146.31,9a.46.46,0,0,1-.4-.16q-.33-.39-.6-.75a.43.43,0,0,1-.13-.31,4.4,4.4,0,0,0,1.75-2.29,8.83,8.83,0,0,0,.25-2.18v-2a.3.3,0,0,1,.33-.34ZM148.8,12.82A8.1,8.1,0,0,0,150,15a6.66,6.66,0,0,0,.71.85,10.47,10.47,0,0,0,.71-.83,9.37,9.37,0,0,0,1.14-2.13,11.34,11.34,0,0,0,.55-1.51h-4.82A9,9,0,0,0,148.8,12.82Z"/><path class="cls-1" d="M165.81,1.73c0,.14-.06.2-.17.2-.27,0-.43.09-.51.22a28.45,28.45,0,0,1-1.74,4.07V20c0,.17-.13.26-.35.26h-.87c-.24,0-.35-.09-.35-.26V8.71q-.67.93-1.65,2.13a.6.6,0,0,1-.44-.2c-.22-.18-.47-.38-.69-.58a.27.27,0,0,1-.18-.26c.58-.71,1.18-1.45,1.78-2.25a19,19,0,0,0,2-3.46A20.43,20.43,0,0,0,163.82.78c0-.11.08-.18.17-.18A6.69,6.69,0,0,1,165.81,1.73Zm4.12,1.87c.13.13.22.22.22.29a.26.26,0,0,1-.18.26.33.33,0,0,0-.34.23,19.92,19.92,0,0,1-1.13,2.51,19.71,19.71,0,0,1-1.17,1.75A13.91,13.91,0,0,1,166,10a1.22,1.22,0,0,1-.5-.08,7.67,7.67,0,0,1-.84-.32c-.11,0-.16-.09-.16-.13a.17.17,0,0,1,.09-.13,9.42,9.42,0,0,0,2-2.22,8.54,8.54,0,0,0,.89-1.6,18.3,18.3,0,0,0,.8-2.31c0-.09.11-.16.17-.16Zm7.35,5.84c.15,0,.24.13.24.36,0,2.86-.13,4.91-.29,6.15a12.53,12.53,0,0,1-.75,3.35c-.31.78-1.11,1.18-2.42,1.18s-1.89-.15-1.94-.44a3.09,3.09,0,0,0-.75-1.22v-.16c1,.09,1.87.16,2.69.16a1.17,1.17,0,0,0,1.24-.8,9.45,9.45,0,0,0,.51-2.54c.14-.93.22-2.48.29-4.64h-4.49a20.24,20.24,0,0,1-.44,3.84,9.42,9.42,0,0,1-1.24,3,6.73,6.73,0,0,1-1.72,1.6,10.47,10.47,0,0,1-2.31,1.24c-.4-.42-.75-.8-1-1.13a9,9,0,0,0,1.73-.85,7.44,7.44,0,0,0,1.8-1.53,7.59,7.59,0,0,0,1.22-2.66,15.89,15.89,0,0,0,.43-3.47h-2.67c-.18,0-.24-.11-.24-.36V9.8c0-.23.06-.36.24-.36ZM175.79.87s.09.08.09.24A9.09,9.09,0,0,0,177,5.51a13.84,13.84,0,0,0,2.51,3.24.34.34,0,0,1-.18.34c-.53.48-.89.71-1,.71a15.72,15.72,0,0,1-2.93-4,11.26,11.26,0,0,1-.94-3.58H170c-.18,0-.24-.11-.24-.33V1.2c0-.22.06-.33.24-.33Z"/><path class="cls-1" d="M188.72,2.93a24,24,0,0,0,.87-2.42c.09-.18.19-.27.33-.27l1.73.65c.18.13.27.22.27.31a.33.33,0,0,1-.24.35A.66.66,0,0,0,191,2c-.15.35-.28.66-.42,1h10.67c.17,0,.26.14.26.36V4c0,.24-.09.35-.26.35H189.87a22.57,22.57,0,0,1-1.22,2.18c-.09.13-.15.24-.22.33h10.36c.26,0,.42.14.42.36V18.9c0,.49-.38.87-1.09,1.14a13.29,13.29,0,0,1-2.73.44q-.24,0-.27-.27a5.15,5.15,0,0,0-.51-1.39c0-.07.06-.09.24-.09a10.54,10.54,0,0,0,2.38-.16.57.57,0,0,0,.42-.53V16.48h-9.37v3.65c0,.17-.12.26-.34.26h-.88c-.23,0-.34-.09-.34-.26V9.19c-.13.19-.29.36-.42.54a21.94,21.94,0,0,1-2.71,2.42,1.15,1.15,0,0,1-.53-.09l-1-.38c-.11,0-.15-.08-.15-.15a.28.28,0,0,1,.17-.27,18.24,18.24,0,0,0,4-3.86,16.61,16.61,0,0,0,1.82-2.83,1.83,1.83,0,0,0,.13-.24h-6c-.17,0-.26-.11-.26-.35V3.29c0-.22.09-.36.26-.36Zm8.93,8V8.33h-9.37v2.6Zm0,4.15V12.31h-9.37v2.77Z"/><path class="cls-1" d="M206.31,20c0,.17-.11.26-.33.26h-.89c-.22,0-.33-.09-.33-.26V1.11q0-.24.33-.24H211a1.16,1.16,0,0,1,.55.11c.38.29.58.49.58.57l-2.95,6a.75.75,0,0,0-.09.34.45.45,0,0,0,.15.31A9.09,9.09,0,0,1,211,10.6a7.09,7.09,0,0,1,.69,2.93,5.49,5.49,0,0,1-.42,2.15A2.55,2.55,0,0,1,209.93,17a3.39,3.39,0,0,1-1.88.4c-.4,0-.58-.11-.58-.38a3.08,3.08,0,0,0-.38-1.18.24.24,0,0,1,.27-.26l1,.18a1.38,1.38,0,0,0,1.33-.72,2.58,2.58,0,0,0,.4-1.55,6.45,6.45,0,0,0-.55-2.34,10.85,10.85,0,0,0-2.14-2.79c-.13-.09-.17-.16-.17-.25a.81.81,0,0,1,.09-.35l3-5.65h-4Zm8.42-2.6c.94-.31,1.82-.64,2.67-1,0,0,.06-.05.11-.05s.17.09.17.27A5.4,5.4,0,0,1,217.6,18c-1.67.67-3.36,1.29-5,1.82-.24.4-.44.62-.59.62s-.43-.64-.87-1.91c.6-.13,1.29-.31,2.09-.55V1.2a.29.29,0,0,1,.33-.33h8.86c.23,0,.34.08.34.24V9.62c0,.24-.11.35-.34.35h-4a14,14,0,0,0,.35,1.74,14.15,14.15,0,0,0,.89,2.53s0,.09.05.09a9.53,9.53,0,0,0,1.38-1,10.79,10.79,0,0,0,2-2,.36.36,0,0,1,.24-.14,7.26,7.26,0,0,1,1.38,1.29c0,.12-.09.16-.27.16s-.49,0-.51.11a18,18,0,0,1-3.4,2.93,2.24,2.24,0,0,0,.24.31,5.84,5.84,0,0,0,1.52,1.54,8.49,8.49,0,0,0,2.19,1.22c.1,0,.14.09.14.15a.36.36,0,0,1-.11.25c-.27.24-.56.53-.85.84-.11.14-.2.22-.24.22A.71.71,0,0,1,223,20a11.66,11.66,0,0,1-1.4-.85A10.67,10.67,0,0,1,220,17.66a10.59,10.59,0,0,1-1.35-2,9.43,9.43,0,0,1-1-2.47,18.09,18.09,0,0,1-.73-3.2h-2.16Zm0-12.75h6.42V2.24h-6.42Zm0,3.88h6.42V6.07h-6.42Z"/><path class="cls-1" d="M234.44,2c.15.14.25.23.25.29a.35.35,0,0,1-.28.36.47.47,0,0,0-.5.31,24.37,24.37,0,0,1-1.65,3.55A24.23,24.23,0,0,1,230.55,9a17.11,17.11,0,0,1-1.93,1.89,1,1,0,0,1-.51-.09c-.32-.13-.6-.24-.91-.38-.12,0-.16-.08-.16-.13a.23.23,0,0,1,.13-.22,13.6,13.6,0,0,0,2.91-3,11.72,11.72,0,0,0,1.31-2.2,18.7,18.7,0,0,0,1.2-3.2c.09-.14.18-.2.27-.2Zm2.13,4.71c1.16.58,1.75.94,1.75,1s-.08.18-.26.18a.73.73,0,0,0-.67.39c-1.11,2.09-2.69,5-4.71,8.8,2.67-.22,5.91-.6,9.73-1.09-.71-1.17-1.38-2.22-2-3.15,0-.18.38-.42,1.14-.78a.2.2,0,0,1,.15.09A56.12,56.12,0,0,1,246,18.82c0,.22-.07.35-.16.37a2.84,2.84,0,0,1-1.33.58c-.47-.93-.91-1.75-1.36-2.55q-10,1.56-13,1.88a.43.43,0,0,0-.44.34c-.07.22-.18.33-.34.33s-.48-.82-.77-2.42c.71,0,1.53-.07,2.42-.13q2.57-4.8,3.26-6.27a35.33,35.33,0,0,0,1.58-4.09.36.36,0,0,1,.36-.26A1,1,0,0,1,236.57,6.66ZM241.46.78c.09,0,.18.11.27.29a19,19,0,0,0,1.64,5.13,5.93,5.93,0,0,0,3.28,3.24.34.34,0,0,1,.27.36c0,.09-.07.15-.15.24a9.17,9.17,0,0,0-.76.73.45.45,0,0,1-.4.25,9.27,9.27,0,0,1-3.51-3.69,25.79,25.79,0,0,1-1.71-5.18h-3.53q-.27,0-.27-.33V1.11q0-.33.27-.33Z"/><path class="cls-1" d="M267.83,1c.26,0,.42.12.42.34V18c0,.68-.42,1.21-1.27,1.62a13.41,13.41,0,0,1-3.15.59.26.26,0,0,1-.29-.26,4,4,0,0,0-.49-1.38c0-.09.09-.13.27-.13a8,8,0,0,0,2.84-.27.82.82,0,0,0,.54-.82v-15h-16c-.17,0-.26-.11-.26-.33V1.29c0-.22.09-.34.26-.34ZM263.05,5.2c.16,0,.25.13.25.35v.69c0,.25-.09.36-.25.36H251.59c-.18,0-.27-.11-.27-.36V5.55c0-.22.09-.35.27-.35Zm-1,3.91c.22,0,.35.08.35.27v7.1c0,.18-.13.27-.35.27h-.87c-.25,0-.35-.09-.35-.27v-.86h-6.6V18c0,.18-.11.26-.34.26H253c-.25,0-.36-.08-.36-.26V9.44c0-.22.11-.33.36-.33Zm-1.22,5.11V10.48h-6.6v3.74Z"/></g></g></svg>