<?xml version="1.0" encoding="UTF-8"?> <svg xmlns="http://www.w3.org/2000/svg" xmlns:xlink="http://www.w3.org/1999/xlink" width="167px" height="67px" viewBox="0 0 167 67"><!-- Generator: Sketch 55.1 (78136) - https://sketchapp.com --><title>logo_ch_grey</title><desc>Created with Sketch.</desc><g id="Page-1" stroke="none" stroke-width="1" fill="none" fill-rule="evenodd"><g id="HOME" transform="translate(-27.000000, -30.000000)" fill="#4C4C4C" fill-rule="nonzero"><g id="logo_ch_grey" transform="translate(27.000000, 30.000000)"><polygon id="Rectangle-path" points="101.6 43 166.8 43 166.8 44.2 101.6 44.2"></polygon><polygon id="Rectangle-path" points="27.7 43 92.9 43 92.9 44.2 27.7 44.2"></polygon><polygon id="Rectangle-path" points="22.7 48 23.8 48 23.8 66.9 22.7 66.9"></polygon><polygon id="Rectangle-path" points="22.7 0 23.8 0 23.8 39.3 22.7 39.3"></polygon><polygon id="Rectangle-path" points="0 43 18.9 43 18.9 44.2 0 44.2"></polygon><path d="M28,56.7 C28,56.8 28,56.8 28,56.7 C28,56.9 28,56.9 28,57 L28,58.6 L27.7,58.6 L27.7,56.3 L28,56.3 L29.1,57.8 L30.1,56.3 L30.4,56.3 L30.4,58.6 L30.1,58.6 L30.1,57 C30.1,57 30.1,56.9 30.1,56.8 C30.1,56.7 30.1,56.7 30.1,56.6 C30.1,56.7 30,56.7 30,56.8 C30,56.8 30,56.9 29.9,56.9 L29,58.2 L29,58.2 L28.1,57 L28.1,57 C28,56.9 28,56.8 28,56.7" id="Shape"></path><path d="M32,56.3 L32,58.3 L33.7,58.3 L33.7,56.3 L34,56.3 L34,58.1 C34,58.3 34,58.5 33.9,58.5 C33.8,58.6 33.7,58.6 33.5,58.6 L32.2,58.6 C32,58.6 31.8,58.6 31.8,58.5 C31.7,58.4 31.7,58.3 31.7,58.1 L31.7,56.3 L32,56.3 Z" id="Shape"></path><path d="M37.1,56.6 L35.5,56.6 L35.5,57.3 L37,57.3 C37.2,57.3 37.3,57.4 37.4,57.4 C37.5,57.5 37.5,57.6 37.5,57.8 L37.5,58.1 C37.5,58.3 37.5,58.5 37.4,58.5 C37.3,58.6 37.2,58.6 37,58.6 L35.7,58.6 C35.5,58.6 35.3,58.6 35.3,58.5 C35.2,58.4 35.2,58.3 35.2,58.1 L35.2,58 L35.6,57.9 L35.6,58.3 L37.3,58.3 L37.3,57.6 L35.9,57.6 C35.7,57.6 35.6,57.6 35.5,57.5 C35.4,57.4 35.4,57.3 35.4,57.1 L35.4,56.9 C35.4,56.7 35.4,56.6 35.5,56.5 C35.6,56.4 35.7,56.4 35.9,56.4 L37.1,56.4 C37.3,56.4 37.4,56.4 37.5,56.5 C37.6,56.6 37.6,56.7 37.6,56.9 L37.6,56.9 L37.3,57 L37.3,56.6 L37.1,56.6 Z" id="Shape"></path><polygon id="Shape" points="38.6 58.6 38.6 56.3 40.8 56.3 40.8 56.6 39 56.6 39 57.3 40.1 57.3 40.1 57.6 39 57.6 39 58.3 40.8 58.3 40.8 58.6"></polygon><path d="M42.1,56.3 L42.1,58.3 L43.7,58.3 L43.7,56.3 L44.1,56.3 L44.1,58.1 C44.1,58.3 44.1,58.5 44,58.5 C43.9,58.6 43.8,58.6 43.6,58.6 L42.3,58.6 C42.1,58.6 42,58.6 41.9,58.5 C41.8,58.4 41.8,58.3 41.8,58.1 L41.8,56.3 L42.1,56.3 Z" id="Shape"></path><path d="M45.6,56.7 C45.6,56.8 45.6,56.8 45.6,56.7 C45.6,56.9 45.6,56.9 45.6,57 L45.6,58.6 L45.3,58.6 L45.3,56.3 L45.6,56.3 L46.7,57.8 L47.7,56.3 L48.1,56.3 L48.1,58.6 L47.7,58.6 L47.7,57 C47.7,57 47.7,56.9 47.7,56.8 C47.7,56.7 47.7,56.7 47.7,56.6 C47.7,56.7 47.6,56.7 47.6,56.8 C47.6,56.8 47.6,56.9 47.5,56.9 L46.6,58.2 L46.5,58.2 L45.8,57 L45.8,57 C45.7,56.9 45.7,56.8 45.6,56.7" id="Shape"></path><path d="M50.9,56.8 C50.9,56.6 50.9,56.5 51,56.4 C51.1,56.3 51.2,56.3 51.4,56.3 L53,56.3 C53.2,56.3 53.3,56.3 53.4,56.4 C53.5,56.5 53.5,56.6 53.5,56.8 L53.5,58 C53.5,58.2 53.5,58.4 53.4,58.4 C53.3,58.5 53.2,58.5 53,58.5 L51.4,58.5 C51.2,58.5 51.1,58.5 51,58.4 C50.9,58.3 50.9,58.2 50.9,58 L50.9,56.8 Z M51.3,58.3 L53.2,58.3 L53.2,56.6 L51.3,56.6 L51.3,58.3 Z" id="Shape"></path><polygon id="Shape" points="54.7 58.6 54.7 56.3 56.8 56.3 56.8 56.6 55 56.6 55 57.4 56.1 57.4 56.1 57.7 55 57.7 55 58.6"></polygon><path d="M59.1,58.6 L59.1,56.3 L59.3,56.3 L61,57.8 L61.1,57.9 C61.1,58 61.2,58 61.3,58.1 C61.3,58 61.3,57.9 61.2,57.9 C61.2,57.8 61.2,57.7 61.2,57.6 L61.2,56.3 L61.6,56.3 L61.6,58.6 L61.4,58.6 L59.7,57 L59.7,57 C59.6,56.9 59.6,56.8 59.5,56.8 C59.5,56.9 59.5,56.9 59.5,57 C59.5,57.1 59.5,57.2 59.5,57.3 L59.5,58.7 L59.1,58.7 L59.1,58.6 Z" id="Shape"></path><path d="M62.3,58.6 L63.6,56.3 L64,56.3 L65.3,58.6 L64.9,58.6 L64.5,58 L63,58 L62.7,58.6 L62.3,58.6 Z M63.2,57.8 L64.4,57.8 L63.8,56.6 L63.2,57.8 Z" id="Shape"></path><polygon id="Shape" points="66.5 56.6 66.5 58.6 66.2 58.6 66.2 56.6 65.1 56.6 65.1 56.3 67.6 56.3 67.6 56.6"></polygon><polygon id="Rectangle-path" points="68.2 56.3 68.6 56.3 68.6 58.6 68.2 58.6"></polygon><path d="M69.7,56.8 C69.7,56.6 69.7,56.5 69.8,56.4 C69.9,56.3 70,56.3 70.2,56.3 L71.7,56.3 C71.9,56.3 72.1,56.3 72.1,56.4 C72.2,56.5 72.2,56.6 72.2,56.8 L72.2,58 C72.2,58.2 72.1,58.4 72.1,58.4 C72,58.5 71.9,58.5 71.7,58.5 L70.2,58.5 C70,58.5 69.8,58.5 69.8,58.4 C69.7,58.3 69.7,58.2 69.7,58 L69.7,56.8 Z M70.1,58.3 L72,58.3 L72,56.6 L70.1,56.6 L70.1,58.3 Z" id="Shape"></path><path d="M73.5,58.6 L73.5,56.3 L73.7,56.3 L75.4,57.8 C75.5,57.8 75.5,57.9 75.5,57.9 C75.5,58 75.6,58 75.6,58.1 C75.6,58 75.6,57.9 75.6,57.9 C75.6,57.8 75.6,57.7 75.6,57.6 L75.6,56.3 L76,56.3 L76,58.6 L75.8,58.6 L74.1,57 L74.1,57 C74,56.9 74,56.8 73.9,56.8 C73.9,56.9 73.9,56.9 73.9,57 C73.9,57.1 73.9,57.2 73.9,57.3 L73.9,58.7 L73.5,58.7 L73.5,58.6 L73.5,58.6 Z" id="Shape"></path><path d="M76.8,58.6 L78,56.3 L78.4,56.3 L79.7,58.6 L79.3,58.6 L78.9,58 L77.4,58 L77.1,58.6 L76.8,58.6 Z M77.6,57.8 L78.8,57.8 L78.2,56.6 L77.6,57.8 Z" id="Shape"></path><polygon id="Shape" points="80.4 58.6 80.4 56.3 80.8 56.3 80.8 58.3 82.5 58.3 82.5 58.6"></polygon><polygon id="Shape" points="85.8 56.6 85.8 58.6 85.4 58.6 85.4 56.6 84.4 56.6 84.4 56.3 86.8 56.3 86.8 56.6"></polygon><path d="M86.7,58.6 L88,56.3 L88.4,56.3 L89.6,58.6 L89.2,58.6 L88.9,58 L87.4,58 L87.1,58.6 L86.7,58.6 Z M87.5,57.8 L88.7,57.8 L88.1,56.6 L87.5,57.8 Z" id="Shape"></path><polygon id="Rectangle-path" points="90.3 56.3 90.7 56.3 90.7 58.6 90.3 58.6"></polygon><path d="M91.9,58.6 L91.9,56.3 L93.7,56.3 C93.9,56.3 94,56.3 94.1,56.4 C94.2,56.5 94.2,56.6 94.2,56.7 L94.2,57.2 C94.2,57.4 94.2,57.5 94.1,57.6 C94,57.7 93.9,57.7 93.7,57.7 L92.2,57.7 L92.2,58.6 L91.9,58.6 Z M93.6,56.6 L92.3,56.6 L92.3,57.4 L93.6,57.4 C93.7,57.4 93.8,57.4 93.8,57.3 C93.8,57.3 93.8,57.2 93.8,57.1 L93.8,56.8 C93.8,56.7 93.8,56.7 93.8,56.6 C93.8,56.7 93.6,56.6 93.6,56.6 L93.6,56.6 Z" id="Shape"></path><polygon id="Shape" points="95.1 58.6 95.1 56.3 97.3 56.3 97.3 56.6 95.5 56.6 95.5 57.3 96.6 57.3 96.6 57.6 95.5 57.6 95.5 58.3 97.3 58.3 97.3 58.6"></polygon><polygon id="Rectangle-path" points="98.2 56.3 98.6 56.3 98.6 58.6 98.2 58.6"></polygon><path d="M101.8,56.3 L101.8,58.3 L103.5,58.3 L103.5,56.3 L103.9,56.3 L103.9,58.1 C103.9,58.3 103.9,58.5 103.8,58.5 C103.7,58.6 103.6,58.6 103.4,58.6 L102,58.6 C101.8,58.6 101.7,58.6 101.6,58.5 C101.5,58.4 101.5,58.3 101.5,58.1 L101.5,56.3 L101.8,56.3 Z" id="Shape"></path><path d="M105,58.6 L105,56.3 L105.2,56.3 L106.9,57.8 L107,57.9 C107,58 107.1,58 107.1,58.1 C107.1,58 107.1,57.9 107.1,57.9 C107.1,57.8 107.1,57.7 107.1,57.6 L107.1,56.3 L107.5,56.3 L107.5,58.6 L107.3,58.6 L105.6,57 L105.6,57 C105.5,56.9 105.4,56.8 105.4,56.8 C105.4,56.9 105.4,56.9 105.4,57 C105.4,57.1 105.4,57.2 105.4,57.3 L105.4,58.7 L105,58.7 L105,58.6 Z" id="Shape"></path><polygon id="Rectangle-path" points="108.7 56.3 109.1 56.3 109.1 58.6 108.7 58.6"></polygon><polygon id="Shape" points="111 58.6 109.8 56.3 110.2 56.3 111.2 58.2 112.2 56.3 112.5 56.3 111.3 58.6"></polygon><polygon id="Shape" points="113.3 58.6 113.3 56.3 115.4 56.3 115.4 56.6 113.6 56.6 113.6 57.3 114.7 57.3 114.7 57.6 113.6 57.6 113.6 58.3 115.5 58.3 115.5 58.6"></polygon><path d="M116.4,58.6 L116.4,56.3 L118.2,56.3 C118.4,56.3 118.5,56.3 118.6,56.4 C118.7,56.5 118.7,56.6 118.7,56.7 L118.7,57.2 C118.7,57.4 118.7,57.5 118.6,57.6 C118.5,57.7 118.4,57.7 118.2,57.7 L117.9,57.7 L118.9,58.6 L118.3,58.6 L117.4,57.7 L116.7,57.7 L116.7,58.6 L116.4,58.6 Z M118,56.6 L116.7,56.6 L116.7,57.4 L118,57.4 C118.1,57.4 118.2,57.4 118.2,57.4 C118.2,57.4 118.2,57.3 118.2,57.2 L118.2,56.9 C118.2,56.8 118.2,56.7 118.2,56.7 C118.2,56.6 118.1,56.6 118,56.6 L118,56.6 Z" id="Shape"></path><path d="M121.6,56.6 L120,56.6 L120,57.3 L121.4,57.3 C121.6,57.3 121.7,57.4 121.8,57.4 C121.9,57.5 121.9,57.6 121.9,57.8 L121.9,58.1 C121.9,58.3 121.9,58.5 121.8,58.5 C121.7,58.6 121.6,58.6 121.4,58.6 L120.1,58.6 C119.9,58.6 119.8,58.6 119.7,58.5 C119.6,58.4 119.6,58.3 119.6,58.1 L119.6,58 L119.9,57.9 L119.9,58.3 L121.6,58.3 L121.6,57.6 L120.2,57.6 C120,57.6 119.8,57.6 119.8,57.5 C119.7,57.4 119.7,57.3 119.7,57.1 L119.7,56.9 C119.7,56.7 119.7,56.6 119.8,56.5 C119.9,56.4 120,56.4 120.2,56.4 L121.4,56.4 C121.6,56.4 121.7,56.4 121.8,56.5 C121.9,56.6 121.9,56.7 121.9,56.9 L121.9,56.9 L121.6,57 C121.6,57 121.6,56.6 121.6,56.6 Z" id="Shape"></path><polygon id="Rectangle-path" points="123.1 56.3 123.5 56.3 123.5 58.6 123.1 58.6"></polygon><polygon id="Shape" points="125.6 56.6 125.6 58.6 125.2 58.6 125.2 56.6 124.2 56.6 124.2 56.3 126.6 56.3 126.6 56.6"></polygon><polygon id="Shape" points="128 58.6 128 57.6 126.8 56.3 127.3 56.3 128.2 57.3 129 56.3 129.5 56.3 128.3 57.6 128.3 58.6"></polygon><path d="M131.8,56.8 C131.8,56.6 131.9,56.5 131.9,56.4 C132,56.3 132.1,56.3 132.3,56.3 L133.9,56.3 C134.1,56.3 134.2,56.3 134.3,56.4 C134.4,56.5 134.4,56.6 134.4,56.8 L134.4,58 C134.4,58.2 134.4,58.4 134.3,58.4 C134.2,58.5 134.1,58.5 133.9,58.5 L132.3,58.5 C132.1,58.5 132,58.5 131.9,58.4 C131.8,58.3 131.8,58.2 131.8,58 L131.8,56.8 Z M132.2,58.3 L134.1,58.3 L134.1,56.6 L132.2,56.6 L132.2,58.3 Z" id="Shape"></path><polygon id="Shape" points="135.6 58.6 135.6 56.3 137.7 56.3 137.7 56.6 136 56.6 136 57.4 137 57.4 137 57.7 136 57.7 136 58.6"></polygon><polygon id="Shape" points="140 58.6 140 56.3 142.2 56.3 142.2 56.6 140.4 56.6 140.4 57.3 141.5 57.3 141.5 57.6 140.4 57.6 140.4 58.3 142.2 58.3 142.2 58.6"></polygon><path d="M144.4,56.3 C144.6,56.3 144.8,56.3 144.9,56.3 C145,56.3 145.2,56.4 145.3,56.4 C145.4,56.5 145.6,56.6 145.6,56.8 C145.7,57 145.7,57.2 145.7,57.4 C145.7,57.6 145.6,57.8 145.6,58 C145.5,58.2 145.4,58.3 145.2,58.4 C145.1,58.5 145,58.5 144.9,58.5 C144.8,58.5 144.6,58.6 144.4,58.6 L143.2,58.6 L143.2,56.3 C143.2,56.3 144.4,56.3 144.4,56.3 Z M144.3,56.6 L143.5,56.6 L143.5,58.3 L144.3,58.3 C144.7,58.3 144.9,58.2 145.1,58.1 C145.3,58 145.3,57.7 145.3,57.4 C145.3,57.1 145.2,56.9 145.1,56.8 C144.9,56.7 144.7,56.6 144.3,56.6 L144.3,56.6 Z" id="Shape"></path><path d="M147.1,56.3 L147.1,58.3 L148.7,58.3 L148.7,56.3 L149.1,56.3 L149.1,58.1 C149.1,58.3 149.1,58.5 149,58.5 C148.9,58.6 148.8,58.6 148.6,58.6 L147.2,58.6 C147,58.6 146.9,58.6 146.8,58.5 C146.7,58.4 146.7,58.3 146.7,58.1 L146.7,56.3 L147.1,56.3 Z" id="Shape"></path><path d="M152.2,56.6 L150.6,56.6 L150.6,58.3 L152.2,58.3 L152.2,57.7 L152.6,57.8 L152.6,58.1 C152.6,58.3 152.6,58.5 152.5,58.5 C152.4,58.6 152.3,58.6 152.1,58.6 L150.8,58.6 C150.6,58.6 150.5,58.6 150.4,58.5 C150.3,58.4 150.3,58.3 150.3,58.1 L150.3,56.9 C150.3,56.7 150.3,56.6 150.4,56.5 C150.5,56.4 150.6,56.4 150.8,56.4 L152.1,56.4 C152.3,56.4 152.4,56.4 152.5,56.5 C152.6,56.6 152.6,56.7 152.6,56.9 L152.6,57.1 L152.2,57.2 L152.2,56.6 Z" id="Shape"></path><path d="M153.1,58.6 L154.4,56.3 L154.8,56.3 L156.1,58.6 L155.7,58.6 L155.4,58 L153.9,58 L153.6,58.6 L153.1,58.6 Z M153.9,57.8 L155.1,57.8 L154.5,56.6 L153.9,57.8 Z" id="Shape"></path><polygon id="Shape" points="157.3 56.6 157.3 58.6 156.9 58.6 156.9 56.6 155.9 56.6 155.9 56.3 158.3 56.3 158.3 56.6"></polygon><polygon id="Rectangle-path" points="159 56.3 159.4 56.3 159.4 58.6 159 58.6"></polygon><path d="M160.5,56.8 C160.5,56.6 160.5,56.5 160.6,56.4 C160.7,56.3 160.8,56.3 161,56.3 L162.6,56.3 C162.8,56.3 162.9,56.3 163,56.4 C163.1,56.5 163.1,56.6 163.1,56.8 L163.1,58 C163.1,58.2 163.1,58.4 163,58.4 C162.9,58.5 162.8,58.5 162.6,58.5 L161,58.5 C160.8,58.5 160.6,58.5 160.6,58.4 C160.5,58.3 160.5,58.2 160.5,58 L160.5,56.8 Z M160.9,58.3 L162.8,58.3 L162.8,56.6 L160.9,56.6 L160.9,58.3 Z" id="Shape"></path><path d="M164.3,58.6 L164.3,56.3 L164.6,56.3 L166.3,57.8 L166.4,57.9 C166.4,58 166.5,58 166.5,58.1 C166.5,58 166.5,57.9 166.5,57.9 C166.5,57.8 166.5,57.7 166.5,57.6 L166.5,56.3 L166.8,56.3 L166.8,58.6 L166.6,58.6 L164.9,57 L164.9,57 C164.8,56.9 164.7,56.8 164.7,56.8 C164.7,56.9 164.7,56.9 164.7,57 C164.7,57.1 164.7,57.2 164.7,57.3 L164.7,58.7 L164.3,58.7 L164.3,58.6 L164.3,58.6 Z" id="Shape"></path><g id="Group" transform="translate(27.000000, 11.000000)"><path d="M12.9,0.4 C14.5,1.5 15.7,3.2 16.5,5.1 C16.9,7.2 15.5,8 16.1,9.9 C17.7,10.3 19.1,9.7 19.9,9 C20.9,10 21.2,11.8 20.7,13.5 C19.7,14.6 17.4,14.3 15.7,14.6 C16.1,16.4 15.7,19 16.8,20.1 C18.2,21 20.4,21.7 22.6,21.3 C23.3,20.7 23.9,19.5 24.7,19.3 C24.8,20.1 24.9,20.9 24.9,21.7 C24.5,22.1 24.3,22.3 23.6,22 C24,23.9 23.3,26.3 21.9,27.1 L20.4,27.1 C18.7,25.7 14.8,26.4 14.1,23.9 C14.2,22 14.1,20.2 14,18.4 C13.9,18 14.3,18.2 14.6,18.2 C14.5,17.6 14.7,17.2 14.7,16.7 C14.7,16.1 14.1,16 13.9,15.5 C13.8,10.7 15.7,5.2 12.6,2.7 C12.5,1.5 12.5,1.1 12.9,0.4" id="Shape"></path><path d="M74.5,5 C75.5,5.5 77.2,5.1 78.3,5.1 C78.9,6.6 78.3,8.5 77.2,9 C74.8,9.5 72.8,7.9 70.8,9.1 L70.8,10.2 C72.2,11.1 74.8,11.1 76.8,11 C77.3,11.7 77.1,13.2 76.9,14.1 C75.1,14.4 73,14.4 71.2,14.1 C71,14.4 71.1,15 71.1,15.4 C72,16.1 74.7,15.9 75.8,15.5 C76.7,16.3 77.4,18.3 76.6,19.6 C75,19.7 73.6,19 72,19.4 C71.8,19.8 71.9,20.8 72,21.3 C74.8,21.1 78.2,21.2 80.7,21.1 C81,26.4 75.2,24 71.5,24.3 C69.9,26.3 69.2,29.2 66,29.7 C66.2,27.3 68.6,27.1 68.5,24.4 C66.7,23.8 65,25 64,25.4 C62.6,25.2 62.7,22.5 63.2,21.4 C65.3,21.3 67.6,21.4 69.1,20.7 L69.1,19.8 C68.5,19.1 67,19.4 66,19.4 C65.3,19.5 65.2,20.7 64.2,20.2 C63.7,19.2 63.5,17.4 64.1,16.4 C65.2,15.3 68.5,16.4 69.8,15.4 L69.8,14.7 C68.2,14 65.4,14.3 63.5,14.6 C63.4,14.4 63.2,14.2 63.1,14.1 C62.7,11.2 65.1,10.2 68.5,10.7 C69.6,7.7 64.9,8.7 63.8,9.4 C63.4,9.2 63.2,8.9 62.8,8.6 C63,7.7 62.9,6.6 62.9,5.6 C63.5,5.2 64.4,5.2 65.2,5.1 C65,4.4 64.3,3.1 65.1,2.5 C65.5,2.5 65.6,2.7 66.1,2.6 C66.6,3.2 66.7,4.1 67,5 C68.8,5.1 70.9,5.2 72.7,5 C72.7,3.7 72.7,1.9 72.7,0.9 C74.6,0.5 75,3.1 74.5,5" id="Shape"></path><path d="M35.4,3.1 C36.2,3.7 37.1,4.2 37.6,5.2 C38,6.8 36.7,6.6 36.8,7.9 C37.6,8.4 40.1,8.1 40.6,7.9 C40.4,11.2 40.6,14.9 39,16.8 C38,17.4 35.9,17.1 34.6,17 C34.2,17.3 34.1,17.7 34.2,18.4 C35.3,19.1 37.6,18.5 38.8,19.1 C39,19.5 39.1,19.9 39.3,20.3 C39,22.5 39,24.8 37.5,25.8 C36.9,26 36.2,26.1 35.7,25.8 C35.1,26.3 34.2,26.5 33.3,26.1 C32.1,21.9 33.4,17 33,12.4 C32.9,11.8 32.3,11.6 32.1,11 L32.1,9.7 C33.6,7.8 35.4,6.3 35.4,3.1 L35.4,3.1 Z M35,11.4 C34.5,11.9 34.5,12.9 34.9,13.5 C36.1,14 37.6,14.1 39.2,13.9 C39.8,13.5 39.9,12.5 39.9,11.4 L35,11.4 Z M33.8,22.5 L33.8,23.8 C35.3,23.3 36.8,24.1 38,23.3 C38,22.7 37.9,22.1 37.8,21.7 C36.4,20.8 34.8,22 33.8,22.5 L33.8,22.5 Z" id="Shape"></path><path d="M95.6,3.3 C97,3.3 97.7,4.1 97.8,5.4 C99,5.4 99.4,4.6 99.7,3.6 C100.7,4.3 101.8,5.5 101.2,7 C99.7,6.9 98.1,7.5 98.2,9.4 C99.5,9.7 101.1,9.3 101.8,10.4 C102.7,13.5 99.9,13.2 98.3,14 C98.3,14.9 98.6,15.7 98.5,16.8 C97.3,18.7 99.1,24.3 97.1,25.1 C97.1,23.4 97.2,21.6 97.1,19.7 C97,17.7 97.4,15.4 96.8,13.7 C95.7,13.6 95.6,14.5 94.5,14.4 C93.3,13.7 93.2,11 93.9,9.9 C94.9,9.9 96,10 96.8,9.7 C97.2,6.8 96,5.4 95.6,3.3" id="Shape"></path><path d="M127,7.9 C127.4,9.7 126.9,11.2 125.7,11.6 C124.3,11.1 123.8,9.6 122.5,9 C121.7,10 120.8,10.9 120.2,12.1 C121.8,12.7 124.2,12 125.7,12.5 C126,12.9 126.3,13.3 126.1,14.1 C125.6,14.9 124.5,15.2 123.3,15.3 C123.2,15.6 123.2,16 123.2,16.4 C124.8,16.2 127.1,17 125.9,18.8 C125.3,19 124.5,18.7 123.8,18.9 C123.6,19.2 123.7,19.7 123.7,20.2 C124.4,20.2 125,20.3 125.6,20.3 C127,21.7 125.8,24.4 125.6,26.2 C124.4,26.7 123,27.5 121.3,27.3 C120.5,25.5 120,22.9 120.1,20.5 C120.9,20.5 121.4,20.2 122.3,20.3 C122.6,19.9 122.3,19.2 122.1,19 C120.8,18.8 120.1,19.7 119.1,19.1 C119.1,18.3 119.1,17.5 119.3,16.9 C120.4,16.9 121.3,16.9 122,16.6 L122,15.3 C120,15.6 119.1,14.8 119.4,12.9 C118.2,13.4 118.2,15.1 116.4,15 C116.8,13.9 117.4,13 118,12.2 C119,8.7 121.2,6.5 122.4,3.2 C122.7,3.2 122.8,3.2 123,3.3 C124.5,4.9 125,7.1 127,7.9 M121.1,23.7 C120.6,25.9 122.9,25.9 124.6,25.6 C124.7,24.8 125.1,23.9 124.7,23.2 C123.5,23 121.6,22.9 121.1,23.7" id="Shape"></path><path d="M130.9,4.3 C132.8,5 134.1,6.3 134.7,8.2 C136,8.8 138.6,8.3 139.7,9.1 C139.9,10.4 139.8,11.4 139.8,13 C138.9,13.8 138.8,15.4 137.6,16 C136.5,14.5 138.9,13.5 138.2,11.6 C136.3,11.4 134.5,11.6 132.4,11.5 C131.4,11.9 130.8,12.7 130,13.3 C129.3,14.8 129.3,17.8 127.8,18.1 C127.3,17.8 127.9,17.3 128,16.9 C128.4,14.1 127.7,11.3 127.9,8.8 C129.2,8.2 131.4,9 132.5,8.4 C132.4,8.1 132.7,8.1 132.6,7.7 C132.1,6.5 130.5,6.4 130.9,4.3" id="Shape"></path><path d="M8.2,5.2 C9.5,5.8 8.9,8.3 9.3,9.8 C9.5,10.1 10.1,9.8 10.5,9.9 C10.1,11 9.4,11.8 8.8,12.7 C8.8,14.8 9,16.8 8.9,19 C9.6,19.5 11,19.1 11.9,19 C11,21.5 9.2,23.1 7.1,24.4 C5.4,24.7 4.1,25.2 2.7,25.8 C0.5,25.8 0.4,22.1 0.9,20.4 C3,20.2 5.5,20.3 6.9,19.5 C6.9,18.3 6.8,17 7,16 C5.6,15 3.2,15.9 1.3,15.8 C0.6,14.5 0.7,12.3 0.8,10.3 C1.2,10.3 1.2,9.9 1.6,9.7 C3.4,10.1 6.3,10.3 7.6,9.3 C7.6,8 6.5,7.7 6.4,6.6 C6.9,6 7.3,5.4 8.2,5.2" id="Shape"></path><path d="M93.1,9.2 C92.5,10 91.2,10.3 90,10.1 C89.3,8.7 89.2,5.3 91.3,5.8 C92,6.9 93.2,7.5 93.1,9.2" id="Shape"></path><path d="M108.8,10.8 C109.9,10.7 110.7,10.9 111.8,10.9 C112.1,12.6 111.3,13.3 110.9,14.3 C109.4,14.9 108,14.4 106.2,14.4 C105.9,16.7 108.4,17 108.7,19 C108.6,19.8 108.2,20.4 107.4,20.5 C107.2,22.8 106.2,24.2 105.1,25.6 C103.8,25.7 103.3,27.3 102.2,27.3 C101.4,26.5 103,25.8 103.4,25.1 C103.9,23.8 104.7,22.7 105.2,21.3 C105.3,19.7 105,18.4 105.1,16.8 C104.6,15.7 104.2,14.3 103.5,13.4 C103.4,12.5 103.6,11.7 103.8,11.1 C104.2,11 104.7,10.8 105.3,10.9 C106.2,8.9 104,7.8 103.9,6.5 C107.2,5.7 108.2,8.4 108.8,10.8" id="Shape"></path><path d="M42.1,7.1 C42.6,7.1 42.7,7.6 42.9,7.9 C46.8,8.2 51.2,8 54.6,8.8 C55,9.9 54.4,10.9 53.8,11.7 C51.8,12.7 49.3,11.7 47,11.7 C47,12.9 48,13.1 48.2,14.1 C50.9,14.5 54.7,13.8 54.2,17.4 C52.9,19.8 53.7,24.9 49.9,24.4 C49.4,23 50.8,23 51.7,22.6 C53,21.8 52.8,18.5 51.7,17.7 C50.8,17.7 50.1,17.5 49.1,17.6 C48.8,18.6 49.2,19.7 49.1,20.8 C48.7,22.3 48.5,23.9 48,25.3 C47.5,26.7 47.4,28.4 46.4,29.2 C46.5,30.3 45.8,31.5 44.8,31.8 C44.3,30.5 45.4,30.6 45.8,29.8 C46.2,26.8 46.9,21.2 45.9,17.6 C44.5,17.5 44.7,19.2 43.3,18.8 C42.3,18 42,15.9 42.3,14.1 C43.7,14.1 45.2,14 46.5,14.2 C46.8,13.4 46.2,12.7 46.3,11.8 C44.9,11.4 43.7,12.6 42.3,11.9 C41.4,10.9 41.8,8.2 42.1,7.1" id="Shape"></path><path d="M87.8,23.4 C87.9,22.9 88.5,22.9 88.9,22.6 C90.5,21.1 91.2,18.1 90.8,14.9 C89.2,14.7 88.9,15.6 87.5,15.6 C86.4,14.9 86.5,12.3 87.4,11.5 C89.7,11.7 92.7,10.6 92.6,13.3 C92.5,14.2 91.5,15.1 91.6,16.3 C91.7,17.1 92.4,17.9 92.1,19.3 C91.8,21.2 89.6,23.1 87.8,23.4" id="Shape"></path><path d="M135.7,14.6 C136.2,16.4 135.8,18.8 135.3,20.2 C133.9,20.3 131.9,20 131.4,21.1 C131.8,21.8 133.1,21.6 134.1,21.6 C134.8,21.5 135.3,21.2 136.1,21.2 C137.1,23.7 136,26.8 134.8,28.5 C133.1,28.7 131.8,27.6 131.3,29.2 C130.8,28.8 130.3,28.4 130,27.8 C130.1,23.5 130.5,19.4 130.3,14.8 C130.6,14.7 130.6,14.4 130.9,14.3 C132.4,14.3 134.7,13.8 135.7,14.6 M132,18.7 C132.8,19 134.1,18.8 135.1,18.8 C135.3,18.4 135.2,17.8 135.2,17.3 C134.1,16.5 131.4,16.6 132,18.7 M131.1,24.4 C130.9,25.2 130.9,25.9 131,26.8 C133.1,26.9 135.6,26.9 135.1,24.7 C134.2,24.2 132.4,24.5 131.1,24.4" id="Shape"></path><path d="M93.1,22.5 C92.9,21.6 93.8,21.1 94.1,20.2 C94.3,19.5 94.3,18.7 94.3,17.7 C94.2,17.1 94,16.6 94,16 C94.2,15.9 94.1,15.5 94.2,15.3 C94.8,15 95.2,15.4 95.6,15.6 C96.7,18.6 95.5,22.3 93.1,22.5" id="Shape"></path><path d="M99.9,15.6 C100.3,15.6 100.4,15.9 100.7,16 C100.7,17.2 100,17.8 100.9,18.5 C101.2,18.4 101.7,18.5 102,18.3 C102.5,19.2 102.7,20.5 102.9,21.7 C102.1,22 101.1,22.6 100.5,22.7 C98.6,21.7 99.7,17.7 99.9,15.6" id="Shape"></path><path d="M24.8,15.9 C25.5,15.7 25.5,16.7 24.9,16.7 C24.7,16.4 24.6,16.3 24.8,15.9" id="Shape"></path><path d="M24.8,17.3 L25.1,17.3 C25.3,17.7 25.3,18.7 25.1,19.1 C24.4,19 24.6,17.7 24.8,17.3" id="Shape"></path><path d="M43,19.3 C44.8,20.9 44,24.9 42.2,25.9 C42.7,24 43.1,21.6 43,19.3" id="Shape"></path><path d="M72.2,25.3 L72.4,25.3 C73.5,25.5 73.8,26.4 74.7,26.7 C75.6,26.6 76.1,26.9 76.7,27.1 C76.7,27.8 76.6,28.3 76.4,28.8 C75.4,29.1 75,30 73.9,30.2 C73.9,30.1 73.9,30.1 73.8,30.1 C72.7,29.1 73.4,26.3 72.2,25.3" id="Shape"></path><path d="M102.1,28.1 C101.2,29.1 99.4,29.9 97.4,29.5 C97.8,28.7 99.4,29.1 100,28.6 C100.2,28.5 100.4,28.3 100.6,28.1 C101.2,28.1 101.6,27.8 102.1,28.1" id="Shape"></path><path d="M65.2,30.8 C64.6,31.1 64.2,31.3 63.3,31.1 C63.8,30.7 65.2,28.8 65.2,30.8" id="Shape"></path></g></g></g></g></svg> 