<svg width="276" height="44" viewBox="0 0 276 44" xmlns="http://www.w3.org/2000/svg"><title>icon_logo_b</title><g fill="#231815" fill-rule="evenodd"><path d="M66.747 33.06h7.33v-3.532h-7.33v3.532zM65.6 28.488h9.687v6.25h-1.21v-.623h-7.33v.653H65.6v-6.28zm7.59-5.566c1.545 1.187 3.352 2.925 4.132 4.14l-.98.73c-.26-.417-.643-.906-1.085-1.426-4.163.223-8.57.37-11.372.49l-.076-1.098c.672-.016 1.453-.045 2.294-.075.903-1.32 1.944-3.147 2.54-4.512l1.255.416c-.705 1.32-1.623 2.835-2.48 4.038 2.097-.074 4.5-.178 6.872-.282-.643-.638-1.332-1.262-1.99-1.796l.887-.624zM92.472 33.358c.704 0 .81-.64.918-3.088.275.222.766.445 1.087.52-.138 2.686-.444 3.65-1.93 3.65H90.1c-1.423 0-1.82-.444-1.82-2.018v-10.91h1.147v4.898c1.423-.83 2.86-1.81 3.78-2.656l.842.95c-1.27.978-3.017 1.973-4.623 2.85v4.883c0 .772.137.92.795.92h2.25zm-7.898-11.86h1.15v13.136h-1.15V31.31c-1.376.578-2.753 1.142-3.855 1.587l-.537-1.113c1.117-.342 2.755-.965 4.39-1.574v-4.157h-3.917V24.97h3.918v-3.473zM107.637 24.688c-.337-.326-1.04-.787-1.638-1.04l.535-.548c.597.267 1.3.668 1.653 1.01l-.55.578zm-4.866 2.628h-1.76V28.8h1.76v-1.484zm.827 2.182h-3.382v-2.88h3.382v2.88zm4.347-2.94c-.384 1.396-.965 2.613-1.7 3.638.322.786.735 1.29 1.24 1.365.214.06.368-.578.474-1.527.185.177.52.4.736.49-.2 1.617-.72 2.21-1.516 1.914-.674-.134-1.18-.653-1.592-1.44-.597.67-1.27 1.232-2.02 1.707-.137-.178-.475-.534-.672-.698.9-.505 1.667-1.158 2.31-1.944-.414-1.173-.66-2.702-.84-4.38h-4.685v-.83h4.605c-.046-.52-.09-1.04-.122-1.574h.98c.03.534.06 1.055.092 1.573h3.337v.832h-3.26c.122 1.277.305 2.465.565 3.415.49-.802.872-1.722 1.132-2.73l.934.192zm-3.795 4.32c-1.594.297-3.215.61-4.47.83l-.154-.83c1.163-.178 2.862-.474 4.576-.772l.047.772zm5.186-7.97h-10.5v10.226h10.5V22.907zm1.117-1.01v12.914h-1.117v-.683h-10.5v.682h-1.085V21.898h12.703zM125.647 31.042c.796.802 1.652 1.93 2.02 2.672l-.918.505c-.337-.743-1.195-1.887-1.96-2.718l.857-.46zm-5.48-7.808c-.076.133-.152.282-.228.415.473.25.994.593 1.36.875.185-.416.353-.846.49-1.29h-1.622zm.307 2.687c.17-.237.32-.49.475-.74-.354-.298-.89-.67-1.38-.966-.152.223-.32.43-.473.638.49.327 1.025.727 1.377 1.07zm3.015 4.454v3.25c0 .535-.11.803-.536.966-.4.148-1.026.163-2.02.148-.062-.266-.23-.668-.368-.92.734.015 1.408.015 1.592.015.198-.016.26-.06.26-.223v-3.236h-3.428v-.905h7.988v.904h-3.49zm-2.695.98c-.474 1.084-1.285 2.152-2.035 2.865-.2-.164-.612-.432-.857-.566.765-.652 1.47-1.602 1.898-2.567l.995.267zm6.963-8.67c-.443 1.262-1.177 2.613-1.96 3.534.645.742 1.395 1.336 2.267 1.736-.214.18-.536.55-.688.832-.72-.37-1.347-.847-1.898-1.426v.832h-5.113v-.683c-.535.55-1.132 1.01-1.744 1.365-.138-.223-.398-.58-.627-.758.734-.37 1.422-.934 2.035-1.647-.352-.326-.888-.772-1.377-1.114-.152.163-.306.312-.46.446-.167-.15-.55-.446-.765-.578 1.163-.936 2.082-2.39 2.587-3.98l.934.208c-.11.342-.245.67-.384.995h1.56l.185-.045.63.24c-.445 1.913-1.303 3.47-2.358 4.644h4.82c-1.3-1.395-2.173-3.31-2.678-5.596l.888-.163c.35 1.485.888 2.835 1.638 3.95.473-.64.918-1.486 1.223-2.258h-2.05v-.832h2.495l.183-.06.658.357zm-9.472-.475c-.352 1.246-.795 2.806-1.224 4.022.872 1.247 1.07 2.36 1.086 3.296 0 .786-.168 1.44-.52 1.706-.17.15-.413.24-.688.268-.215.03-.522.03-.813.03 0-.282-.076-.67-.23-.95.262.03.49.03.675.015.153 0 .275-.045.368-.134.183-.15.243-.594.243-1.04 0-.83-.167-1.885-1.04-3.102.353-1.067.704-2.448.95-3.457h-1.546v11.905h-.995V21.854h2.892l.138-.03.704.385zM136.008 32.482c-.32.46-.674.935-.995 1.335 1.806-.06 3.902-.148 6-.252-.445-.237-.904-.445-1.332-.623l.72-.46h-4.392zm6.718-1.455h-9.84v-.713h9.84v.713zm.842-1.99c.123 0 .23-.014.275-.044.06-.044.122-.15.138-.297.03-.193.047-.61.062-1.143.168.15.46.282.69.357-.017.52-.062 1.142-.14 1.35-.06.223-.197.357-.366.446-.14.088-.383.12-.597.12h-.613c-.276 0-.55-.06-.736-.24-.197-.163-.258-.37-.258-1.157v-2.732h-1.27c-.015.474-.077.965-.23 1.484.49.297.92.61 1.21.89l-.582.698c-.244-.237-.582-.505-.964-.757-.4.757-1.04 1.485-2.098 2.108-.12-.147-.366-.37-.58-.52-2.28.18-4.607.343-6.245.447l-.076-.727c.78-.03 1.774-.09 2.862-.15v-.726h-2.22v-.64h2.22v-.756h.98v.757h2.248v.64h-2.25v.667l2.694-.163v.37c.826-.565 1.346-1.188 1.668-1.812-.475-.266-.965-.52-1.44-.727l.552-.622c.382.148.78.342 1.194.55.09-.342.137-.684.153-1.01h-1.716v-.83h1.73v-1.01h.903v1.01h2.188v3.62c0 .298.016.446.076.49.033.045.11.06.2.06h.338zm-8.908-6.01h-3.61v-.833h3.61v-.98h1.118v.98h3.95v-.98h1.115v.98h3.673v.832h-3.673v.683h-1.116v-.684h-3.95v.683h-1.117v-.684zm-.92 3.1c-.242.847-.855 1.307-2.263 1.59-.076-.18-.276-.446-.443-.58 1.177-.178 1.698-.445 1.913-1.01h-1.7v-.652h2.802v-.608h-2.068v-.64h2.067v-.49h.98v.49h2.018v.64h-2.02v.608h2.724v.653h-2.005v.446c0 .22.046.252.276.252h.81c.23 0 .29-.06.32-.475.155.105.4.164.63.224-.077.637-.306.816-.81.816h-1.042c-.765 0-.933-.148-.933-.816v-.446h-1.256zm-2.768 5.642h13.575v.712h-4.025c1.255.505 2.724 1.38 3.49 1.99l-.78.533c-.277-.238-.66-.52-1.104-.787-3.72.208-7.636.402-10.177.52l-.12-.802c.612-.015 1.316-.044 2.08-.074.322-.4.674-.92.95-1.38h-3.888v-.713zM161.364 23.07h-3.626v-.98h3.626v.98zm.215 4.082h-1.363v6.325c0 .593-.123.92-.55 1.113-.43.163-1.118.178-2.19.178-.045-.296-.183-.757-.336-1.07.797.03 1.502.03 1.715.03.214-.014.275-.074.275-.266v-6.31h-1.76v-1.01h4.21v1.01zm-4.99.164c.398 1.41.734 3.176.842 4.394l-.934.164c-.06-1.19-.413-3.015-.78-4.395l.872-.164zm.093-3.325c-.215-.563-.783-1.425-1.272-2.048l.75-.356c.537.623 1.088 1.455 1.317 2.02l-.794.385zm-3.72 3.43c-.184 2.108-.49 4.098-1.148 5.448-.17-.148-.597-.416-.826-.52.64-1.246.886-3.132 1.01-5.062l.962.134zm-1.745-5.834c-.735 1.218-1.96 2.568-3.107 3.43-.152-.24-.442-.61-.64-.818 1.04-.757 2.172-1.96 2.722-2.97l1.026.358zm3.75 3.904v9.055h-1.057V25.49h-2.294v-.89c-.367.727-.796 1.44-1.285 2.123v8.06h-1.056v-6.74c-.443.506-.887.965-1.346 1.35-.122-.236-.46-.74-.674-.978 1.317-1.04 2.602-2.598 3.383-4.23l.98.31v-.03h2.294V21.44h1.058v3.028h2.326v1.024h-2.326zM173.423 30.982c-.29-.965-1.117-2.48-1.928-3.607l.95-.43c.84 1.098 1.682 2.568 2.004 3.517l-1.027.52zm5.08-5.566h-1.637v7.837c0 .772-.198 1.114-.703 1.306-.506.178-1.378.207-2.693.207-.063-.31-.23-.83-.414-1.157 1.025.03 1.99.03 2.28.015.275 0 .368-.09.368-.372v-7.837h-4.53v-1.04h4.53V21.23h1.162v3.146h1.638v1.04zm-10.07 1.365c.537.49 2.006 2.05 2.374 2.466l-.736.934c-.32-.504-1.04-1.394-1.636-2.107v6.68h-1.102v-7.2c-.658 1.767-1.546 3.46-2.433 4.484-.123-.313-.43-.758-.614-1.025 1.133-1.247 2.297-3.533 2.893-5.582h-2.54v-1.04h2.692v-3.176h1.102v3.177h2.296v1.04h-2.296v1.35zM65.964 9.84H63.81V8.564h5.863V9.84h-2.176v6.392h-1.533V9.84zM73.716 13.07l-.228-.838c-.238-.798-.445-1.68-.673-2.507h-.04c-.2.84-.426 1.71-.654 2.507l-.227.84h1.823zm.332 1.192h-2.486l-.54 1.97H69.47l2.454-7.668h1.803l2.466 7.667h-1.606l-.54-1.968zM77.096 8.564h1.534v7.667h-1.534V8.565zM82.972 12.295c1.057 0 1.564-.446 1.564-1.326 0-.893-.56-1.193-1.616-1.193h-.87v2.518h.922zm-2.456-3.73h2.518c1.7 0 3.004.59 3.004 2.404 0 1.75-1.315 2.537-2.962 2.537H82.05v2.724h-1.534V8.565zM87.43 8.564h4.703v1.274h-3.17v1.772h2.693v1.285h-2.693v2.052h3.284v1.284H87.43V8.565zM93.803 8.564h1.534v7.667h-1.534V8.565zM102.84 13.07l-.23-.838c-.237-.798-.444-1.68-.672-2.507h-.04c-.2.84-.426 1.71-.654 2.507l-.228.84h1.823zm.33 1.192h-2.485l-.54 1.97h-1.553l2.455-7.668h1.803l2.466 7.667h-1.606l-.54-1.968zM107.753 12.118h.994c.985 0 1.524-.414 1.524-1.232 0-.83-.538-1.11-1.523-1.11h-.994v2.342zm2.642 4.113l-1.576-2.9h-1.067v2.9h-1.534V8.565h2.673c1.605 0 2.88.56 2.88 2.322 0 1.15-.58 1.864-1.46 2.207l1.792 3.138h-1.71zM114.615 9.84h-2.155V8.564h5.864V9.84h-2.176v6.392h-1.533V9.84zM119.57 8.564h1.534v7.667h-1.534V8.565zM122.483 15.258l.88-1.057c.55.51 1.274.85 1.948.85.8 0 1.224-.34 1.224-.88 0-.57-.467-.746-1.15-1.036l-1.026-.436c-.777-.32-1.555-.942-1.555-2.06 0-1.255 1.1-2.218 2.653-2.218.89 0 1.782.352 2.404.984l-.777.963c-.487-.403-.995-.632-1.627-.632-.673 0-1.11.3-1.11.81 0 .548.55.745 1.203 1.004l1.004.424c.933.383 1.544.973 1.544 2.082 0 1.254-1.047 2.32-2.818 2.32-1.026 0-2.052-.403-2.797-1.118M130.743 9.84h-2.155V8.564h5.864V9.84h-2.176v6.392h-1.533V9.84zM137.057 8.564h1.605l1.016 3.73c.238.85.394 1.617.643 2.476h.053c.238-.86.414-1.626.652-2.475l.995-3.73h1.554l-2.352 7.666H139.4l-2.343-7.666zM144.456 8.564h1.534v7.667h-1.534V8.565zM147.876 8.564h1.534v6.383h3.108v1.284h-4.642V8.565zM153.856 8.564h1.534v6.383h3.108v1.284h-4.642V8.565zM163.05 13.07l-.228-.838c-.24-.798-.446-1.68-.674-2.507h-.04c-.2.84-.426 1.71-.654 2.507l-.228.84h1.823zm.33 1.192h-2.485l-.54 1.97h-1.553l2.455-7.668h1.803l2.466 7.667h-1.606l-.54-1.968zM165.92 12.43c0-2.528 1.638-4.01 3.68-4.01 1.107 0 1.875.477 2.372.985l-.82.973c-.372-.362-.807-.642-1.5-.642-1.276 0-2.167.995-2.167 2.642 0 1.668.767 2.673 2.27 2.673.372 0 .745-.102.963-.29V13.25h-1.358v-1.254h2.725v3.46c-.518.508-1.42.923-2.486.923-2.094 0-3.68-1.388-3.68-3.947M173.735 8.564h4.704v1.274h-3.17v1.772h2.693v1.285h-2.694v2.052h3.283v1.284h-4.818V8.565zM18.846 18.28l19.22-4.035-9.023-12.357L19.035.21 15.51 19.572l3.336-1.29zM40.145 13.81l15.48-3.25V6.345l-23.76-3.984 8.332 11.41-.052.037zM0 27.718v8.75l7.625 2.737V24.762L0 27.718zM16.864.975L0 8.72v16.86l13.324-5.16L16.864.974zM19.336 20.22l-9.71 3.767v15.936l9.038 3.245 15.33-2.524-8.486-21.718-6.172 1.295zM55.625 12.601l-5.632 1.184-8.434 25.614 14.065-2.318V12.602zM27.492 18.51l8.52 21.8 3.32-.546 8.397-25.504-20.238 4.25zM205.79 25.6v-.643h-1.32c-.185.225-.384.433-.6.642h1.92zm.954.654v.984h1.413v-.746h.86v1.402h-5.422v-1.402h.86v.746h1.336v-.984h-2.702V25.6h.553c-.168-.15-.4-.284-.584-.36.63-.492 1.076-1.117 1.337-1.653l.845.134c-.093.194-.2.39-.323.58h3.81v.657h-1.98v.642h2.75v.654h-2.75zm-7.083 6.26h7.575v-.716h-7.574v.716zm0-1.37h7.575v-.702h-7.574v.7zm0-1.358h7.575V29.1h-7.574v.686zm-1.843-5.2h-.952v-2.043h5.915V21.53h1.12v1.013h5.962v2.042h-1.06v-1.163h-10.907v.805h4.9v.7h-2.043v.716h1.812v.657h-1.812v.685l2.12-.12-.015.76c-2.075.134-4.18.27-5.67.373l-.092-.82c.737-.03 1.675-.074 2.704-.134V26.3H198v-.657h1.797v-.715h-1.983v-.343zm7.974 8.598c1.6.417 3.243.893 4.272 1.28l-.998.688c-1.046-.45-2.842-1.013-4.656-1.49l.554-.478h-3.487l.736.447c-1.274.643-3.332 1.223-4.976 1.49-.155-.192-.462-.55-.676-.743 1.504-.238 3.334-.73 4.393-1.193h-2.395v-4.768h9.817v4.768h-2.58zM218.727 32.663h1.26v-1.088h-1.26v1.088zm2.84-3.115h-2.84v1.296h2.84v-1.296zm-2.84-.745h1.26V27.76h-1.26v1.043zm7.666-1.64c-.414 1.848-1.013 3.472-1.83 4.843.432 1.46.955 2.176 1.46 2.176.325-.014.478-.4.555-1.877.215.21.553.432.814.49-.168 2-.554 2.357-1.445 2.357-.843 0-1.536-.73-2.057-2.116-.616.82-1.323 1.534-2.122 2.13-.168-.194-.583-.52-.844-.685.46-.312.89-.654 1.274-1.042h-3.47v.864h-.862V27h4.548v.76h-1.598v1.043h1.598v2.772h-1.598v1.088h1.72v.432c.355-.403.693-.82.984-1.28-.37-1.462-.63-3.385-.752-5.74h-5.685v3.13c0 1.82-.154 4.308-1.092 5.962-.182-.15-.63-.388-.874-.477.646-1.118.875-2.55.952-3.89h-1.09v.685c0 1.058-.17 2.608-1.122 3.652-.154-.15-.492-.358-.69-.463.813-.968.95-2.296.95-3.218V30.8h-.845v-.925h2.844v-1.237h-1.29v.478h-.876v-3.92h.876v2.52h1.29V25.12h6.607l-.014-.537h-.538v-1.073h-3.857v1.044h-1.12v-1.044h-3.626v-.938h3.626v-1.03h1.12v1.03h3.858v-1.03h1.122v1.03h3.703v.938h-3.703v.64h.414c0 .33.017.657.017.97h1.936c-.34-.33-.814-.686-1.26-.955l.675-.505c.54.297 1.2.774 1.508 1.13l-.415.33h.998v.954h-3.41c.094 1.788.247 3.263.477 4.456.492-1.06.86-2.236 1.137-3.532l1.03.164zM239.85 30.04c.293.82.708 1.55 1.23 2.19.523-.655.907-1.43 1.153-2.354h-2.305l-.077.165zm-1.028-4.546h3.196v-.7h-3.196v.7zm-.998-1.267h5.24v1.85l-5.24-.002v-1.848zm5.44 5.648c-.31 1.223-.83 2.22-1.523 3.04.708.642 1.568 1.133 2.567 1.43-.2.196-.49.568-.63.806-1-.355-1.874-.892-2.58-1.593-.77.685-1.706 1.207-2.797 1.624-.123-.194-.46-.566-.677-.745 1.153-.372 2.09-.878 2.843-1.547-.446-.57-.83-1.208-1.122-1.91-.246.387-.49.73-.753 1.03-.167-.165-.55-.478-.797-.612.89-.925 1.567-2.325 1.95-3.77l.938.178c-.106.418-.245.835-.398 1.238h3.733v.833h-.752zm-8.943 3.64c.707-.034 1.475-.063 2.26-.093v-.685h-2.26v.776zm2.26-2.088h-2.26v.7h2.26v-.7zm0-1.3l-2.26.002v.7h2.26v-.7zm-4.01-4.633h3.18v-.7h-3.18v.7zm4.962 4.634v4.993l-.952.002v-.97c-1.584.09-3.12.18-4.32.24l-.076-.806 1.17-.044v-3.414h-.893v-.684h2.52v-.715l-2.042-.002v-.67h5.24v.67h-2.214v.715h2.582v.685h-1.014zm-5.947-5.9l5.192-.002v1.85h-5.192v-1.85zm11.708-.478h-12.138V21.8l1.122-.002v1.178h4.317v-1.447h1.107v1.445h4.425v-1.177h1.168v1.953zm-11.016 5.843c0 1.67-.216 3.994-1.444 5.588-.14-.208-.553-.566-.768-.7 1.105-1.444 1.228-3.412 1.228-4.902v-2.936h12.6v.79h-11.616v2.162zM198.713 9.84h-2.155V8.563h5.864V9.84h-2.176v6.392h-1.533V9.84zM205.202 12.12h.994c.985 0 1.524-.416 1.524-1.234 0-.83-.54-1.11-1.524-1.11h-.994v2.343zm2.642 4.112l-1.576-2.9h-1.066v2.9h-1.534V8.564h2.674c1.605 0 2.88.56 2.88 2.322 0 1.15-.58 1.864-1.46 2.207l1.792 3.14h-1.71zM210.737 8.564h4.704V9.84h-3.17v1.77h2.694v1.286h-2.693v2.05h3.285v1.286h-4.818V8.564zM220.375 13.072l-.228-.84c-.238-.797-.445-1.678-.673-2.507h-.04c-.2.84-.426 1.71-.654 2.507l-.228.84h1.823zm.332 1.19h-2.486l-.538 1.97h-1.554l2.455-7.668h1.803l2.466 7.668h-1.606l-.54-1.97zM223.248 15.257l.88-1.057c.55.508 1.274.85 1.948.85.798 0 1.223-.342 1.223-.88 0-.57-.468-.747-1.152-1.036l-1.025-.436c-.777-.32-1.555-.943-1.555-2.062 0-1.254 1.1-2.217 2.653-2.217.892 0 1.783.35 2.405.983l-.777.963c-.487-.403-.995-.63-1.627-.63-.672 0-1.108.3-1.108.807 0 .55.55.746 1.202 1.005l1.005.425c.932.384 1.543.973 1.543 2.083 0 1.254-1.047 2.32-2.818 2.32-1.026 0-2.052-.404-2.797-1.12M230.182 12.78V8.565h1.533v4.352c0 1.596.55 2.135 1.45 2.135.913 0 1.493-.538 1.493-2.134V8.564h1.47v4.217c0 2.55-1.087 3.597-2.962 3.597-1.865 0-2.984-1.047-2.984-3.596M239.51 12.12h.994c.985 0 1.524-.416 1.524-1.234 0-.83-.54-1.11-1.524-1.11h-.994v2.343zm2.642 4.112l-1.576-2.9h-1.066v2.9h-1.534V8.564h2.674c1.605 0 2.88.56 2.88 2.322 0 1.15-.58 1.864-1.46 2.207l1.792 3.14h-1.71zM245.045 8.564h4.704V9.84h-3.17v1.77h2.692v1.286h-2.693v2.05h3.283v1.286h-4.818V8.564zM253.77 8.564h1.535v3.016h2.9V8.564h1.524v7.668h-1.525v-3.316h-2.9v3.316h-1.534V8.564zM261.618 8.564h1.534v7.668h-1.534V8.564zM265.038 8.564h1.534v6.383h3.108v1.285h-4.642V8.564zM271.02 8.564h1.533v6.383h3.108v1.285h-4.642V8.564zM188.057 34.21h-1V8.42h1v25.79z"/></g></svg>