<svg xmlns="http://www.w3.org/2000/svg" xmlns:xlink="http://www.w3.org/1999/xlink" viewBox="0 0 61.66 16.69"><defs><style>.cls-1{fill:#cf000e;}.cls-2{fill:#231815;}.cls-3{fill:#d7000f;}.cls-4{clip-path:url(#clip-path);}.cls-5,.cls-6{fill:#fff;}.cls-6{fill-rule:evenodd;}</style><clipPath id="clip-path"><path class="cls-1" d="M12.34,11.82l-.61-5.6h.56V.53H6.41V5.21L5.85.07,0,.67l.61,5.6H.05V12H5.93V7.27l.56,5.14ZM1.19,6.27l5.22-.53v.48h4.74l-5.22.53V6.27Z"/></clipPath></defs><title>國藝會</title><g id="圖層_2" data-name="圖層 2"><g id="圖層_3" data-name="圖層 3"><polygon class="cls-2" points="42.47 2.64 42.47 1.93 41.48 1.93 41.48 2.64 36.75 2.64 36.75 1.93 35.76 1.93 35.76 2.64 33.81 2.64 33.81 2.91 44.58 2.91 44.58 2.64 42.47 2.64"/><rect class="cls-2" x="33.81" y="8.01" width="10.77" height="0.26"/><path class="cls-2" d="M33.81,9.19h1.43l-.32.51c-.52.85.69.87,2.25.85h4c1.56,0,2.86-.2,2.86-.7V9.58h-1.1v.33c0,.29-.4.39-2.7.39H37.17s-1.41-.07-1.17-.59l.35-.52h8.23V8.93H33.81Z"/><polygon class="cls-2" points="39.09 7.09 36.75 7.09 36.75 6.47 39.09 6.47 39.09 6.2 36.75 6.2 36.75 5.82 35.76 5.82 35.76 6.2 33.81 6.2 33.81 6.47 35.76 6.47 35.76 7.09 33.81 7.09 33.81 7.36 39.09 7.36 39.09 7.09"/><path class="cls-2" d="M34.75,5.4a2.86,2.86,0,0,1-.84.41s-.1,0-.1.07.09,0,.09,0,1.94-.11,2.47-1.23h.14v.18c0,.61.48.91,1.5.91h1.08V5.49H38.3c-.58,0-.76-.22-.78-.54V4.68h1.57V4.42H36.75V3.79h2.34V3.52H36.75V3.14h-1v.38H33.81v.27h1.95v.63H33.81v.26h1.47A1.68,1.68,0,0,1,34.75,5.4Z"/><path class="cls-2" d="M39.24,7.48c-.12.07-.06.15.07.12a3.3,3.3,0,0,0,2-1.26A6.38,6.38,0,0,1,42.2,7c.23.19.36.25.23,0a4.63,4.63,0,0,0-.88-1.17,3.06,3.06,0,0,0,.19-1.11V3.78h.16c.54,0,.77.15.72.51V6.67c0,.58.32.87,1,.84h1V7.22h-.64c-.29,0-.37,0-.37-.5V4.37c0-.57-.45-.85-1.4-.85h-.43V3.13h-1a1.91,1.91,0,0,1,0,.38H39.49v.26h1.3a9.86,9.86,0,0,1,0,1.38,7.26,7.26,0,0,0-1.27-.66V5.64A7.33,7.33,0,0,1,40.58,6,2.5,2.5,0,0,1,39.24,7.48Z"/><path class="cls-2" d="M55,6.4c-.34-.08-.58-.32-.85-.81l-.38-.72h-.93a10.39,10.39,0,0,0,.62,1.19c.27.43.64.44,1.47.42H55C55.09,6.47,55.06,6.43,55,6.4Z"/><path class="cls-2" d="M57.66,7.52H54.1c-.78,0-1.25.15-1.45.46V7.52h-1v3h1v-.4c.16.29.63.42,1.45.4h3.56c1.68,0,2.42-.22,2.42-.75V8.36C60.08,7.59,59.3,7.5,57.66,7.52ZM54,7.8h3.68c.87,0,1.37.15,1.37.61v.47H52.65V8.11C52.79,7.94,53.15,7.77,54,7.8Zm3.68,2.49H54c-.7,0-1.13-.07-1.33-.31V9.17H59v.51C59,10.08,58.56,10.29,57.66,10.29Z"/><path class="cls-2" d="M57.74,5.59c-.28.49-.51.73-.85.81-.12,0-.14.07,0,.08H57c.83,0,1.2,0,1.47-.42a12.37,12.37,0,0,0,.63-1.19h-.93C58.08,4.93,57.82,5.44,57.74,5.59Z"/><path class="cls-2" d="M61.57,5.08c-1-.33-1.31-1.28-1.68-2.15-.25-.6-.48-.68-1.43-.68H54.9a2,2,0,0,0-1.37.37,2.31,2.31,0,0,0,.17-.45H52.23c-.25,1-.88,2.5-1.71,2.81-.18.07-.17.18,0,.14a5.44,5.44,0,0,0,.84-.35V7h1V6.63c.15.29.62.43,1.44.4H58c1.68,0,2.42-.23,2.42-.76V5.12a5.89,5.89,0,0,0,1.06,0S61.81,5.16,61.57,5.08ZM54.78,2.5h2.93a1,1,0,0,1,1,.52l.15.31H53.1c.12-.17.22-.32.3-.46h0C53.56,2.7,53.8,2.5,54.78,2.5ZM52.22,4.21a4,4,0,0,0,.63-.58H59a5.24,5.24,0,0,1,.24.58,11.09,11.09,0,0,0-1.21,0H53.73c-.78,0-1.25.15-1.44.46V4.18Zm1.39,2.58c-.7,0-1.13-.07-1.32-.31V4.77c.13-.17.49-.34,1.32-.32h1.82V6.78H53.61Zm5.77-.61c0,.4-.47.6-1.37.6H56.4V4.45H58c.87,0,1.37.16,1.37.62Z"/><rect class="cls-3" x="30.06" y="1.9" width="0.62" height="8.64"/><rect class="cls-3" x="47.43" y="1.9" width="0.61" height="8.64"/><path class="cls-2" d="M24.92,3.78c.08,0,.17,0,.17,0s0,0-.06,0a1.42,1.42,0,0,1-1-.84A.6.6,0,0,0,24,2.79h-.74c.15.25.38.63.43.7C23.92,3.8,24.25,3.81,24.92,3.78Z"/><path class="cls-2" d="M24.16,2.31H19a2,2,0,0,0-1.44.39V2.3H16.45v8.22h1.06v-.29a2.1,2.1,0,0,0,1.44.31h5.21c1.79,0,2.58-.24,2.58-.8V3.2C26.74,2.38,25.9,2.28,24.16,2.31ZM25.61,9.8c0,.34-.49.5-1.45.5H18.83a2.08,2.08,0,0,1-1.32-.24V2.81a2.17,2.17,0,0,1,1.32-.25h5.33c1,0,1.45.13,1.45.56Z"/><path class="cls-2" d="M18.78,7.55a1,1,0,0,0,.75.31c1.28,0,1.85-.17,1.85-.58V5.57c0-.59-.6-.66-1.85-.64a.87.87,0,0,0-.75.35V4.93h-.71V7.86h.71Zm0-2.2c.11-.12.32-.23.94-.23s.85.12.85.4V7.33c0,.24-.35.36-1,.36a.88.88,0,0,1-.75-.24Z"/><path class="cls-2" d="M25.27,9.78a4.71,4.71,0,0,1-2-2,9,9,0,0,0,1.82-3H23.92a6.42,6.42,0,0,1-.85,1.86c-.05.08-.1.15-.14.23a5.23,5.23,0,0,1-.27-1.26,14.3,14.3,0,0,1-.1-1.49h2.49V3.92H22.56c0-.6,0-1,0-1H21.47s0,.39,0,1h-3.4v.24h3.41a8.74,8.74,0,0,0,.82,3.65l-.07.09A10.58,10.58,0,0,1,20,10.05c-.07,0-.07.12,0,.1a8.77,8.77,0,0,0,2.34-1.44l.38-.32a4.43,4.43,0,0,0,2.59,1.54s.1,0,.11,0S25.27,9.78,25.27,9.78Z"/><path class="cls-2" d="M21.63,8s-.16,0-.31,0a16.64,16.64,0,0,1-3.25.63v1a12,12,0,0,0,3.28-1.46C21.54,8.12,21.65,8,21.63,8Z"/><polygon class="cls-1" points="2.49 13.49 2.49 15.91 0.18 13.41 0 13.41 0 16.69 0.26 16.69 0.26 14.22 2.6 16.68 2.75 16.68 2.75 16.62 2.75 13.49 2.49 13.49"/><path class="cls-1" d="M6.25,16.39a2.27,2.27,0,0,1-.57.23,2.32,2.32,0,0,1-.59.07,1.73,1.73,0,0,1-1.25-.44,1.59,1.59,0,0,1-.45-1.2,1.54,1.54,0,0,1,.47-1.19,1.89,1.89,0,0,1,1.31-.44,2.3,2.3,0,0,1,.58.07,3.59,3.59,0,0,1,.59.18v.46s-.43-.3-.59-.38a1.31,1.31,0,0,0-.58-.12,1.13,1.13,0,0,0-.9.37,1.5,1.5,0,0,0-.33,1,1.57,1.57,0,0,0,.34,1,1.15,1.15,0,0,0,.91.39,1.34,1.34,0,0,0,.56-.12,1.7,1.7,0,0,0,.5-.38Z"/><path class="cls-1" d="M8.44,13.42H8.2l-1.44,3.2h.43l.41-1.17H8.76l.43,1.17h.64Zm-.72,1.76L8.19,14l.47,1.14Z"/><polygon class="cls-1" points="12.34 13.71 12.34 13.47 10.59 13.47 10.59 16.63 11.09 16.63 11.09 15.04 12.34 15.04 12.34 14.81 11.09 14.81 11.09 13.71 12.34 13.71"/><path class="cls-1" d="M12.34,11.82l-.61-5.6h.56V.53H6.41V5.21L5.85.07,0,.67l.61,5.6H.05V12H5.93V7.27l.56,5.14ZM1.19,6.27l5.22-.53v.48h4.74l-5.22.53V6.27Z"/><g class="cls-4"><path class="cls-5" d="M4.28,2.82s0-.08,0-.09a.45.45,0,0,0-.21-.27c-.09-.09-.14-.08-.15-.07s.06.17.09.16a1,1,0,0,1,.15.65A.29.29,0,0,1,4,3.34s-.17.1-.3.06a.28.28,0,0,1-.17-.18c0-.05,0-.09,0-.14a.44.44,0,0,1,0-.26A3.56,3.56,0,0,1,3.66,2c.07-.07,0-.19,0-.18s-.05-.07-.11-.07h0l-.22.09s0,0,0,0,.19-.3.22-.36.09-.05.14-.15a.11.11,0,0,0,0-.09c0-.09-.23-.12-.36.08l-.14.2c0-.06-.09-.07-.09-.14s-.13,0-.12,0A4.38,4.38,0,0,1,3.29,1,1.76,1.76,0,0,0,4,.77C4.06.7,4,.69,4,.59s-.13,0-.18-.14,0-.12-.07-.17,0-.17-.12-.19S3.27-.15,3,.28L3,.32,2.82.45a4.17,4.17,0,0,1-.66.4A.76.76,0,0,1,1.57,1a4,4,0,0,1-.4-.22S1,.71,1.05.76s.21.2.22.37a.26.26,0,0,0,.06.33.51.51,0,0,0,.42.12s.13-.08.07-.16v0S2,1.1,2.2,1.05s.4-.33.48-.38.19,0,.17.15a1.18,1.18,0,0,1-.19.48,2,2,0,0,1-.86.61S1.5,2,1.5,2s0-.16,0-.16,0,0-.11.09a.42.42,0,0,0-.11.29c0,.16,0,.17.06.16s.37-.19.48-.21.08,0,.09.07a.23.23,0,0,1-.05.11s-.07,0-.06.08,0,.22,0,.3a.16.16,0,0,1-.16.12c-.16,0-.18.08-.25.09A.5.5,0,0,0,1.1,3a.12.12,0,0,0,0,.16c0,.08-.05.11,0,.18.12-.13.18,0,.23-.13A3.51,3.51,0,0,1,1.68,3c.05,0,.05,0,.12.06s0,.09,0,.11-.29.33-.44.42a.66.66,0,0,0-.23.18C1,3.85,1,4,.89,4.05s0,.11-.05.16h0l-.19.2a.08.08,0,0,0,0,.09s.07.14.08.13c.1.19.39-.1.4-.18s0,0,0,0a.79.79,0,0,1,.23-.53c.08-.06.11-.19.21-.22s0,.26,0,.29-.05.2-.07.27a.51.51,0,0,1-.12.2,2.25,2.25,0,0,1-.21.4S1,4.9,1,4.92,1,5,1,5.11s0,.11,0,.17A.17.17,0,0,0,1,5.34c.1,0,.08-.12.12-.18s0-.08.1-.35.27-.48.3-.61a.16.16,0,0,1,.1-.12s.09,0,.11,0,0,.07,0,.13a.79.79,0,0,1,0,.34s0,.08,0,.1.08.14.08.21.07-.14.11-.18,0-.12,0-.18,0-.17,0-.24,0-.21,0-.32,0-.19,0-.24.13-.17.22-.3a.83.83,0,0,0,.16-.21A1.14,1.14,0,0,0,2.51,3c0,.06.15.09.06.2s0,.06,0,.08-.07.21-.13.31c-.18.29-.09.35-.12.51s.12,0,.14.1,0,.1,0,.11c.22,0,.12-.22.43-.25l.05,0C3,3.73,2.65,4,2.55,3.94s-.1,0-.13,0a.16.16,0,0,1,.06-.12,1.34,1.34,0,0,1,.09-.26,1.58,1.58,0,0,1,.14-.36s.06,0,.07,0,0,.07,0,.11,0,0,.06,0A.29.29,0,0,0,3,3.17c0-.06.13-.06.19-.09l.11,0c.18,0,.06.2.13.28a.51.51,0,0,0,.19.3.55.55,0,0,0,.36,0l.17-.08c.25-.13.31-.08.37-.13s0,0,0-.07A1.07,1.07,0,0,0,4.28,2.82ZM2.45,2a2.84,2.84,0,0,0,.37-.17c.06,0,.06,0,.09-.05L3,1.67A1.19,1.19,0,0,0,3,1.82l0,.11a1.45,1.45,0,0,0,.15-.2s.08-.05.08,0a.8.8,0,0,1-.07.2.32.32,0,0,1-.13.17c-.1.06-.13,0-.21.12a1.09,1.09,0,0,1-.21.14s0,0,0,0-.25.11-.29.12h0a.11.11,0,0,1-.08-.08C2.06,2,2.3,2,2.45,2Zm.37.61A1.74,1.74,0,0,1,2.45,3c-.05,0-.12.18-.2.22s-.06.08-.09.13S2,3.53,2,3.45s.14-.26.09-.36S2,3,2,2.94a.33.33,0,0,1,.16-.12.19.19,0,0,0,.07-.08,1,1,0,0,0,.27-.19,1.91,1.91,0,0,1,.42-.27c0,.09,0,.13,0,.16Zm.54.06c0,.06-.14,0-.21,0s-.22,0-.24,0,0-.18.06-.21,0-.08,0-.13a1.09,1.09,0,0,1,.13-.23A1,1,0,0,1,3.39,2,1.38,1.38,0,0,1,3.36,2.62Z"/><path class="cls-5" d="M3.15,5.27c-.07,0-.14,0-.24.08s-.54.18-.34,0a4.43,4.43,0,0,1,.58-.6c.08-.05.23-.18.07-.32s0,.07-.16,0-.33.06-.7.25c-.09,0-.08-.07-.08-.12s-.24.13-.23.24A.16.16,0,0,0,2.14,5c.06,0,.14,0,.18,0s.19-.08.29-.14.16,0,.07.12a2.13,2.13,0,0,1-.26.31c-.14.17-.11.17-.25.25s-.13.11-.08.17,0,.12.05.14c.23.09.67-.21.82-.06s0,.11-.14.19H3a1,1,0,0,0,.42-.22C3.68,5.4,3.23,5.28,3.15,5.27Z"/><path class="cls-5" d="M1.83,8.44a.42.42,0,0,0,.26-.08c.39,0,.23-.32.21-.35S2.17,7.8,2,7.79,1.89,8,1.83,8s-.56.33-.5.53C1.62,8.58,1.57,8.44,1.83,8.44Z"/><path class="cls-5" d="M4.08,8.08c.14,0,0,0,.06,0h0c.09,0,.33,0,.3-.07a.71.71,0,0,0,0-.21c-.05-.16-.12-.27-.3-.23s-.23,0-.29.1-.09,0-.11.08.11.1.19.11S3.93,8.1,4.08,8.08Z"/><path class="cls-5" d="M1.83,9l0,0c-.05.07,0,.17-.22.38A6,6,0,0,0,1,9.9c-.12,0-.38.28-.37.34s.18,0,.26-.06.48,0,.68-.12,0,.19,0,.3a.74.74,0,0,0,.1.36.34.34,0,0,0,.2.12.14.14,0,0,0,.17,0c.11-.07.06-.19.06-.27A.74.74,0,0,0,1.83,10c-.05,0-.12-.12,0-.18a1.9,1.9,0,0,0,.33-.29.43.43,0,0,0,0-.3A.62.62,0,0,0,1.83,9Z"/><path class="cls-5" d="M4.67,8.37c-.13,0-.41.26-.59.3a.89.89,0,0,0-.43.2s-.06,0-.06.05L3.65,9A.4.4,0,0,0,3.83,9C3.89,9,4,9,4,8.94s.14-.08.11.53a5.49,5.49,0,0,1,.07.77c0,.06,0,.47,0,.61a.25.25,0,0,1-.09.2c-.14.15-.35.12-.35.27a.54.54,0,0,1,.38-.05c.1,0,.21.09.27.11s.14-.05.17-.22a3.52,3.52,0,0,0,0-.85c0-.27-.09-.53-.09-.79a2,2,0,0,0-.18-.67c.13,0,.27-.06.4-.1S5,8.6,5,8.49,4.77,8.39,4.67,8.37Z"/><path class="cls-5" d="M3.62,9.25l-.33-.06a.14.14,0,0,1-.08,0c0-.14,0-.24,0-.39s.07-.18.09-.18l.36-.14c.1-.07,0-.09,0-.09a.52.52,0,0,0-.35,0s-.13,0-.08-.08,0-.24.07-.26a1,1,0,0,0,0-.34c.13-.32.17-.66,0-.68S3.08,6.91,3,7s-.16.21-.16.35c0,0,.17-.17.25,0s0,.17,0,.22a3.73,3.73,0,0,0,0,.81c0,.14-.35.24-.4.29s-.12.1-.31.12a.1.1,0,0,0-.07,0,.59.59,0,0,0,.48,0l.18-.12C3,8.67,3,8.87,3,9a.41.41,0,0,1-.08.13c-.17.23-.56.58-.59.76h0a1.39,1.39,0,0,0,.41-.22c.12-.12.28-.35.25-.13v0a1.1,1.1,0,0,0,0,.3c0,.11,0,.26,0,.37a.25.25,0,0,1,0,.07s0,.23.11.12,0-.07.07-.07.06-.11.06-.27-.05-.38,0-.59c0,0,0-.08.11,0s.14.12.24.14.07,0,.12,0,0-.15,0-.23S3.66,9.27,3.62,9.25Z"/><path class="cls-6" d="M11.84,5.12A.8.8,0,0,0,11.52,5a1.81,1.81,0,0,1-.86-.47,1.66,1.66,0,0,0-.19-.17s-.22-.14-.22-.15S10,4,9.9,4s0-.15,0-.16a2.49,2.49,0,0,0,.42-.34.36.36,0,0,1,.13-.13c.2-.18.14-.2.17-.25s.1,0,.11,0h.2a.15.15,0,0,0,.1,0,1.05,1.05,0,0,1,.24,0,.11.11,0,0,1,.08,0,.66.66,0,0,0,.25,0l.11,0a.22.22,0,0,0,.13-.09s.06-.11-.05-.13h0a.59.59,0,0,1-.22,0h-.39l-.18,0a1.16,1.16,0,0,0-.2,0s-.48,0-.54,0h-.09a1,1,0,0,1-.3,0H9.7a.05.05,0,0,1,0,0c0-.07-.12-.11,0-.23s.06-.05,0-.1-.07,0-.08-.06l-.07,0s-.09,0-.09.06a.69.69,0,0,1,0,.1.42.42,0,0,1-.11.13s0,0,0,.05,0,0,0,0,.07,0,.07.06S9.26,3,9.25,3h0A.25.25,0,0,1,9.1,3a.85.85,0,0,0-.22,0,.88.88,0,0,1-.28,0,1.31,1.31,0,0,0-.42,0,.66.66,0,0,1-.3,0,.24.24,0,0,0-.17,0s-.13.05-.16.14,0,.18,0,.21.37-.08.41-.09a.82.82,0,0,0,.33-.05l.26-.09a.22.22,0,0,1,.22.09c.15.12.1.15.19.22s.13.26.32.31.22.17-.16.4l-.16.1a3.67,3.67,0,0,1-.37.14c-.1,0-.27.1-.33.1a.25.25,0,0,0-.13,0,4.64,4.64,0,0,1-.92.11l-.08-.06a.11.11,0,0,0-.15,0s0,0-.05.07a1.27,1.27,0,0,0-.12.32.14.14,0,0,1,0,.06l0,0s0,0,.1,0l.17,0a.46.46,0,0,1,.17,0A1,1,0,0,0,7.83,5a1,1,0,0,1,.5-.16c.05,0,.05-.1.26-.1s.06-.13.29-.16a.91.91,0,0,0,.65-.46c.08-.12.21,0,.5.21.11.06.17.19.28.25a1.36,1.36,0,0,1,.18.24c.13.2.35.26.45.44l.36.43c.08.06.3,0,.41-.08A.89.89,0,0,1,12,5.49c.22-.16.22-.23.23-.29S12.06,5.25,11.84,5.12ZM9.6,3.78s-.07-.09-.15-.09a.74.74,0,0,1-.36-.34c0-.11-.08-.12-.05-.16s.22-.14.37-.11a4.3,4.3,0,0,0,.6,0c.13,0,.31,0,.4,0s0,.14,0,.16l-.18.15a.85.85,0,0,0-.28.25C9.88,3.68,9.71,3.87,9.6,3.78Z"/><path class="cls-6" d="M10.14,8.87c.11.06.08.09.16.11s0,.07.17.11a1.42,1.42,0,0,1,.31.13c.05,0,.06.09.16.1s.15-.11.16-.17A.24.24,0,0,0,11.21,9c0-.15-.05-.12-.11-.26a.2.2,0,0,0,0-.07L11,8.56s0,0,0-.14h0a.22.22,0,0,1-.06-.14.28.28,0,0,0-.14-.19c-.13-.07-.2-.1-.17,0s0,.13,0,.15a.88.88,0,0,0,0,.18.18.18,0,0,1,0,.06s0,.07,0,.09a.15.15,0,0,1,0,.06s0,.1,0,.11a.2.2,0,0,0-.1,0,.52.52,0,0,1-.11,0l-.25,0S10,8.81,10.14,8.87Z"/><path class="cls-6" d="M8.38,7.17c0-.1-.11-.19-.19-.17s-.06.09-.06.09A.45.45,0,0,1,8,7.31L8,7.44s0,.13,0,.22-.12.19-.14.24a1.69,1.69,0,0,0-.21.4.26.26,0,0,1-.09.16,1.93,1.93,0,0,0-.16.38s-.05,0-.06.09l0,.08s-.09.21-.12.23a1.48,1.48,0,0,0-.21.32c0,.11-.07.07-.14.23a1,1,0,0,0-.1.32c0,.06-.07.09,0,.13s.15,0,.24-.1A.2.2,0,0,0,7,10a3.88,3.88,0,0,1,.23-.33.72.72,0,0,0,.11-.24A1.22,1.22,0,0,0,7.56,9c0-.07,0-.07.06-.12a.37.37,0,0,1,.07-.1l0-.07h0v.21a.6.6,0,0,0,0,.2c0,.09,0,.24,0,.26s0,.28,0,.31a1.26,1.26,0,0,0,0,.27s0,.35,0,.5a.88.88,0,0,0,0,.23,1.93,1.93,0,0,0,0,.34c0,.14,0,.15,0,.23s.15.2.2.19.14-.17.17-.25a.37.37,0,0,0,0-.14.2.2,0,0,1,.05-.13.2.2,0,0,0,0-.13l0-.1a.2.2,0,0,1,0-.05.13.13,0,0,1,0,0l0,0A2.22,2.22,0,0,0,8.38,10s-.27.61-.33.49a1,1,0,0,1,0-.2.72.72,0,0,0,0-.19V9.82a3,3,0,0,1,0-.31,2.42,2.42,0,0,0,0-.27.43.43,0,0,1,0-.12c0-.08,0-.36,0-.37A.21.21,0,0,0,8,8.54s-.08,0-.09-.13S8,8.26,8,8.2A.55.55,0,0,1,8,8.05a.72.72,0,0,0,.12-.24h0v0a.15.15,0,0,0,0-.07c0-.13.2-.22.18-.36A1.18,1.18,0,0,0,8.38,7.17Z"/><path class="cls-6" d="M11.45,10.46a.41.41,0,0,1-.19.31c-.07.05-.12.22-.14.25s-.08.12-.53.18h-.16a.59.59,0,0,1-.42,0A.39.39,0,0,1,9.84,11h0a.55.55,0,0,0-.05-.13s0-.08,0-.1a1.29,1.29,0,0,0-.07-.33.45.45,0,0,0,0-.11.43.43,0,0,0,0-.05v-.13l0-.13a.55.55,0,0,0,0-.12c0-.05,0-.33,0-.33h0s0-.18,0-.4a3.86,3.86,0,0,1,.05-.57s0-.05,0-.11a.71.71,0,0,0,0-.27c0-.1,0-.21,0-.25a.56.56,0,0,0,0-.22.3.3,0,0,0,0-.17.26.26,0,0,0-.35,0s-.09,0-.06.09A.58.58,0,0,1,9.42,8c0,.18,0,.41,0,.41s0,.2,0,.27a.71.71,0,0,0,0,.17s0,.3,0,.32a.85.85,0,0,0,0,.16s0,.26,0,.34a1.22,1.22,0,0,1,0,.32s0,.41,0,.41v.22s0,.13,0,.13a1.26,1.26,0,0,0,.21.61.49.49,0,0,0,.26.2.15.15,0,0,1,.09,0,.56.56,0,0,0,.21,0l.57,0,.19,0,.09,0h0a.5.5,0,0,0,.23-.16,1,1,0,0,0,.21-.34s0-.1,0-.13S11.53,10.46,11.45,10.46Z"/></g></g></g></svg>